<svg width="24" height="24" viewBox="0 0 24 24" fill="none" xmlns="http://www.w3.org/2000/svg">
<path fill-rule="evenodd" clip-rule="evenodd" d="M10.5282 2.28306C10.9775 2.0301 11.4844 1.89722 12 1.89722C12.5156 1.89722 13.0225 2.0301 13.4718 2.28306C13.9211 2.53601 14.2976 2.90049 14.565 3.34133L14.5679 3.34608L23.0379 17.4861L23.046 17.4999C23.3079 17.9535 23.4465 18.4678 23.448 18.9917C23.4495 19.5155 23.3138 20.0306 23.0544 20.4857C22.7949 20.9408 22.4209 21.32 21.9694 21.5857C21.518 21.8513 21.0048 21.9941 20.481 21.9999L20.47 22L3.51901 22C2.99521 21.9942 2.48204 21.8513 2.03057 21.5857C1.5791 21.32 1.20505 20.9408 0.945651 20.4857C0.686247 20.0306 0.550528 19.5155 0.551995 18.9917C0.553461 18.4678 0.692064 17.9535 0.954011 17.4999L0.962134 17.4861L9.43213 3.34609L10.29 3.85995L9.435 3.34133C9.70241 2.90049 10.0789 2.53601 10.5282 2.28306ZM11.1462 4.3766L2.68269 18.5058C2.59751 18.6556 2.55247 18.8249 2.55199 18.9973C2.5515 19.1719 2.59674 19.3436 2.68321 19.4953C2.76967 19.647 2.89436 19.7734 3.04485 19.8619C3.19402 19.9497 3.3634 19.9973 3.5364 20H20.4636C20.6366 19.9973 20.806 19.9497 20.9552 19.8619C21.1056 19.7734 21.2303 19.647 21.3168 19.4953C21.4033 19.3436 21.4485 19.1719 21.448 18.9973C21.4475 18.8249 21.4025 18.6556 21.3173 18.5058L12.855 4.37859C12.8546 4.37792 12.8542 4.37726 12.8538 4.3766C12.7647 4.23054 12.6397 4.10977 12.4906 4.02583C12.3408 3.94151 12.1719 3.89722 12 3.89722C11.8281 3.89722 11.6592 3.94151 11.5094 4.02583C11.3603 4.10977 11.2353 4.23054 11.1462 4.3766Z" fill="#250116"/>
<path fill-rule="evenodd" clip-rule="evenodd" d="M12 8C12.5523 8 13 8.44772 13 9V13C13 13.5523 12.5523 14 12 14C11.4477 14 11 13.5523 11 13V9C11 8.44772 11.4477 8 12 8Z" fill="#250116"/>
<path fill-rule="evenodd" clip-rule="evenodd" d="M11 17C11 16.4477 11.4477 16 12 16H12.01C12.5623 16 13.01 16.4477 13.01 17C13.01 17.5523 12.5623 18 12.01 18H12C11.4477 18 11 17.5523 11 17Z" fill="#250116"/>
</svg>
