<svg width="24" height="24" viewBox="0 0 24 24" fill="none" xmlns="http://www.w3.org/2000/svg">
<path fill-rule="evenodd" clip-rule="evenodd" d="M12 9C10.3431 9 9 10.3431 9 12C9 13.6569 10.3431 15 12 15C13.6569 15 15 13.6569 15 12C15 10.3431 13.6569 9 12 9ZM7 12C7 9.23858 9.23858 7 12 7C14.7614 7 17 9.23858 17 12C17 14.7614 14.7614 17 12 17C9.23858 17 7 14.7614 7 12Z" fill="#250116"/>
<path fill-rule="evenodd" clip-rule="evenodd" d="M7.30009 2.05535C9.54474 0.994596 12.0822 0.724356 14.4999 1.28858C16.9176 1.8528 19.0734 3.21829 20.6166 5.16303C22.1599 7.10778 22.9999 9.51738 23 12V13.0001C23 14.061 22.5786 15.0784 21.8284 15.8285C21.0783 16.5787 20.0609 17.0001 19 17.0001C17.9391 17.0001 16.9217 16.5787 16.1716 15.8285C15.4214 15.0784 15 14.061 15 13.0001V8.00011C15 7.44783 15.4477 7.00011 16 7.00011C16.5523 7.00011 17 7.44783 17 8.00011V13.0001C17 13.5305 17.2107 14.0393 17.5858 14.4143C17.9609 14.7894 18.4696 15.0001 19 15.0001C19.5304 15.0001 20.0392 14.7894 20.4142 14.4143C20.7893 14.0393 21 13.5305 21 13.0001V12.0002C21 12.0002 21 12.0002 21 12.0002C20.9999 9.96892 20.3126 7.99739 19.05 6.40625C17.7873 4.8151 16.0235 3.69788 14.0454 3.23624C12.0673 2.77461 9.99115 2.99571 8.15462 3.86361C6.3181 4.7315 4.82917 6.19514 3.92994 8.01653C3.03072 9.83792 2.77408 11.9099 3.20176 13.8957C3.62944 15.8814 4.71629 17.6641 6.28558 18.9538C7.85487 20.2435 9.8143 20.9645 11.8453 20.9994C13.8762 21.0343 15.8593 20.3812 17.472 19.1462C17.9105 18.8104 18.5382 18.8936 18.874 19.3321C19.2097 19.7706 19.1265 20.3983 18.688 20.7341C16.7169 22.2435 14.2932 23.0418 11.8109 22.9991C9.32859 22.9564 6.93372 22.0753 5.0157 20.4989C3.09768 18.9226 1.76932 16.7438 1.24659 14.3168C0.723873 11.8898 1.03754 9.35729 2.13659 7.13115C3.23565 4.905 5.05545 3.11611 7.30009 2.05535Z" fill="#250116"/>
</svg>
