<svg width="24" height="24" viewBox="0 0 24 24" fill="none" xmlns="http://www.w3.org/2000/svg">
<g clip-path="url(#clip0_44_570)">
<path fill-rule="evenodd" clip-rule="evenodd" d="M9.76823 20.1349C10.246 19.8578 10.8579 20.0204 11.135 20.4981C11.2229 20.6497 11.3491 20.7755 11.5009 20.8629C11.6527 20.9504 11.8248 20.9964 12 20.9964C12.1752 20.9964 12.3473 20.9504 12.4991 20.8629C12.6509 20.7755 12.7771 20.6497 12.865 20.4981C13.1421 20.0204 13.754 19.8578 14.2318 20.1349C14.7095 20.412 14.8721 21.024 14.595 21.5017C14.3313 21.9563 13.9528 22.3337 13.4973 22.596C13.0419 22.8583 12.5256 22.9964 12 22.9964C11.4744 22.9964 10.9581 22.8583 10.5027 22.596C10.0472 22.3337 9.66872 21.9563 9.405 21.5017C9.12788 21.024 9.2905 20.412 9.76823 20.1349Z" fill="#250116"/>
<path fill-rule="evenodd" clip-rule="evenodd" d="M18.016 7.00013C18.5682 7.00895 19.0087 7.46377 18.9999 8.01598C18.9744 9.60967 19.1747 11.1989 19.5947 12.7365C19.7402 13.2693 19.4263 13.8191 18.8935 13.9647C18.3608 14.1102 17.8109 13.7963 17.6654 13.2635C17.1956 11.5439 16.9717 9.76643 17.0002 7.98403C17.009 7.43181 17.4638 6.99131 18.016 7.00013Z" fill="#250116"/>
<path fill-rule="evenodd" clip-rule="evenodd" d="M6.55459 5.30444C7.08237 5.46713 7.37833 6.02687 7.21565 6.55465C7.07156 7.02208 6.99886 7.50858 7.00001 7.99772L7.00002 8.00007C7.00002 11.6474 6.21708 14.0654 5.37791 15.6039C5.30181 15.7434 5.22543 15.8754 5.14934 16.0001H17C17.5523 16.0001 18 16.4478 18 17.0001C18 17.5524 17.5523 18.0001 17 18.0001H3.00002C2.55935 18.0001 2.17062 17.7116 2.04292 17.2899C1.91658 16.8726 2.07522 16.4221 2.4337 16.1759C2.43441 16.1754 2.43536 16.1747 2.43656 16.1738C2.44426 16.168 2.46212 16.1544 2.48874 16.1322C2.54195 16.0879 2.63034 16.0092 2.74281 15.8905C2.96724 15.6536 3.29033 15.2545 3.62212 14.6462C4.28288 13.4348 4.99986 11.3532 5.00002 8.00115M2.44381 16.169C2.44389 16.169 2.44397 16.1689 2.44405 16.1689C2.44405 16.1689 2.44404 16.1689 2.44404 16.1689L2.44381 16.169Z" fill="#250116"/>
<path fill-rule="evenodd" clip-rule="evenodd" d="M11.6627 0.999343C12.9294 0.938241 14.1888 1.22236 15.3065 1.82134C16.4242 2.42033 17.3582 3.31169 18.0087 4.4002C18.6593 5.48872 19.0019 6.73351 19 8.0016C18.9992 8.55388 18.5508 9.00093 17.9985 9.00011C17.4463 8.99929 16.9992 8.55091 17 7.99863C17.0014 7.09285 16.7566 6.20372 16.292 5.42621C15.8273 4.64869 15.1602 4.01201 14.3618 3.58416C13.5634 3.15632 12.6638 2.95338 11.7591 2.99702C10.8544 3.04066 9.9785 3.32925 9.22503 3.83196C8.76561 4.13848 8.1447 4.01453 7.83818 3.55512C7.53166 3.0957 7.65561 2.47478 8.11503 2.16827C9.16989 1.46447 10.3961 1.06045 11.6627 0.999343Z" fill="#250116"/>
<path fill-rule="evenodd" clip-rule="evenodd" d="M0.292893 0.292893C0.683417 -0.0976311 1.31658 -0.0976311 1.70711 0.292893L23.7071 22.2929C24.0976 22.6834 24.0976 23.3166 23.7071 23.7071C23.3166 24.0976 22.6834 24.0976 22.2929 23.7071L0.292893 1.70711C-0.0976311 1.31658 -0.0976311 0.683417 0.292893 0.292893Z" fill="#250116"/>
</g>
<defs>
<clipPath id="clip0_44_570">
<rect width="24" height="24" fill="white"/>
</clipPath>
</defs>
</svg>
