<svg width="24" height="24" viewBox="0 0 24 24" fill="none" xmlns="http://www.w3.org/2000/svg">
<g clip-path="url(#clip0_44_591)">
<path fill-rule="evenodd" clip-rule="evenodd" d="M8.69387 3.91207C8.74246 3.36193 9.22784 2.95534 9.77798 3.00394C11.6366 3.16811 13.3982 3.90589 14.8191 5.11518C16.0395 6.1538 16.9567 7.49612 17.4823 9.00006L17.9988 9.00006C17.9989 9.00006 17.9987 9.00006 17.9988 9.00006M5.87512 4.51617C6.14237 4.99949 5.9672 5.60795 5.48388 5.87519C4.1172 6.63088 3.04246 7.82188 2.43064 9.25873C1.81883 10.6956 1.70506 12.2958 2.10745 13.8047C2.50984 15.3137 3.40527 16.6448 4.6513 17.5862C5.89733 18.5276 7.42239 19.0254 8.98388 19.0002L8.99999 19.0001L17.9988 19.0001C17.9991 19.0001 17.9986 19.0001 17.9988 19.0001C18.4624 18.9994 18.9231 18.9182 19.3588 18.7601C19.878 18.5716 20.4516 18.8397 20.64 19.3589C20.8284 19.878 20.5603 20.4516 20.0412 20.6401C19.3872 20.8774 18.6969 20.9992 18.0012 21.0001H9.00782C7.00308 21.0305 5.04548 20.3907 3.44565 19.1819C1.84361 17.9715 0.692341 16.2602 0.174983 14.3201C-0.342375 12.38 -0.196108 10.3226 0.590516 8.4752C1.37714 6.62781 2.75894 5.09653 4.5161 4.12493C4.99942 3.85769 5.60788 4.03285 5.87512 4.51617Z" fill="#250116"/>
<path fill-rule="evenodd" clip-rule="evenodd" d="M0.292893 0.292893C0.683417 -0.0976311 1.31658 -0.0976311 1.70711 0.292893L23.7071 22.2929C24.0976 22.6834 24.0976 23.3166 23.7071 23.7071C23.3166 24.0976 22.6834 24.0976 22.2929 23.7071L0.292893 1.70711C-0.0976311 1.31658 -0.0976311 0.683417 0.292893 0.292893Z" fill="#250116"/>
</g>
<defs>
<clipPath id="clip0_44_591">
<rect width="24" height="24" fill="white"/>
</clipPath>
</defs>
</svg>
