<svg width="24" height="24" viewBox="0 0 24 24" fill="none" xmlns="http://www.w3.org/2000/svg">
<path fill-rule="evenodd" clip-rule="evenodd" d="M4 14C4.55228 14 5 14.4477 5 15V22C5 22.5523 4.55228 23 4 23C3.44772 23 3 22.5523 3 22V15C3 14.4477 3.44772 14 4 14Z" fill="#250116"/>
<path fill-rule="evenodd" clip-rule="evenodd" d="M4.50361 1.57152C5.25949 1.26917 6.38728 1 8 1C9.69345 1 11.0967 1.56148 12.3157 2.04923C12.3343 2.05668 12.3529 2.06411 12.3714 2.07152C13.6395 2.57876 14.7193 3 16 3C17.3873 3 18.2595 2.76917 18.7536 2.57152C19.0016 2.47234 19.1589 2.37972 19.2422 2.3242C19.2837 2.29655 19.3074 2.27769 19.3153 2.2712C19.3153 2.27114 19.3154 2.27109 19.3155 2.27104C19.3173 2.26949 19.3183 2.26868 19.3183 2.26866C19.3183 2.26864 19.3173 2.26949 19.3154 2.27129L19.3068 2.27926L19.3005 2.28535L19.2969 2.28894L19.2949 2.29087L19.2939 2.29187C19.2934 2.29238 19.2929 2.29289 20 3M19 4.6032C18.2724 4.82731 17.2918 5 16 5C14.3066 5 12.9033 4.43852 11.6843 3.95077C11.6657 3.94332 11.6471 3.93589 11.6286 3.92848C10.3605 3.42124 9.2807 3 8 3C6.61272 3 5.74052 3.23083 5.24639 3.42848C5.15123 3.46654 5.06941 3.50364 5 3.53805V13.3968C5.72761 13.1727 6.70825 13 8 13C9.69345 13 11.0967 13.5615 12.3157 14.0492L12.3714 14.0715C13.6395 14.5788 14.7193 15 16 15C17.3873 15 18.2595 14.7692 18.7536 14.5715C18.8488 14.5335 18.9306 14.4964 19 14.4619V4.6032ZM4 3C3.2929 2.29289 3.29342 2.29237 3.29394 2.29185L3.29502 2.29078L3.29724 2.28857L3.302 2.2839L3.31275 2.27352C3.32047 2.26616 3.32931 2.2579 3.33929 2.24883C3.35926 2.23068 3.38378 2.20926 3.41312 2.1851C3.47183 2.13675 3.54962 2.07757 3.64843 2.0117C3.8464 1.87972 4.12656 1.72234 4.50361 1.57152" fill="#250116"/>
</svg>
