<svg width="24" height="24" viewBox="0 0 24 24" fill="none" xmlns="http://www.w3.org/2000/svg">
<g clip-path="url(#clip0_44_1434)">
<path fill-rule="evenodd" clip-rule="evenodd" d="M4.55666 2.48161C4.55545 2.47789 4.55427 2.47416 4.55313 2.47041L4.55666 2.48161ZM5.1075 4.17281L6.9992 9.97971C7.13331 10.3914 7.51708 10.67 7.95002 10.67H16.05C16.4833 10.67 16.8672 10.391 17.0011 9.97896L18.8868 4.17505L20.779 9.99896L22.0032 13.6238L12 20.8938L2.0356 13.652L5.1075 4.17281ZM22.1473 13.6983L22.0667 13.5873C22.0777 13.573 22.0912 13.5605 22.1066 13.5505L22.1935 13.6848L22.1473 13.6983ZM22.1705 13.7301L22.65 14.39L22.2135 13.7156L22.1705 13.7301ZM23.2203 15.2117L12.5879 22.9389C12.2374 23.1936 11.7627 23.1936 11.4121 22.9389L0.762122 15.1989L0.75756 15.1956C0.444814 14.9656 0.21283 14.6425 0.0947976 14.2727C-0.0228313 13.9041 -0.0212805 13.5079 0.0991719 13.1403L3.75896 1.85096C3.76461 1.83356 3.77074 1.81632 3.77734 1.79925C3.85706 1.59313 3.98379 1.40846 4.14742 1.25995C4.4107 1.0203 4.75394 0.887451 5.11002 0.887451C5.46692 0.887451 5.81092 1.02091 6.07444 1.26161C6.08139 1.26796 6.08824 1.2744 6.09501 1.28094C6.26558 1.44581 6.39209 1.65074 6.46304 1.87697L8.67598 8.66996H15.3235L17.539 1.85096C17.5446 1.83356 17.5507 1.81632 17.5573 1.79925C17.6371 1.59312 17.7638 1.40846 17.9274 1.25995C18.1907 1.0203 18.5339 0.887451 18.89 0.887451C19.2469 0.887451 19.5909 1.02091 19.8544 1.26161C19.8614 1.26796 19.8682 1.2744 19.875 1.28094C20.0457 1.44593 20.1723 1.65104 20.2432 1.87746L22.6793 9.37535L23.9474 13.13C23.9494 13.1359 23.9514 13.1418 23.9533 13.1478C23.9557 13.1553 23.9579 13.1628 23.9601 13.1704C24.0708 13.5504 24.056 13.956 23.9179 14.3269C23.7835 14.6877 23.5394 14.9971 23.2203 15.2117ZM17.9274 1.25995C17.928 1.2594 17.9286 1.25885 17.9293 1.2583L18.6 1.99996L17.9256 1.26161C17.9262 1.26106 17.9268 1.2605 17.9274 1.25995ZM19.2708 2.74162L19.2744 2.73831C19.2732 2.73942 19.272 2.74052 19.2708 2.74162Z" fill="#250116"/>
</g>
<defs>
<clipPath id="clip0_44_1434">
<rect width="24" height="24" fill="white"/>
</clipPath>
</defs>
</svg>
