<svg width="24" height="24" viewBox="0 0 24 24" fill="none" xmlns="http://www.w3.org/2000/svg">
<path fill-rule="evenodd" clip-rule="evenodd" d="M14.4619 2.49337C15.2507 2.16652 16.0962 1.99829 16.95 1.99829C17.8039 1.99829 18.6493 2.16652 19.4382 2.49337C20.2268 2.82015 20.9434 3.2991 21.547 3.90284C21.547 3.9029 21.5471 3.90295 21.5471 3.90301C21.5472 3.90307 21.5472 3.90312 21.5473 3.90318C22.151 4.50673 22.63 5.2233 22.9568 6.01197C23.2836 6.80078 23.4518 7.64627 23.4518 8.50012C23.4518 9.35397 23.2836 10.1994 22.9568 10.9883C22.6299 11.777 22.1509 12.4936 21.5471 13.0972L20.84 12.3901L21.547 13.0974C21.547 13.0973 21.5471 13.0973 21.5471 13.0972M12 4.2559L11.2929 4.96301L12 5.67012L12.7071 4.96301L12 4.2559ZM12 19.8159L11.2929 20.523L12 21.2301L12.7071 20.523L12 19.8159ZM14.4619 2.49337C13.6731 2.82018 12.9565 3.29918 12.3529 3.90301L14.4619 2.49337ZM12.3529 3.90301C12.3529 3.90307 12.3528 3.90312 12.3527 3.90318L12.3529 3.90301Z" fill="#250116"/>
</svg>
