<svg width="24" height="24" viewBox="0 0 24 24" fill="none" xmlns="http://www.w3.org/2000/svg">
<path fill-rule="evenodd" clip-rule="evenodd" d="M21.7071 1.29289C22.0977 1.68342 22.0977 2.31658 21.7071 2.70711L20.4142 4L22.7071 6.29289C23.0977 6.68342 23.0977 7.31658 22.7071 7.70711L19.2071 11.2071C18.8166 11.5976 18.1834 11.5976 17.7929 11.2071L15.5 8.91421L12.7536 11.6607C13.061 12.0765 13.3185 12.5285 13.5197 13.0075C13.8518 13.7978 14.0242 14.646 14.0271 15.5033C14.0299 16.3605 13.8632 17.2099 13.5365 18.0024C13.2097 18.795 12.7295 19.5151 12.1233 20.1213C11.5171 20.7274 10.797 21.2077 10.0045 21.5344C9.21192 21.8612 8.36256 22.0279 7.50531 22.025C6.64806 22.0221 5.79984 21.8497 5.0095 21.5177C4.21916 21.1857 3.5023 20.7006 2.9002 20.0904L2.8927 20.0828C1.70867 18.8568 1.05355 17.2149 1.06836 15.5106C1.08317 13.8063 1.76677 12.176 2.97192 10.9709C4.17707 9.76574 5.80736 9.08214 7.51163 9.06733C8.88446 9.0554 10.2168 9.47819 11.3239 10.2619L20.2929 1.29289C20.6834 0.902369 21.3166 0.902369 21.7071 1.29289ZM19 5.41421L16.9142 7.5L18.5 9.08579L20.5858 7L19 5.41421ZM12.0961 12.3181C11.7193 12.6949 11.1154 12.7088 10.7219 12.3559C10.713 12.347 10.7042 12.3382 10.6953 12.3293C10.6927 12.3268 10.6902 12.3243 10.6877 12.3218L11.3884 11.6116M4.32763 18.6895C3.51025 17.8412 3.05805 16.7061 3.06829 15.528C3.07854 14.3481 3.5518 13.2194 4.38613 12.3851C5.22047 11.5508 6.34913 11.0775 7.52901 11.0673C8.7089 11.057 9.84561 11.5106 10.6943 12.3303C10.7034 12.339 10.7126 12.3476 10.7219 12.3559C11.1283 12.7656 11.4522 13.2498 11.6758 13.7821C11.9057 14.3293 12.0251 14.9165 12.0271 15.51C12.0291 16.1035 11.9136 16.6915 11.6874 17.2402C11.4612 17.7889 11.1287 18.2874 10.7091 18.707C10.2894 19.1267 9.79089 19.4592 9.2422 19.6854C8.69351 19.9116 8.10549 20.027 7.51201 20.025C6.91853 20.023 6.3313 19.9037 5.78414 19.6738C5.23863 19.4446 4.74368 19.1101 4.32763 18.6895ZM4.32763 18.6895C4.32886 18.6907 4.33009 18.692 4.33132 18.6933L3.61203 19.388L4.32386 18.6856C4.32511 18.6869 4.32637 18.6882 4.32763 18.6895ZM12.0961 12.3181C12.0965 12.3178 12.0968 12.3174 12.0971 12.3171L12.0961 12.3181Z" fill="#250116"/>
</svg>
