<svg width="24" height="24" viewBox="0 0 24 24" fill="none" xmlns="http://www.w3.org/2000/svg">
<path fill-rule="evenodd" clip-rule="evenodd" d="M12.4974 4.00003C11.3351 3.99699 10.1884 4.26857 9.15088 4.79263L9.14709 4.79454L9.14709 4.79453C7.90143 5.41709 6.8537 6.37416 6.12125 7.55855C5.3888 8.74293 5.00057 10.1078 5.00003 11.5004L5.00002 11.5026C4.99699 12.665 5.26857 13.8116 5.79263 14.8492C5.91284 15.0872 5.93303 15.3633 5.84871 15.6163L4.58117 19.4189L8.3838 18.1513C8.63674 18.067 8.91289 18.0872 9.15088 18.2074C10.1884 18.7315 11.3351 19.0031 12.4974 19L12.4996 19C13.8922 18.9995 15.2571 18.6113 16.4415 17.8788C17.6259 17.1464 18.583 16.0986 19.2055 14.853L19.2074 14.8492C19.7315 13.8116 20.0031 12.665 20 11.5026L20 11.5V11.0285C19.8926 9.19978 19.1178 7.47373 17.8221 6.17799C16.5263 4.88226 14.8003 4.10746 12.9716 4.00003H12.5L12.4974 4.00003ZM12.5013 2.00003C11.0251 1.99639 9.56887 2.34122 8.25107 3.00647C6.67407 3.79507 5.34764 5.00699 4.42024 6.50661C3.49266 8.00652 3.00091 9.73502 3.00003 11.4986C2.99671 12.8332 3.27825 14.1516 3.82392 15.3661L2.05134 20.6838C1.93157 21.0431 2.02509 21.4393 2.29292 21.7071C2.56075 21.975 2.95692 22.0685 3.31625 21.9487L8.63398 20.1761C9.84847 20.7218 11.1668 21.0034 12.5015 21" fill="#250116"/>
</svg>
