<svg width="24" height="24" viewBox="0 0 24 24" fill="none" xmlns="http://www.w3.org/2000/svg">
<g clip-path="url(#clip0_44_1490)">
<path fill-rule="evenodd" clip-rule="evenodd" d="M14.0561 0.889675C14.1171 0.340767 14.6115 -0.054777 15.1604 0.00620235C17.4152 0.256687 19.5177 1.2664 21.1229 2.86954C22.7281 4.47269 23.7404 6.57399 23.9937 8.82842C24.0554 9.37725 23.6605 9.87216 23.1117 9.93383C22.5628 9.9955 22.0679 9.60058 22.0062 9.05175C21.8036 7.2482 20.9937 5.56717 19.7096 4.28465C18.4254 3.00213 16.7434 2.19436 14.9396 1.99397C14.3907 1.93299 13.9951 1.43858 14.0561 0.889675ZM7.78172 3.24181C7.59773 3.08358 7.36249 2.99765 7.11984 3.00004L7.10999 3.00014V3.00009H4.11052C3.97183 3.00028 3.8347 3.02931 3.70783 3.08535C3.58084 3.14144 3.46692 3.22336 3.37332 3.3259C3.27972 3.42843 3.2085 3.54933 3.16419 3.6809C3.12057 3.81039 3.10397 3.94741 3.11536 4.08352C3.42811 7.01508 4.4263 9.83196 6.02927 12.3064L6.03404 12.3137L6.03401 12.3138C7.49061 14.606 9.43405 16.5495 11.7263 18.0061L11.7341 18.011L11.7341 18.0111C14.1969 19.6082 16.9997 20.6061 19.9176 20.9248C20.0538 20.9361 20.1909 20.9193 20.3204 20.8755C20.4523 20.8309 20.5734 20.7592 20.676 20.6651C20.7787 20.5709 20.8605 20.4564 20.9163 20.3288C20.972 20.2012 21.0006 20.0634 21 19.9241L21 19.9201V16.9201C21 16.9153 21 16.9106 21.0001 16.9058C21.0001 16.9023 21.0002 16.8988 21.0003 16.8953C21.0064 16.6501 20.9221 16.4112 20.7636 16.224C20.6058 16.0378 20.3854 15.9158 20.1439 15.8808C19.1109 15.7441 18.0966 15.4913 17.1204 15.127L17.1181 15.1261C16.9392 15.0589 16.7447 15.0443 16.5577 15.0842C16.3715 15.1239 16.2005 15.216 16.0648 15.3495L14.7971 16.6172C14.4788 16.9355 13.987 17.0019 13.5957 16.7794C10.9357 15.2669 8.73323 13.0644 7.2207 10.4044C6.99819 10.0131 7.06457 9.52129 7.38289 9.20298L8.65053 7.93534C8.7841 7.79965 8.87617 7.62864 8.9159 7.44239C8.95577 7.25541 8.94121 7.06091 8.87394 6.88195L8.8731 6.87969C8.50882 5.90348 8.25596 4.88927 8.1193 3.85632C8.08463 3.6175 7.96475 3.39922 7.78172 3.24181ZM7.10557 1.00009C7.83161 0.994252 8.53521 1.25193 9.0858 1.72544C9.63775 2.20012 9.99827 2.85931 10.1002 3.58014L10.1015 3.58933L10.1014 3.58933C10.2181 4.47426 10.4345 5.34315 10.7465 6.17944C10.9479 6.71599 10.9915 7.29902 10.8719 7.85955C10.7523 8.4205 10.4743 8.93539 10.071 9.34323L10.0671 9.34721L10.0671 9.34719L9.35001 10.0643C10.5259 11.9089 12.0911 13.4742 13.9358 14.6501L14.6529 13.933L14.6569 13.929C15.0647 13.5257 15.5796 13.2478 16.1405 13.1282C16.7011 13.0086 17.2841 13.0522 17.8206 13.2536C18.6569 13.5656 19.5258 13.782 20.4108 13.8987L20.4197 13.8999L20.4197 13.8999C21.1483 14.0027 21.8138 14.3697 22.2895 14.9311C22.7622 15.4891 23.0148 16.2004 23 16.9313V19.9181M14.0685 4.80859C14.1743 4.26653 14.6994 3.91284 15.2415 4.01859C16.4136 4.24727 17.4908 4.8205 18.3352 5.66492C19.1796 6.50933 19.7528 7.58651 19.9815 8.75859C20.0872 9.30066 19.7336 9.82582 19.1915 9.93158C18.6494 10.0373 18.1243 9.68365 18.0185 9.14158C17.866 8.36019 17.4839 7.64207 16.921 7.07913C16.358 6.51619 15.6399 6.13403 14.8585 5.98158C14.3164 5.87582 13.9627 5.35066 14.0685 4.80859Z" fill="#250116"/>
</g>
<defs>
<clipPath id="clip0_44_1490">
<rect width="24" height="24" fill="white"/>
</clipPath>
</defs>
</svg>
