<svg width="24" height="24" viewBox="0 0 24 24" fill="none" xmlns="http://www.w3.org/2000/svg">
<g clip-path="url(#clip0_44_1475)">
<path fill-rule="evenodd" clip-rule="evenodd" d="M7.78172 3.24181C7.59773 3.08359 7.36249 2.99766 7.11984 3.00005L7.10999 3.00015L4.11061 3.0001C3.97189 3.00027 3.83473 3.02931 3.70783 3.08536C3.58084 3.14145 3.46692 3.22337 3.37332 3.32591C3.27972 3.42844 3.2085 3.54934 3.16419 3.68091C3.12068 3.81007 3.10405 3.94673 3.11528 4.08251C3.43398 7.00043 4.43187 9.80316 6.02901 12.266C6.32951 12.7294 6.19747 13.3486 5.7341 13.6491C5.27072 13.9496 4.65147 13.8176 4.35097 13.3542C2.58173 10.626 1.4771 7.52078 1.12585 4.28812L1.12405 4.2701C1.08657 3.8553 1.13586 3.43724 1.2688 3.04253C1.40174 2.64783 1.61541 2.28513 1.8962 1.97753C2.17699 1.66993 2.51876 1.42416 2.89974 1.25588C3.28072 1.0876 3.69256 1.00049 4.10905 1.0001L7.10557 1.0001C7.83161 0.99426 8.53521 1.25194 9.0858 1.72544C9.63775 2.20013 9.99827 2.85932 10.1002 3.58015L10.1015 3.58933C10.2182 4.47426 10.4345 5.34316 10.7465 6.17945C10.9479 6.716 10.9915 7.29903 10.8719 7.85956C10.7523 8.42051 10.4743 8.9354 10.071 9.34324L10.0671 9.34722L8.7971 10.6172C8.40658 11.0077 7.77341 11.0077 7.38289 10.6172C6.99236 10.2267 6.99236 9.59351 7.38289 9.20299L8.65053 7.93535C8.7841 7.79966 8.87617 7.62864 8.9159 7.4424C8.95577 7.25541 8.94121 7.06092 8.87394 6.88196L8.8731 6.8797C8.50882 5.90349 8.25596 4.88928 8.1193 3.85633C8.08463 3.61751 7.96475 3.39923 7.78172 3.24181ZM10.6784 12.3101C10.9444 12.3097 11.1995 12.4152 11.3874 12.6033C12.1603 13.3769 13.015 14.0631 13.9358 14.6501L14.6529 13.933L14.6569 13.929C15.0647 13.5258 15.5796 13.2478 16.1405 13.1282C16.7011 13.0086 17.2841 13.0522 17.8206 13.2536C18.6569 13.5656 19.5258 13.782 20.4108 13.8987L20.42 13.8999C21.1408 14.0018 21.8 14.3623 22.2746 14.9143C22.7482 15.4649 23.0059 16.1685 23 16.8946V19.8881M10.6499 19.6617C9.38467 18.8579 8.21181 17.9173 7.15249 16.8568C6.76332 16.4672 6.76238 15.8363 7.15039 15.4455L9.97039 12.6055C10.1578 12.4168 10.4125 12.3105 10.6784 12.3101M10.7031 14.7061L9.2903 16.1289C10.0492 16.8106 10.8639 17.4285 11.726 17.9759L11.7341 17.981C14.197 19.5782 16.9997 20.5761 19.9176 20.8948C20.0538 20.9061 20.1909 20.8893 20.3204 20.8455C20.4523 20.8009 20.5734 20.7292 20.676 20.6351C20.7787 20.5409 20.8605 20.4264 20.9163 20.2988C20.972 20.1712 21.0006 20.0334 21 19.8942L21 19.8901V16.8803C21.0024 16.6376 20.9165 16.4024 20.7583 16.2184C20.6009 16.0353 20.3826 15.9155 20.1438 15.8808C19.1108 15.7441 18.0966 15.4913 17.1204 15.127L17.1181 15.1261C16.9392 15.0589 16.7447 15.0443 16.5577 15.0842C16.3715 15.1239 16.2005 15.216 16.0648 15.3495L14.7971 16.6172C14.4788 16.9355 13.987 17.0019 13.5957 16.7794C12.5608 16.1909 11.5914 15.4959 10.7031 14.7061Z" fill="#250116"/>
<path fill-rule="evenodd" clip-rule="evenodd" d="M23.7071 0.292893C24.0976 0.683417 24.0976 1.31658 23.7071 1.70711L1.70711 23.7071C1.31658 24.0976 0.683417 24.0976 0.292893 23.7071C-0.0976311 23.3166 -0.0976311 22.6834 0.292893 22.2929L22.2929 0.292893C22.6834 -0.0976311 23.3166 -0.0976311 23.7071 0.292893Z" fill="#250116"/>
</g>
<defs>
<clipPath id="clip0_44_1475">
<rect width="24" height="24" fill="white"/>
</clipPath>
</defs>
</svg>
