<svg width="24" height="24" viewBox="0 0 24 24" fill="none" xmlns="http://www.w3.org/2000/svg">
<path fill-rule="evenodd" clip-rule="evenodd" d="M11 20C11 19.4477 11.4477 19 12 19H12.01C12.5623 19 13.01 19.4477 13.01 20C13.01 20.5523 12.5623 21 12.01 21H12C11.4477 21 11 20.5523 11 20Z" fill="#250116"/>
<path fill-rule="evenodd" clip-rule="evenodd" d="M12.005 16.0012C10.9672 16.0012 9.95517 16.3241 9.10917 16.9252C8.65894 17.245 8.03466 17.1394 7.71479 16.6891C7.39493 16.2389 7.50061 15.6146 7.95084 15.2948C9.13524 14.4533 10.5521 14.0012 12.005 14.0012C13.4579 14.0012 14.8748 14.4533 16.0592 15.2948C16.5094 15.6146 16.6151 16.2389 16.2952 16.6891C15.9753 17.1394 15.3511 17.245 14.9008 16.9252C14.0548 16.3241 13.0428 16.0012 12.005 16.0012Z" fill="#250116"/>
<path fill-rule="evenodd" clip-rule="evenodd" d="M12.04 11.0022C9.70146 11.0022 7.43688 11.8218 5.64 13.3184C5.21564 13.6719 4.58509 13.6144 4.23163 13.1901C3.87817 12.7657 3.93564 12.1352 4.36 11.7817C6.51625 9.9857 9.23375 9.0022 12.04 9.0022C14.8463 9.0022 17.5638 9.9857 19.72 11.7817C20.1444 12.1352 20.2018 12.7657 19.8484 13.1901C19.4949 13.6144 18.8644 13.6719 18.44 13.3184C16.6431 11.8218 14.3785 11.0022 12.04 11.0022Z" fill="#250116"/>
<path fill-rule="evenodd" clip-rule="evenodd" d="M12 6.00269C8.34778 6.00269 4.82102 7.33517 2.08125 9.7502C1.66695 10.1154 1.03504 10.0756 0.669837 9.66129C0.304639 9.24698 0.344448 8.61507 0.758753 8.24987C3.86383 5.51283 7.86082 4.00269 12 4.00269C16.1392 4.00269 20.1362 5.51283 23.2413 8.24987C23.6556 8.61507 23.6954 9.24698 23.3302 9.66129C22.965 10.0756 22.3331 10.1154 21.9188 9.7502C19.179 7.33517 15.6522 6.00269 12 6.00269Z" fill="#250116"/>
</svg>
