<svg width="24" height="24" viewBox="0 0 24 24" fill="none" xmlns="http://www.w3.org/2000/svg">
<g clip-path="url(#clip0_44_1026)">
<path fill-rule="evenodd" clip-rule="evenodd" d="M0.292893 0.292893C0.683417 -0.0976311 1.31658 -0.0976311 1.70711 0.292893L23.7071 22.2929C24.0976 22.6834 24.0976 23.3166 23.7071 23.7071C23.3166 24.0976 22.6834 24.0976 22.2929 23.7071L0.292893 1.70711C-0.0976311 1.31658 -0.0976311 0.683417 0.292893 0.292893Z" fill="#250116"/>
<path fill-rule="evenodd" clip-rule="evenodd" d="M11 20C11 19.4477 11.4477 19 12 19H12.01C12.5623 19 13.01 19.4477 13.01 20C13.01 20.5523 12.5623 21 12.01 21H12C11.4477 21 11 20.5523 11 20Z" fill="#250116"/>
<path fill-rule="evenodd" clip-rule="evenodd" d="M12.005 16.0012C10.9672 16.0012 9.95517 16.3241 9.10917 16.9252C8.65894 17.245 8.03466 17.1394 7.71479 16.6891C7.39493 16.2389 7.50061 15.6146 7.95084 15.2948C9.13524 14.4533 10.5521 14.0012 12.005 14.0012C13.4579 14.0012 14.8748 14.4533 16.0592 15.2948C16.5094 15.6146 16.6151 16.2389 16.2952 16.6891C15.9753 17.1394 15.3511 17.245 14.9008 16.9252C14.0548 16.3241 13.0428 16.0012 12.005 16.0012Z" fill="#250116"/>
<path fill-rule="evenodd" clip-rule="evenodd" d="M15.8213 10.6214C16.0635 10.1251 16.6623 9.91913 17.1586 10.1614C18.0526 10.5976 18.8885 11.1439 19.647 11.7876C20.0681 12.1449 20.1198 12.7759 19.7625 13.197C19.4052 13.6182 18.7741 13.6699 18.353 13.3125C17.7216 12.7767 17.0256 12.3219 16.2814 11.9587C15.7851 11.7165 15.5791 11.1178 15.8213 10.6214Z" fill="#250116"/>
<path fill-rule="evenodd" clip-rule="evenodd" d="M11.1556 9.99121C11.2489 10.5356 10.8832 11.0525 10.3389 11.1457C8.60878 11.4421 6.98804 12.1913 5.64143 13.3172C5.21773 13.6715 4.58707 13.6152 4.23282 13.1915C3.87856 12.7678 3.93486 12.1372 4.35856 11.7829C5.97611 10.4305 7.92296 9.53047 10.0011 9.17443C10.5455 9.08118 11.0624 9.44686 11.1556 9.99121Z" fill="#250116"/>
<path fill-rule="evenodd" clip-rule="evenodd" d="M7.05027 5.75302C7.25288 6.2668 7.00064 6.84755 6.48687 7.05017C4.87282 7.6867 3.38226 8.60007 2.08228 9.74915C1.66848 10.1149 1.03651 10.076 0.670741 9.66218C0.304972 9.24838 0.34391 8.61641 0.757711 8.25064C2.23206 6.94743 3.92257 5.91154 5.75312 5.18962C6.2669 4.98701 6.84765 5.23925 7.05027 5.75302Z" fill="#250116"/>
<path fill-rule="evenodd" clip-rule="evenodd" d="M16.7313 6.76565C14.8194 6.12941 12.7988 5.88491 10.7903 6.04675C10.2398 6.09111 9.75759 5.6808 9.71323 5.1303C9.66887 4.5798 10.0792 4.09757 10.6297 4.05321C12.906 3.86979 15.1959 4.14689 17.3628 4.86796C19.5297 5.58903 21.529 6.7393 23.2416 8.25009C23.6557 8.61546 23.6953 9.24739 23.3299 9.66154C22.9645 10.0757 22.3326 10.1152 21.9184 9.74988C20.4074 8.41682 18.6432 7.40189 16.7313 6.76565Z" fill="#250116"/>
</g>
<defs>
<clipPath id="clip0_44_1026">
<rect width="24" height="24" fill="white"/>
</clipPath>
</defs>
</svg>
