<svg width="24" height="24" viewBox="0 0 24 24" fill="none" xmlns="http://www.w3.org/2000/svg">
<path d="M16 7C16.3956 7 16.7822 6.8827 17.1111 6.66294C17.44 6.44318 17.6964 6.13082 17.8478 5.76537C17.9991 5.39992 18.0387 4.99778 17.9616 4.60982C17.8844 4.22186 17.6939 3.86549 17.4142 3.58579C17.1345 3.30608 16.7781 3.1156 16.3902 3.03843C16.0022 2.96126 15.6001 3.00087 15.2346 3.15224C14.8692 3.30362 14.5568 3.55996 14.3371 3.88886C14.1173 4.21776 14 4.60444 14 5C14 5.53043 14.2107 6.03914 14.5858 6.41421C14.9609 6.78929 15.4696 7 16 7ZM12.7 18.4C12.2992 18.9248 11.7747 19.3422 11.1733 19.615C10.5719 19.8878 9.9123 20.0074 9.25341 19.9632C8.59453 19.919 7.95683 19.7124 7.39724 19.3618C6.83765 19.0111 6.37357 18.5274 6.04642 17.9538C5.71927 17.3802 5.53923 16.7345 5.52236 16.0743C5.5055 15.4142 5.65234 14.7601 5.94977 14.1705C6.24721 13.5809 6.68599 13.0742 7.22695 12.6954C7.76791 12.3167 8.39422 12.0778 9.04999 12C9.31521 11.9708 9.55797 11.8375 9.72488 11.6293C9.89179 11.4212 9.96917 11.1552 9.93999 10.89C9.91082 10.6248 9.77748 10.382 9.56932 10.2151C9.36115 10.0482 9.09521 9.97083 8.82999 10C7.23869 10.0888 5.74787 10.8062 4.68547 11.9942C3.62308 13.1823 3.07615 14.7437 3.16499 16.335C3.25384 17.9263 3.97119 19.4171 5.15923 20.4795C6.34728 21.5419 7.90869 22.0888 9.49999 22C10.4315 22 11.3501 21.7831 12.1833 21.3666C13.0164 20.95 13.7411 20.3452 14.3 19.6C14.4591 19.3878 14.5274 19.1211 14.4899 18.8586C14.4524 18.596 14.3122 18.3591 14.1 18.2C13.8878 18.0409 13.6211 17.9725 13.3586 18.0101C13.096 18.0476 12.8591 18.1878 12.7 18.4ZM19.5 20H18.5V15C18.5 14.7348 18.3946 14.4804 18.2071 14.2929C18.0196 14.1054 17.7652 14 17.5 14H12.93L14.62 9.34V9.03C14.6249 8.9701 14.6249 8.9099 14.62 8.85C14.6257 8.7868 14.6257 8.72321 14.62 8.66C14.5939 8.60134 14.5639 8.54454 14.53 8.49C14.5 8.43545 14.463 8.38503 14.42 8.34C14.3771 8.28913 14.3265 8.24527 14.27 8.21C14.27 8.21 14.27 8.15 14.19 8.13L9.70999 5.55H9.58999C9.52868 5.52408 9.46507 5.50399 9.39999 5.49H8.99999C8.93052 5.50436 8.86326 5.5279 8.79999 5.56H8.68999L5.99999 7.13C5.80881 7.23831 5.65862 7.40657 5.57264 7.60877C5.48666 7.81098 5.46967 8.03588 5.5243 8.24871C5.57893 8.46154 5.70214 8.65045 5.87488 8.78625C6.04762 8.92204 6.26028 8.99717 6.47999 9C6.66193 9.00479 6.84172 8.95985 6.99999 8.87L9.22999 7.57L12.47 9.45L10.58 14.66C10.5751 14.7132 10.5751 14.7668 10.58 14.82C10.5706 14.8796 10.5706 14.9404 10.58 15C10.5984 15.1283 10.6251 15.2552 10.66 15.38L10.77 15.53C10.7972 15.5892 10.8344 15.6434 10.88 15.69C10.9227 15.7257 10.9698 15.7559 11.02 15.78C11.0795 15.8258 11.1431 15.8659 11.21 15.9C11.319 15.9396 11.434 15.9599 11.55 15.96H16.55V20.96C16.55 21.2252 16.6554 21.4796 16.8429 21.6671C17.0304 21.8546 17.2848 21.96 17.55 21.96H19.55C19.8152 21.96 20.0696 21.8546 20.2571 21.6671C20.4446 21.4796 20.55 21.2252 20.55 20.96C20.55 20.6948 20.4446 20.4404 20.2571 20.2529C20.0696 20.0654 19.8152 19.96 19.55 19.96L19.5 20Z" fill="#27046A"/>
</svg>
