<svg width="24" height="24" viewBox="0 0 24 24" fill="none" xmlns="http://www.w3.org/2000/svg">
<path d="M8.66999 4.22998C8.83187 4.27253 9.00184 4.27378 9.16433 4.23359C9.32681 4.19341 9.47661 4.11308 9.59999 3.99998H14.7L13.43 8.73998C13.3895 8.8883 13.3838 9.04395 13.4133 9.19484C13.4428 9.34573 13.5067 9.48779 13.6 9.60998C13.6932 9.73099 13.8128 9.82906 13.9497 9.89666C14.0867 9.96427 14.2373 9.99961 14.39 9.99998H18L16.87 11.24C16.6927 11.4364 16.6006 11.6952 16.6137 11.9594C16.6268 12.2237 16.7442 12.472 16.94 12.65C17.1234 12.8167 17.3622 12.9093 17.61 12.91C17.7495 12.9096 17.8875 12.8801 18.0149 12.8233C18.1424 12.7664 18.2565 12.6836 18.35 12.58L21 9.66998C21.1313 9.52465 21.217 9.34397 21.2466 9.15036C21.2761 8.95675 21.2481 8.75873 21.1661 8.58087C21.0841 8.40301 20.9517 8.25315 20.7853 8.14989C20.6188 8.04662 20.4258 7.99449 20.23 7.99998H15.69L17 3.25998C17.0391 3.1109 17.0431 2.95481 17.0119 2.80389C16.9807 2.65297 16.915 2.51132 16.82 2.38998C16.7238 2.26488 16.5993 2.16432 16.4568 2.09654C16.3143 2.02876 16.1578 1.99567 16 1.99998H8.99999C8.77423 1.99224 8.5525 2.06118 8.37092 2.19555C8.18933 2.32992 8.05859 2.52181 7.99999 2.73998V2.99998C7.92835 3.2519 7.9584 3.52187 8.08369 3.75187C8.20897 3.98187 8.41949 4.15354 8.66999 4.22998ZM21.67 20.29L3.66999 2.28998C3.47538 2.1481 3.2361 2.08123 2.99613 2.10164C2.75616 2.12206 2.53162 2.2284 2.36377 2.40111C2.19592 2.57382 2.09604 2.80131 2.08249 3.04177C2.06893 3.28222 2.14262 3.51949 2.28999 3.70998L6.60999 7.99998L5.34999 12.74C5.31093 12.8891 5.30685 13.0451 5.33807 13.1961C5.3693 13.347 5.43498 13.4886 5.52999 13.61C5.62315 13.731 5.74279 13.8291 5.87973 13.8967C6.01667 13.9643 6.16728 13.9996 6.31999 14H10.16L8.34999 20.74C8.29137 20.9574 8.30786 21.1883 8.39679 21.3952C8.48572 21.6021 8.64189 21.7729 8.83999 21.88C8.98742 21.9595 9.15247 22.0008 9.31999 22C9.45954 21.9996 9.59747 21.9701 9.72491 21.9133C9.85236 21.8564 9.9665 21.7736 10.06 21.67L14.91 16.33L20.29 21.71C20.383 21.8037 20.4936 21.8781 20.6154 21.9289C20.7373 21.9796 20.868 22.0058 21 22.0058C21.132 22.0058 21.2627 21.9796 21.3846 21.9289C21.5064 21.8781 21.617 21.8037 21.71 21.71C21.8037 21.617 21.8781 21.5064 21.9289 21.3846C21.9797 21.2627 22.0058 21.132 22.0058 21C22.0058 20.868 21.9797 20.7373 21.9289 20.6154C21.8781 20.4935 21.8037 20.3829 21.71 20.29H21.67ZM7.61999 12L8.24999 9.65998L10.59 12H7.61999ZM11.35 17.28L12.35 13.72L13.55 14.91L11.35 17.28Z" fill="#27046A"/>
</svg>
