<svg width="24" height="24" viewBox="0 0 24 24" fill="none" xmlns="http://www.w3.org/2000/svg">
<path d="M19.87 8.60001C19.7955 8.42872 19.6745 8.28173 19.5207 8.17569C19.367 8.06964 19.1866 8.00878 19 8.00001H14.42L15.69 3.26001C15.7304 3.11168 15.7362 2.95603 15.7067 2.80514C15.6772 2.65425 15.6133 2.5122 15.52 2.39001C15.4268 2.26899 15.3072 2.17092 15.1703 2.10332C15.0333 2.03571 14.8827 2.00037 14.73 2.00001H7.73C7.50424 1.99227 7.28251 2.06121 7.10092 2.19558C6.91934 2.32995 6.7886 2.52184 6.73 2.74001L4.05 12.74C4.00955 12.8883 4.00385 13.044 4.03333 13.1949C4.06282 13.3458 4.12669 13.4878 4.22 13.61C4.31418 13.7324 4.43543 13.8312 4.57422 13.8989C4.71302 13.9666 4.86559 14.0012 5.02 14H8.89L7.08 20.74C7.0207 20.9573 7.03652 21.1883 7.1249 21.3956C7.21329 21.6028 7.36905 21.7741 7.56696 21.8817C7.76487 21.9894 7.99332 22.027 8.2153 21.9886C8.43728 21.9502 8.63979 21.8379 8.79 21.67L19.69 9.67001C19.8198 9.52789 19.9058 9.35134 19.9377 9.16154C19.9697 8.97175 19.9461 8.77677 19.87 8.60001ZM10.08 17.28L11.15 13.28C11.1904 13.1317 11.1962 12.976 11.1667 12.8251C11.1372 12.6743 11.0733 12.5322 10.98 12.41C10.8868 12.289 10.7672 12.1909 10.6303 12.1233C10.4933 12.0557 10.3427 12.0204 10.19 12.02H6.35L8.49 4.00001H13.42L12.15 8.74001C12.1092 8.89106 12.1045 9.04958 12.1361 9.20281C12.1677 9.35604 12.2349 9.49971 12.3322 9.62226C12.4294 9.74482 12.5541 9.84284 12.6961 9.90845C12.8382 9.97405 12.9936 10.0054 13.15 10H16.72L10.08 17.28Z" fill="#27046A"/>
</svg>
