<svg width="24" height="24" viewBox="0 0 24 24" fill="none" xmlns="http://www.w3.org/2000/svg">
<path d="M22 11C22.0028 10.2952 21.8193 9.60209 21.4681 8.99098C21.1169 8.37987 20.6104 7.87241 20 7.51999C20.0151 7.34699 20.0151 7.173 20 6.99999C20 6.20434 19.6839 5.44128 19.1213 4.87867C18.5587 4.31606 17.7956 3.99999 17 3.99999H16.82C16.6535 3.53831 16.3762 3.12453 16.0125 2.79494C15.6489 2.46535 15.2099 2.23003 14.7341 2.1096C14.2583 1.98917 13.7602 1.98731 13.2835 2.10419C12.8068 2.22108 12.3661 2.45313 12 2.77999C11.6339 2.45313 11.1932 2.22108 10.7165 2.10419C10.2398 1.98731 9.74171 1.98917 9.26592 2.1096C8.79012 2.23003 8.35113 2.46535 7.98746 2.79494C7.62378 3.12453 7.34653 3.53831 7.18 3.99999H7C6.20435 3.99999 5.44129 4.31606 4.87868 4.87867C4.31607 5.44128 4 6.20434 4 6.99999C3.98495 7.173 3.98495 7.34699 4 7.51999C3.43246 7.84079 2.95193 8.29544 2.60024 8.84437C2.24855 9.3933 2.03636 10.0199 1.98214 10.6695C1.92792 11.3192 2.03331 11.9723 2.28914 12.5719C2.54497 13.1715 2.94349 13.6996 3.45 14.11C3.12227 14.7213 2.95911 15.4072 2.97654 16.1006C2.99398 16.794 3.19139 17.4709 3.54942 18.0649C3.90745 18.6589 4.41379 19.1496 5.01873 19.4889C5.62367 19.8282 6.30643 20.0043 7 20H7.18C7.34653 20.4617 7.62378 20.8755 7.98746 21.205C8.35113 21.5346 8.79012 21.77 9.26592 21.8904C9.74171 22.0108 10.2398 22.0127 10.7165 21.8958C11.1932 21.7789 11.6339 21.5469 12 21.22C12.3661 21.5469 12.8068 21.7789 13.2835 21.8958C13.7602 22.0127 14.2583 22.0108 14.7341 21.8904C15.2099 21.77 15.6489 21.5346 16.0125 21.205C16.3762 20.8755 16.6535 20.4617 16.82 20H17C17.6893 19.9956 18.3658 19.8132 18.9639 19.4704C19.562 19.1276 20.0613 18.6361 20.4134 18.0434C20.7656 17.4508 20.9586 16.7773 20.9738 16.0881C20.9889 15.3989 20.8257 14.7175 20.5 14.11C20.9664 13.7366 21.3433 13.2634 21.6029 12.7252C21.8624 12.187 21.9981 11.5975 22 11ZM11 8.54999C10.7822 8.42542 10.5548 8.31842 10.32 8.22999C10.068 8.14512 9.79269 8.16382 9.55452 8.28197C9.31635 8.40012 9.13487 8.60804 9.05 8.85999C8.96513 9.11195 8.98383 9.3873 9.10197 9.62547C9.22012 9.86364 9.42804 10.0451 9.68 10.13C10.0649 10.2692 10.3979 10.5231 10.634 10.8575C10.87 11.1919 10.9978 11.5907 11 12V13.55C10.7822 13.4254 10.5548 13.3184 10.32 13.23C10.068 13.1451 9.79269 13.1638 9.55452 13.282C9.31635 13.4001 9.13487 13.608 9.05 13.86C8.96513 14.1119 8.98383 14.3873 9.10197 14.6255C9.22012 14.8636 9.42804 15.0451 9.68 15.13C10.0649 15.2692 10.3979 15.5231 10.634 15.8575C10.87 16.1919 10.9978 16.5907 11 17V19C11 19.2652 10.8946 19.5196 10.7071 19.7071C10.5196 19.8946 10.2652 20 10 20C9.80653 19.9987 9.61759 19.9414 9.45607 19.8349C9.29454 19.7284 9.16738 19.5773 9.09 19.4C9.25768 19.3016 9.41809 19.1913 9.57 19.07C9.67112 18.9859 9.75469 18.8828 9.81595 18.7665C9.87721 18.6501 9.91495 18.5228 9.92702 18.3919C9.93909 18.261 9.92526 18.129 9.8863 18.0034C9.84735 17.8778 9.78405 17.7611 9.7 17.66C9.61595 17.5589 9.51281 17.4753 9.39647 17.414C9.28013 17.3528 9.15285 17.315 9.02192 17.303C8.89099 17.2909 8.75897 17.3047 8.63338 17.3437C8.5078 17.3826 8.39112 17.4459 8.29 17.53C7.92893 17.834 7.47199 18.0005 7 18C6.46957 18 5.96086 17.7893 5.58579 17.4142C5.21071 17.0391 5 16.5304 5 16C5.00478 15.6236 5.1157 15.2562 5.32 14.94C5.54442 14.9802 5.772 15.0003 6 15C6.26522 15 6.51957 14.8946 6.70711 14.7071C6.89464 14.5196 7 14.2652 7 14C7 13.7348 6.89464 13.4804 6.70711 13.2929C6.51957 13.1054 6.26522 13 6 13C5.76379 13.0014 5.52952 12.9572 5.31 12.87C4.95034 12.7403 4.6354 12.5102 4.40249 12.207C4.16958 11.9038 4.02845 11.5402 3.99583 11.1593C3.96321 10.7783 4.04046 10.396 4.21843 10.0576C4.3964 9.71925 4.66763 9.43897 5 9.24999C5.1421 9.38073 5.2961 9.49791 5.46 9.59999C5.69074 9.7326 5.9647 9.76812 6.22163 9.69873C6.47855 9.62934 6.69739 9.46073 6.83 9.22999C6.96261 8.99926 6.99812 8.72529 6.92874 8.46836C6.85935 8.21144 6.69074 7.9926 6.46 7.85999C6.31923 7.78234 6.20182 7.66839 6.12 7.52999C6.02755 7.36944 5.98572 7.18471 6 6.99999C6 6.73478 6.10536 6.48042 6.29289 6.29289C6.48043 6.10535 6.73478 5.99999 7 5.99999C7.06966 5.99028 7.14034 5.99028 7.21 5.99999C7.26294 6.16066 7.32641 6.31767 7.4 6.46999C7.46533 6.58458 7.55268 6.68511 7.65703 6.7658C7.76138 6.84648 7.88066 6.90572 8.008 6.94012C8.13534 6.97451 8.26822 6.98337 8.399 6.96618C8.52978 6.949 8.65587 6.90611 8.77 6.83999C8.99171 6.7066 9.15308 6.49247 9.22021 6.24259C9.28734 5.99271 9.25501 5.72653 9.13 5.49999C9.04609 5.3466 9.00143 5.17483 9 4.99999C9 4.73478 9.10536 4.48042 9.29289 4.29289C9.48043 4.10535 9.73478 3.99999 10 3.99999C10.2652 3.99999 10.5196 4.10535 10.7071 4.29289C10.8946 4.48042 11 4.73478 11 4.99999V8.54999ZM18.69 12.87C18.4705 12.9572 18.2362 13.0014 18 13C17.7348 13 17.4804 13.1054 17.2929 13.2929C17.1054 13.4804 17 13.7348 17 14C17 14.2652 17.1054 14.5196 17.2929 14.7071C17.4804 14.8946 17.7348 15 18 15C18.228 15.0003 18.4556 14.9802 18.68 14.94C18.8843 15.2562 18.9952 15.6236 19 16C19 16.5304 18.7893 17.0391 18.4142 17.4142C18.0391 17.7893 17.5304 18 17 18C16.528 18.0005 16.0711 17.834 15.71 17.53C15.5058 17.3603 15.2425 17.2786 14.9781 17.303C14.7136 17.3274 14.4697 17.4558 14.3 17.66C14.1303 17.8642 14.0486 18.1275 14.073 18.3919C14.0974 18.6563 14.2258 18.9003 14.43 19.07C14.5819 19.1913 14.7423 19.3016 14.91 19.4C14.8326 19.5773 14.7055 19.7284 14.5439 19.8349C14.3824 19.9414 14.1935 19.9987 14 20C13.7348 20 13.4804 19.8946 13.2929 19.7071C13.1054 19.5196 13 19.2652 13 19V17C13.0022 16.5907 13.13 16.1919 13.366 15.8575C13.6021 15.5231 13.9351 15.2692 14.32 15.13C14.572 15.0451 14.7799 14.8636 14.898 14.6255C15.0162 14.3873 15.0349 14.1119 14.95 13.86C14.8651 13.608 14.6836 13.4001 14.4455 13.282C14.2073 13.1638 13.932 13.1451 13.68 13.23C13.4452 13.3184 13.2178 13.4254 13 13.55V12C13.0022 11.5907 13.13 11.1919 13.366 10.8575C13.6021 10.5231 13.9351 10.2692 14.32 10.13C14.572 10.0451 14.7799 9.86364 14.898 9.62547C15.0162 9.3873 15.0349 9.11195 14.95 8.85999C14.8651 8.60804 14.6836 8.40012 14.4455 8.28197C14.2073 8.16382 13.932 8.14512 13.68 8.22999C13.4452 8.31842 13.2178 8.42542 13 8.54999V4.99999C13 4.73478 13.1054 4.48042 13.2929 4.29289C13.4804 4.10535 13.7348 3.99999 14 3.99999C14.2652 3.99999 14.5196 4.10535 14.7071 4.29289C14.8946 4.48042 15 4.73478 15 4.99999C14.9986 5.17483 14.9539 5.3466 14.87 5.49999C14.8035 5.61353 14.76 5.73908 14.7421 5.86945C14.7242 5.99982 14.7322 6.13245 14.7656 6.25972C14.7991 6.387 14.8573 6.50642 14.937 6.61114C15.0167 6.71587 15.1162 6.80383 15.23 6.86999C15.3441 6.93611 15.4702 6.979 15.601 6.99618C15.7318 7.01337 15.8647 7.00451 15.992 6.97012C16.1193 6.93572 16.2386 6.87648 16.343 6.7958C16.4473 6.71511 16.5347 6.61458 16.6 6.49999C16.6748 6.33793 16.7383 6.17086 16.79 5.99999C16.8597 5.99028 16.9303 5.99028 17 5.99999C17.2652 5.99999 17.5196 6.10535 17.7071 6.29289C17.8946 6.48042 18 6.73478 18 6.99999C17.9985 7.19603 17.9394 7.38729 17.83 7.54999C17.7482 7.67976 17.6346 7.78647 17.5 7.85999C17.2693 7.9926 17.1007 8.21144 17.0313 8.46836C16.9619 8.72529 16.9974 8.99926 17.13 9.22999C17.2626 9.46073 17.4814 9.62934 17.7384 9.69873C17.9953 9.76812 18.2693 9.7326 18.5 9.59999C18.6795 9.5029 18.8473 9.38546 19 9.24999C19.3335 9.43563 19.6069 9.71282 19.788 10.0488C19.969 10.3848 20.0501 10.7656 20.0217 11.1463C19.9934 11.5269 19.8566 11.8915 19.6278 12.1969C19.3989 12.5023 19.0873 12.7359 18.73 12.87H18.69Z" fill="#27046A"/>
</svg>
