<svg width="24" height="24" viewBox="0 0 24 24" fill="none" xmlns="http://www.w3.org/2000/svg">
<path d="M19 6.50001H17.72L17.4 5.50001C17.1926 4.91324 16.8077 4.40551 16.2989 4.04717C15.7901 3.68883 15.1824 3.49761 14.56 3.50001H9.44C8.81155 3.50118 8.19933 3.69969 7.68977 4.06751C7.1802 4.43533 6.79901 4.9539 6.6 5.55001L6.28 6.55001H5C4.20435 6.55001 3.44129 6.86608 2.87868 7.42869C2.31607 7.9913 2 8.75436 2 9.55001V17.55C2 18.3457 2.31607 19.1087 2.87868 19.6713C3.44129 20.2339 4.20435 20.55 5 20.55H19C19.7956 20.55 20.5587 20.2339 21.1213 19.6713C21.6839 19.1087 22 18.3457 22 17.55V9.55001C22.0066 9.15185 21.9339 8.75636 21.7862 8.3866C21.6384 8.01683 21.4184 7.68018 21.1392 7.39629C20.86 7.1124 20.527 6.88694 20.1597 6.73306C19.7924 6.57917 19.3982 6.49995 19 6.50001ZM20 17.5C20 17.7652 19.8946 18.0196 19.7071 18.2071C19.5196 18.3947 19.2652 18.5 19 18.5H5C4.73478 18.5 4.48043 18.3947 4.29289 18.2071C4.10536 18.0196 4 17.7652 4 17.5V9.50001C4 9.23479 4.10536 8.98044 4.29289 8.7929C4.48043 8.60536 4.73478 8.50001 5 8.50001H7C7.21807 8.51139 7.43386 8.45108 7.61443 8.32829C7.795 8.20551 7.93042 8.02699 8 7.82001L8.54 6.18001C8.60709 5.98139 8.7349 5.80887 8.90537 5.68685C9.07584 5.56483 9.28036 5.49947 9.49 5.50001H14.61C14.8196 5.49947 15.0242 5.56483 15.1946 5.68685C15.3651 5.80887 15.4929 5.98139 15.56 6.18001L16.1 7.82001C16.1642 8.01075 16.2844 8.1777 16.445 8.29902C16.6055 8.42034 16.799 8.49039 17 8.50001H19C19.2652 8.50001 19.5196 8.60536 19.7071 8.7929C19.8946 8.98044 20 9.23479 20 9.50001V17.5ZM12 8.50001C11.2089 8.50001 10.4355 8.7346 9.77772 9.17413C9.11992 9.61365 8.60723 10.2384 8.30448 10.9693C8.00173 11.7002 7.92252 12.5044 8.07686 13.2804C8.2312 14.0563 8.61216 14.769 9.17157 15.3284C9.73098 15.8878 10.4437 16.2688 11.2196 16.4231C11.9956 16.5775 12.7998 16.4983 13.5307 16.1955C14.2616 15.8928 14.8864 15.3801 15.3259 14.7223C15.7654 14.0645 16 13.2911 16 12.5C16 11.4391 15.5786 10.4217 14.8284 9.67158C14.0783 8.92143 13.0609 8.50001 12 8.50001ZM12 14.5C11.6044 14.5 11.2178 14.3827 10.8889 14.1629C10.56 13.9432 10.3036 13.6308 10.1522 13.2654C10.0009 12.8999 9.96126 12.4978 10.0384 12.1098C10.1156 11.7219 10.3061 11.3655 10.5858 11.0858C10.8655 10.8061 11.2219 10.6156 11.6098 10.5384C11.9978 10.4613 12.3999 10.5009 12.7654 10.6522C13.1308 10.8036 13.4432 11.06 13.6629 11.3889C13.8827 11.7178 14 12.1044 14 12.5C14 13.0304 13.7893 13.5391 13.4142 13.9142C13.0391 14.2893 12.5304 14.5 12 14.5Z" fill="#27046A"/>
</svg>
