<svg width="24" height="24" viewBox="0 0 24 24" fill="none" xmlns="http://www.w3.org/2000/svg">
<path d="M19.29 3.70999C19.383 3.80372 19.4936 3.87811 19.6154 3.92888C19.7373 3.97965 19.868 4.00579 20 4.00579C20.132 4.00579 20.2627 3.97965 20.3846 3.92888C20.5064 3.87811 20.617 3.80372 20.71 3.70999C20.7983 3.61279 20.8694 3.50117 20.92 3.37999C20.9712 3.25976 20.9984 3.13066 21 2.99999C21.0008 2.86838 20.9755 2.73792 20.9258 2.61608C20.876 2.49424 20.8027 2.38343 20.71 2.28999L20.56 2.16999C20.5043 2.13214 20.4437 2.10188 20.38 2.07999C20.1979 2.00341 19.9972 1.98248 19.8032 2.01986C19.6092 2.05723 19.4306 2.15123 19.29 2.28999C19.1973 2.38343 19.124 2.49424 19.0742 2.61608C19.0245 2.73792 18.9992 2.86838 19 2.99999C19.0016 3.13066 19.0288 3.25976 19.08 3.37999C19.1306 3.50117 19.2017 3.61279 19.29 3.70999ZM20 4.99999C19.7348 4.99999 19.4804 5.10534 19.2929 5.29288C19.1054 5.48042 19 5.73477 19 5.99999V9.99999C19 10.2652 19.1054 10.5196 19.2929 10.7071C19.4804 10.8946 19.7348 11 20 11C20.2652 11 20.5196 10.8946 20.7071 10.7071C20.8946 10.5196 21 10.2652 21 9.99999V5.99999C21 5.73477 20.8946 5.48042 20.7071 5.29288C20.5196 5.10534 20.2652 4.99999 20 4.99999ZM20.06 13C19.7976 12.9689 19.5335 13.043 19.3255 13.206C19.1175 13.369 18.9825 13.6077 18.95 13.87C18.7379 15.5633 17.9145 17.1209 16.6346 18.2497C15.3548 19.3786 13.7066 20.001 12 20H6.41L7.05 19.37C7.23625 19.1826 7.34079 18.9292 7.34079 18.665C7.34079 18.4008 7.23625 18.1473 7.05 17.96C6.06749 16.9815 5.3977 15.7334 5.12559 14.3737C4.85347 13.0141 4.99128 11.6042 5.52155 10.323C6.05181 9.04183 6.95064 7.94697 8.10403 7.17732C9.25741 6.40767 10.6134 5.9979 12 5.99999C13.2261 5.99813 14.4307 6.32257 15.49 6.93999C15.7156 7.04194 15.971 7.05659 16.2068 6.98111C16.4425 6.90562 16.6419 6.74537 16.7663 6.53135C16.8908 6.31733 16.9314 6.06477 16.8803 5.82253C16.8293 5.58029 16.6902 5.36559 16.49 5.21999C15.1291 4.41968 13.5788 3.99842 12 3.99999C10.3075 4.00555 8.6508 4.48827 7.22019 5.39273C5.78957 6.29718 4.64299 7.58672 3.91207 9.1133C3.18115 10.6399 2.89551 12.3416 3.08794 14.0232C3.28038 15.7048 3.94309 17.298 5 18.62L3.29 20.29C3.15124 20.4306 3.05725 20.6092 3.01987 20.8032C2.9825 20.9972 3.00342 21.1979 3.08 21.38C3.15502 21.5626 3.28242 21.7189 3.44614 21.8293C3.60986 21.9396 3.80257 21.999 4 22H12C14.193 22 16.3105 21.1993 17.9548 19.7483C19.5991 18.2973 20.6571 16.2959 20.93 14.12C20.9468 13.9893 20.9376 13.8565 20.9029 13.7294C20.8682 13.6022 20.8087 13.4832 20.7279 13.3791C20.647 13.275 20.5464 13.1879 20.4318 13.1229C20.3172 13.0578 20.1908 13.016 20.06 13Z" fill="#27046A"/>
</svg>
