<svg width="24" height="24" viewBox="0 0 24 24" fill="none" xmlns="http://www.w3.org/2000/svg">
<path d="M21 11C20.7348 11 20.4804 11.1054 20.2929 11.2929C20.1054 11.4804 20 11.7348 20 12V14.59L13.71 8.29C13.617 8.19627 13.5064 8.12188 13.3846 8.07111C13.2627 8.02034 13.132 7.9942 13 7.9942C12.868 7.9942 12.7373 8.02034 12.6154 8.07111C12.4936 8.12188 12.383 8.19627 12.29 8.29L9 11.59L3.71 6.29C3.5217 6.1017 3.2663 5.99591 3 5.99591C2.7337 5.99591 2.47831 6.1017 2.29 6.29C2.1017 6.47831 1.99591 6.7337 1.99591 7C1.99591 7.2663 2.1017 7.5217 2.29 7.71L8.29 13.71C8.38297 13.8037 8.49357 13.8781 8.61543 13.9289C8.73728 13.9797 8.86799 14.0058 9 14.0058C9.13201 14.0058 9.26272 13.9797 9.38458 13.9289C9.50644 13.8781 9.61704 13.8037 9.71 13.71L13 10.41L18.59 16H16C15.7348 16 15.4804 16.1054 15.2929 16.2929C15.1054 16.4804 15 16.7348 15 17C15 17.2652 15.1054 17.5196 15.2929 17.7071C15.4804 17.8946 15.7348 18 16 18H21C21.1307 17.9984 21.2598 17.9712 21.38 17.92C21.6243 17.8185 21.8185 17.6244 21.92 17.38C21.9712 17.2598 21.9984 17.1307 22 17V12C22 11.7348 21.8946 11.4804 21.7071 11.2929C21.5196 11.1054 21.2652 11 21 11Z" fill="#27046A"/>
</svg>
