<svg width="24" height="24" viewBox="0 0 24 24" fill="none" xmlns="http://www.w3.org/2000/svg">
<path d="M18.42 8.22002C17.809 6.81602 16.7545 5.65109 15.4181 4.90374C14.0817 4.15639 12.5371 3.86785 11.021 4.08233C9.50487 4.2968 8.10092 5.00247 7.02425 6.09119C5.94758 7.17991 5.25759 8.59163 5.06 10.11C4.10658 10.3383 3.27022 10.9089 2.70973 11.7132C2.14925 12.5176 1.90368 13.4997 2.01966 14.4732C2.13564 15.4467 2.60509 16.3437 3.33886 16.9939C4.07264 17.644 5.01963 18.0021 6 18H8C8.26521 18 8.51957 17.8947 8.7071 17.7071C8.89464 17.5196 9 17.2652 9 17C9 16.7348 8.89464 16.4804 8.7071 16.2929C8.51957 16.1054 8.26521 16 8 16H6C5.46956 16 4.96086 15.7893 4.58578 15.4142C4.21071 15.0392 4 14.5304 4 14C4 13.4696 4.21071 12.9609 4.58578 12.5858C4.96086 12.2107 5.46956 12 6 12C6.26521 12 6.51957 11.8947 6.7071 11.7071C6.89464 11.5196 7 11.2652 7 11C7.00255 9.8173 7.42428 8.67377 8.19027 7.7726C8.95625 6.87143 10.0169 6.27097 11.1837 6.07789C12.3506 5.88481 13.5481 6.11162 14.5636 6.71803C15.579 7.32443 16.3466 8.27116 16.73 9.39002C16.7872 9.56186 16.8899 9.71495 17.0273 9.83295C17.1647 9.95095 17.3315 10.0294 17.51 10.06C18.2042 10.1798 18.8341 10.5399 19.2893 11.0775C19.7446 11.615 19.9962 12.2956 20 13C20 13.7957 19.6839 14.5587 19.1213 15.1213C18.5587 15.6839 17.7956 16 17 16C16.7348 16 16.4804 16.1054 16.2929 16.2929C16.1054 16.4804 16 16.7348 16 17C16 17.2652 16.1054 17.5196 16.2929 17.7071C16.4804 17.8947 16.7348 18 17 18C18.1936 17.989 19.3439 17.5513 20.243 16.7661C21.142 15.9809 21.7305 14.8999 21.902 13.7187C22.0735 12.5374 21.8167 11.3337 21.1781 10.3252C20.5395 9.31677 19.5612 8.57003 18.42 8.22002ZM12.92 18.62C12.9 18.5586 12.8696 18.5011 12.83 18.45L12.71 18.29C12.6128 18.2017 12.5012 18.1307 12.38 18.08C12.1979 18.0034 11.9972 17.9825 11.8032 18.0199C11.6092 18.0573 11.4306 18.1513 11.29 18.29L11.17 18.45C11.1304 18.5011 11.1 18.5586 11.08 18.62C11.0512 18.6767 11.0309 18.7374 11.02 18.8C11.0155 18.8666 11.0155 18.9334 11.02 19C11.0151 19.0633 11.0151 19.1268 11.02 19.19C11.0293 19.2563 11.0495 19.3205 11.08 19.38C11.1 19.4415 11.1304 19.499 11.17 19.55L11.29 19.71C11.4816 19.8927 11.7352 19.9963 12 20C12.1307 19.9984 12.2598 19.9713 12.38 19.92C12.5012 19.8694 12.6128 19.7983 12.71 19.71L12.83 19.55C12.8696 19.499 12.9 19.4415 12.92 19.38C12.9504 19.3205 12.9707 19.2563 12.98 19.19C12.9916 19.1273 12.9983 19.0638 13 19C13.0044 18.9334 13.0044 18.8666 13 18.8C12.9828 18.7362 12.9558 18.6755 12.92 18.62ZM12 11C11.4731 10.9997 10.9553 11.1381 10.4989 11.4015C10.0425 11.6648 9.66346 12.0437 9.4 12.5C9.33388 12.6142 9.29099 12.7402 9.27381 12.871C9.25663 13.0018 9.26548 13.1347 9.29988 13.262C9.33427 13.3894 9.39351 13.5086 9.47419 13.613C9.55488 13.7173 9.65541 13.8047 9.77 13.87C9.99961 14.0004 10.2715 14.0347 10.5263 13.9653C10.781 13.896 10.9981 13.7287 11.13 13.5C11.2181 13.3474 11.345 13.2208 11.4977 13.133C11.6505 13.0452 11.8238 12.9993 12 13C12.2652 13 12.5196 13.1054 12.7071 13.2929C12.8946 13.4804 13 13.7348 13 14C13 14.2652 12.8946 14.5196 12.7071 14.7071C12.5196 14.8947 12.2652 15 12 15C11.7348 15 11.4804 15.1054 11.2929 15.2929C11.1054 15.4804 11 15.7348 11 16C11 16.2652 11.1054 16.5196 11.2929 16.7071C11.4804 16.8947 11.7348 17 12 17C12.7956 17 13.5587 16.6839 14.1213 16.1213C14.6839 15.5587 15 14.7957 15 14C15 13.2044 14.6839 12.4413 14.1213 11.8787C13.5587 11.3161 12.7956 11 12 11Z" fill="#27046A"/>
</svg>
