<svg width="24" height="24" viewBox="0 0 24 24" fill="none" xmlns="http://www.w3.org/2000/svg">
<path d="M16.71 16.2899L3.71 3.28994C3.5217 3.10164 3.2663 2.99585 3 2.99585C2.7337 2.99585 2.4783 3.10164 2.29 3.28994C2.1017 3.47824 1.99591 3.73364 1.99591 3.99994C1.99591 4.26624 2.1017 4.52164 2.29 4.70994L5.65 8.05994C5.35458 8.69341 5.15571 9.36756 5.06 10.0599C4.03439 10.2166 3.10977 10.7656 2.48131 11.5911C1.85286 12.4166 1.56974 13.454 1.69171 14.4843C1.81369 15.5147 2.33122 16.4573 3.13506 17.1132C3.9389 17.7692 4.96616 18.0871 6 17.9999H15.59L18.29 20.7099C18.383 20.8037 18.4936 20.8781 18.6154 20.9288C18.7373 20.9796 18.868 21.0057 19 21.0057C19.132 21.0057 19.2627 20.9796 19.3846 20.9288C19.5064 20.8781 19.617 20.8037 19.71 20.7099C19.8037 20.617 19.8781 20.5064 19.9289 20.3845C19.9797 20.2627 20.0058 20.132 20.0058 19.9999C20.0058 19.8679 19.9797 19.7372 19.9289 19.6154C19.8781 19.4935 19.8037 19.3829 19.71 19.2899L16.71 16.2899ZM6 15.9999C5.46957 15.9999 4.96086 15.7892 4.58579 15.4142C4.21071 15.0391 4 14.5304 4 13.9999C4 13.4695 4.21071 12.9608 4.58579 12.5857C4.96086 12.2107 5.46957 11.9999 6 11.9999C6.26522 11.9999 6.51957 11.8946 6.70711 11.707C6.89464 11.5195 7 11.2652 7 10.9999C7.00094 10.5295 7.06827 10.0616 7.2 9.60994L13.59 15.9999H6ZM18.42 8.21994C17.8779 6.96718 16.9813 5.90026 15.8407 5.15048C14.7 4.4007 13.365 4.00078 12 3.99994C11.2092 3.99614 10.4239 4.13153 9.68 4.39994C9.45197 4.50296 9.27084 4.68773 9.17238 4.91777C9.07392 5.14781 9.06528 5.4064 9.14817 5.6425C9.23105 5.8786 9.39944 6.07504 9.62009 6.19305C9.84074 6.31107 10.0976 6.34207 10.34 6.27994C10.8731 6.09174 11.4347 5.99701 12 5.99994C13.0436 6.00071 14.0608 6.328 14.909 6.93592C15.7572 7.54385 16.394 8.40194 16.73 9.38994C16.7872 9.56178 16.8899 9.71487 17.0273 9.83287C17.1647 9.95088 17.3315 10.0294 17.51 10.0599C18.0185 10.1499 18.4952 10.3696 18.8939 10.6978C19.2926 11.026 19.5998 11.4515 19.7859 11.9332C19.9719 12.4149 20.0305 12.9365 19.9559 13.4475C19.8813 13.9585 19.676 14.4415 19.36 14.8499C19.1965 15.0572 19.1216 15.3206 19.1515 15.5829C19.1815 15.8452 19.314 16.0849 19.52 16.2499C19.6959 16.3911 19.9144 16.4686 20.14 16.4699C20.2902 16.4692 20.4383 16.4347 20.5734 16.3689C20.7084 16.3032 20.8269 16.2078 20.92 16.0899C21.4214 15.4492 21.7588 14.6957 21.903 13.895C22.0472 13.0942 21.9939 12.2704 21.7475 11.495C21.5012 10.7196 21.0694 10.0159 20.4895 9.44522C19.9096 8.8745 19.1993 8.45391 18.42 8.21994Z" fill="#27046A"/>
</svg>
