<svg width="24" height="24" viewBox="0 0 24 24" fill="none" xmlns="http://www.w3.org/2000/svg">
<path d="M5 18C4.80222 18 4.60888 18.0586 4.44443 18.1685C4.27998 18.2784 4.15181 18.4346 4.07612 18.6173C4.00043 18.8 3.98063 19.0011 4.01921 19.1951C4.0578 19.3891 4.15304 19.5672 4.29289 19.7071C4.43274 19.8469 4.61093 19.9422 4.80491 19.9808C4.99889 20.0194 5.19995 19.9995 5.38268 19.9239C5.56541 19.8482 5.72159 19.72 5.83147 19.5556C5.94135 19.3911 6 19.1978 6 19C6 18.7348 5.89464 18.4804 5.7071 18.2929C5.51957 18.1053 5.26521 18 5 18ZM19 14H12C11.7348 14 11.4804 14.1053 11.2929 14.2929C11.1054 14.4804 11 14.7348 11 15C11 15.2652 11.1054 15.5196 11.2929 15.7071C11.4804 15.8946 11.7348 16 12 16H19C19.2652 16 19.5196 16.1053 19.7071 16.2929C19.8946 16.4804 20 16.7348 20 17C20 17.2652 19.8946 17.5196 19.7071 17.7071C19.5196 17.8946 19.2652 18 19 18C18.7348 18 18.4804 18.1053 18.2929 18.2929C18.1054 18.4804 18 18.7348 18 19C18 19.2652 18.1054 19.5196 18.2929 19.7071C18.4804 19.8946 18.7348 20 19 20C19.7956 20 20.5587 19.6839 21.1213 19.1213C21.6839 18.5587 22 17.7956 22 17C22 16.2043 21.6839 15.4413 21.1213 14.8787C20.5587 14.3161 19.7956 14 19 14ZM14 11C14 11.2652 14.1054 11.5196 14.2929 11.7071C14.4804 11.8946 14.7348 12 15 12H19C19.7956 12 20.5587 11.6839 21.1213 11.1213C21.6839 10.5587 22 9.79563 22 8.99998C22 8.73477 21.8946 8.48041 21.7071 8.29288C21.5196 8.10534 21.2652 7.99998 21 7.99998C20.7348 7.99998 20.4804 8.10534 20.2929 8.29288C20.1054 8.48041 20 8.73477 20 8.99998C20 9.2652 19.8946 9.51955 19.7071 9.70709C19.5196 9.89462 19.2652 9.99998 19 9.99998H15C14.7348 9.99998 14.4804 10.1053 14.2929 10.2929C14.1054 10.4804 14 10.7348 14 11ZM10 15C10 14.7348 9.89464 14.4804 9.7071 14.2929C9.51957 14.1053 9.26521 14 9 14H6C5.46956 14 4.96086 13.7893 4.58578 13.4142C4.21071 13.0391 4 12.5304 4 12C4 11.4695 4.21071 10.9608 4.58578 10.5858C4.96086 10.2107 5.46956 9.99998 6 9.99998C6.26521 9.99998 6.51957 9.89462 6.7071 9.70709C6.89464 9.51955 7 9.2652 7 8.99998C7.00255 7.81726 7.42428 6.67374 8.19027 5.77257C8.95625 4.8714 10.0169 4.27093 11.1837 4.07786C12.3506 3.88478 13.5481 4.11159 14.5636 4.71799C15.579 5.32439 16.3466 6.27112 16.73 7.38998C16.8149 7.64194 16.9963 7.84986 17.2345 7.96801C17.4727 8.08616 17.748 8.10485 18 8.01998C18.252 7.93511 18.4599 7.75363 18.578 7.51546C18.6962 7.27729 18.7149 7.00194 18.63 6.74998C18.1208 5.25261 17.1195 3.9718 15.7893 3.11625C14.4591 2.26071 12.8784 1.88085 11.3047 2.03856C9.73096 2.19628 8.25705 2.88228 7.12308 3.98479C5.98911 5.0873 5.26192 6.54134 5.06 8.10998C4.10658 8.3383 3.27022 8.90882 2.70973 9.71317C2.14925 10.5175 1.90368 11.4997 2.01966 12.4732C2.13564 13.4467 2.60509 14.3437 3.33886 14.9938C4.07264 15.644 5.01963 16.002 6 16H9C9.26521 16 9.51957 15.8946 9.7071 15.7071C9.89464 15.5196 10 15.2652 10 15ZM10 11C10 11.1978 10.0586 11.3911 10.1685 11.5556C10.2784 11.72 10.4346 11.8482 10.6173 11.9239C10.8 11.9995 11.0011 12.0194 11.1951 11.9808C11.3891 11.9422 11.5673 11.8469 11.7071 11.7071C11.847 11.5672 11.9422 11.3891 11.9808 11.1951C12.0194 11.0011 11.9996 10.8 11.9239 10.6173C11.8482 10.4346 11.72 10.2784 11.5556 10.1685C11.3911 10.0586 11.1978 9.99998 11 9.99998C10.7348 9.99998 10.4804 10.1053 10.2929 10.2929C10.1054 10.4804 10 10.7348 10 11ZM14 18H9C8.73478 18 8.48043 18.1053 8.29289 18.2929C8.10535 18.4804 8 18.7348 8 19C8 19.2652 8.10535 19.5196 8.29289 19.7071C8.48043 19.8946 8.73478 20 9 20H14C14.2652 20 14.5196 20.1053 14.7071 20.2929C14.8946 20.4804 15 20.7348 15 21C15 21.2652 15.1054 21.5196 15.2929 21.7071C15.4804 21.8946 15.7348 22 16 22C16.2652 22 16.5196 21.8946 16.7071 21.7071C16.8946 21.5196 17 21.2652 17 21C17 20.2043 16.6839 19.4413 16.1213 18.8787C15.5587 18.3161 14.7956 18 14 18Z" fill="#27046A"/>
</svg>
