<svg width="24" height="24" viewBox="0 0 24 24" fill="none" xmlns="http://www.w3.org/2000/svg">
<path d="M21 20H18C17.7348 20 17.4804 19.8947 17.2929 19.7071C17.1054 19.5196 17 19.2652 17 19V16C18.1936 15.989 19.3439 15.5513 20.243 14.7661C21.142 13.9809 21.7305 12.8999 21.902 11.7187C22.0735 10.5374 21.8167 9.33372 21.1781 8.32524C20.5395 7.31677 19.5612 6.57003 18.42 6.22002C17.809 4.81602 16.7545 3.65109 15.4181 2.90374C14.0817 2.15639 12.5371 1.86785 11.021 2.08233C9.50487 2.2968 8.10092 3.00247 7.02425 4.09119C5.94758 5.17991 5.25759 6.59163 5.06 8.11002C4.10658 8.33834 3.27022 8.90885 2.70973 9.71321C2.14925 10.5176 1.90368 11.4997 2.01966 12.4732C2.13564 13.4467 2.60509 14.3437 3.33886 14.9939C4.07264 15.644 5.01963 16.0021 6 16H7V19C7 19.2652 6.89464 19.5196 6.7071 19.7071C6.51957 19.8947 6.26521 20 6 20H3C2.73478 20 2.48043 20.1054 2.29289 20.2929C2.10535 20.4804 2 20.7348 2 21C2 21.2652 2.10535 21.5196 2.29289 21.7071C2.48043 21.8947 2.73478 22 3 22H6C6.79565 22 7.55871 21.6839 8.12132 21.1213C8.68393 20.5587 9 19.7957 9 19V16H11V21C11 21.2652 11.1054 21.5196 11.2929 21.7071C11.4804 21.8947 11.7348 22 12 22C12.2652 22 12.5196 21.8947 12.7071 21.7071C12.8946 21.5196 13 21.2652 13 21V16H15V19C15 19.7957 15.3161 20.5587 15.8787 21.1213C16.4413 21.6839 17.2043 22 18 22H21C21.2652 22 21.5196 21.8947 21.7071 21.7071C21.8946 21.5196 22 21.2652 22 21C22 20.7348 21.8946 20.4804 21.7071 20.2929C21.5196 20.1054 21.2652 20 21 20ZM6 14C5.46956 14 4.96086 13.7893 4.58578 13.4142C4.21071 13.0392 4 12.5304 4 12C4 11.4696 4.21071 10.9609 4.58578 10.5858C4.96086 10.2107 5.46956 10 6 10C6.26521 10 6.51957 9.89466 6.7071 9.70712C6.89464 9.51959 7 9.26523 7 9.00002C7.00255 7.81729 7.42428 6.67377 8.19027 5.7726C8.95625 4.87143 10.0169 4.27097 11.1837 4.07789C12.3506 3.88481 13.5481 4.11162 14.5636 4.71803C15.579 5.32443 16.3466 6.27116 16.73 7.39002C16.7872 7.56186 16.8899 7.71495 17.0273 7.83295C17.1647 7.95095 17.3315 8.02943 17.51 8.06002C18.2042 8.17976 18.8341 8.53995 19.2893 9.07748C19.7446 9.61502 19.9962 10.2956 20 11C20 11.7957 19.6839 12.5587 19.1213 13.1213C18.5587 13.6839 17.7956 14 17 14H6Z" fill="#27046A"/>
</svg>
