<svg width="24" height="24" viewBox="0 0 24 24" fill="none" xmlns="http://www.w3.org/2000/svg">
<path d="M19.47 10.5401C18.9961 9.48581 18.2277 8.59088 17.2574 7.96288C16.287 7.33488 15.1559 7.00054 14 7.00006C13.5311 7.00384 13.0644 7.06428 12.61 7.18006C12.0408 6.3766 11.247 5.75909 10.3283 5.40498C9.40949 5.05086 8.40662 4.9759 7.44542 5.1895C6.48422 5.4031 5.60748 5.89575 4.92516 6.60566C4.24285 7.31558 3.78533 8.21115 3.60999 9.18006C2.95572 9.4156 2.4036 9.87111 2.04803 10.4687C1.69246 11.0663 1.55552 11.7688 1.66064 12.4562C1.76575 13.1436 2.10639 13.7731 2.6243 14.2371C3.14221 14.7011 3.80523 14.9708 4.49999 15.0001H5.49999C5.48956 15.1666 5.48956 15.3336 5.49999 15.5001C5.49999 16.4283 5.86874 17.3186 6.52511 17.9749C7.18149 18.6313 8.07173 19.0001 8.99999 19.0001H18.17C19.2043 18.9999 20.2043 18.6295 20.9892 17.9559C21.7741 17.2823 22.2919 16.35 22.449 15.3277C22.6061 14.3054 22.392 13.2607 21.8456 12.3825C21.2992 11.5043 20.4565 10.8508 19.47 10.5401ZM4.49999 13.0001C4.23477 13.0001 3.98042 12.8947 3.79288 12.7072C3.60534 12.5196 3.49999 12.2653 3.49999 12.0001C3.49999 11.7348 3.60534 11.4805 3.79288 11.293C3.98042 11.1054 4.23477 11.0001 4.49999 11.0001C4.7652 11.0001 5.01956 10.8947 5.20709 10.7072C5.39463 10.5196 5.49999 10.2653 5.49999 10.0001C5.49999 9.20441 5.81606 8.44135 6.37867 7.87874C6.94128 7.31613 7.70434 7.00006 8.49999 7.00006C8.91937 7.00231 9.33361 7.09247 9.716 7.26471C10.0984 7.43696 10.4404 7.68746 10.72 8.00006C10.0103 8.46181 9.40639 9.06854 8.94794 9.78035C8.48948 10.4922 8.18687 11.2929 8.05999 12.1301C7.49476 12.2892 6.97883 12.5885 6.55999 13.0001H4.49999ZM18.17 17.0001H8.99999C8.60216 17.0001 8.22063 16.842 7.93933 16.5607C7.65802 16.2794 7.49999 15.8979 7.49999 15.5001C7.49999 15.1022 7.65802 14.7207 7.93933 14.4394C8.22063 14.1581 8.60216 14.0001 8.99999 14.0001C9.2652 14.0001 9.51956 13.8947 9.70709 13.7072C9.89463 13.5196 9.99999 13.2653 9.99999 13.0001C10.0043 12.0558 10.3425 11.1434 10.9548 10.4245C11.5671 9.70564 12.414 9.22657 13.3456 9.0721C14.2772 8.91763 15.2334 9.09773 16.045 9.58053C16.8566 10.0633 17.4712 10.8177 17.78 11.7101C17.8371 11.8819 17.9399 12.035 18.0773 12.153C18.2146 12.271 18.3815 12.3495 18.56 12.3801C19.1276 12.4862 19.6356 12.7993 19.9854 13.2587C20.3353 13.718 20.5021 14.291 20.4535 14.8664C20.4049 15.4418 20.1444 15.9786 19.7225 16.3728C19.3006 16.7671 18.7473 16.9906 18.17 17.0001Z" fill="#27046A"/>
</svg>
