<svg width="24" height="24" viewBox="0 0 24 24" fill="none" xmlns="http://www.w3.org/2000/svg">
<path d="M14.29 17.29L13 18.59V13C13 12.7348 12.8946 12.4804 12.7071 12.2929C12.5196 12.1054 12.2652 12 12 12C11.7348 12 11.4804 12.1054 11.2929 12.2929C11.1054 12.4804 11 12.7348 11 13V18.59L9.71 17.29C9.61676 17.1968 9.50607 17.1228 9.38425 17.0724C9.26243 17.0219 9.13186 16.9959 9 16.9959C8.86814 16.9959 8.73757 17.0219 8.61575 17.0724C8.49393 17.1228 8.38324 17.1968 8.29 17.29C8.19676 17.3833 8.1228 17.4939 8.07234 17.6158C8.02188 17.7376 7.99591 17.8682 7.99591 18C7.99591 18.1319 8.02188 18.2624 8.07234 18.3843C8.1228 18.5061 8.19676 18.6168 8.29 18.71L11.29 21.71C11.3851 21.8011 11.4972 21.8724 11.62 21.92C11.7397 21.9729 11.8691 22.0002 12 22.0002C12.1309 22.0002 12.2603 21.9729 12.38 21.92C12.5028 21.8724 12.6149 21.8011 12.71 21.71L15.71 18.71C15.8983 18.5217 16.0041 18.2663 16.0041 18C16.0041 17.7337 15.8983 17.4783 15.71 17.29C15.5217 17.1017 15.2663 16.9959 15 16.9959C14.7337 16.9959 14.4783 17.1017 14.29 17.29ZM18.42 6.22002C17.809 4.81602 16.7545 3.65109 15.4181 2.90374C14.0817 2.15639 12.5371 1.86785 11.021 2.08233C9.50488 2.2968 8.10093 3.00247 7.02426 4.09119C5.94759 5.17991 5.25759 6.59163 5.06 8.11002C4.10659 8.33834 3.27022 8.90885 2.70974 9.71321C2.14925 10.5176 1.90368 11.4997 2.01966 12.4732C2.13564 13.4467 2.6051 14.3437 3.33887 14.9939C4.07264 15.644 5.01963 16.0021 6 16C6.26522 16 6.51957 15.8947 6.70711 15.7071C6.89464 15.5196 7 15.2652 7 15C7 14.7348 6.89464 14.4804 6.70711 14.2929C6.51957 14.1054 6.26522 14 6 14C5.46957 14 4.96086 13.7893 4.58579 13.4142C4.21071 13.0392 4 12.5304 4 12C4 11.4696 4.21071 10.9609 4.58579 10.5858C4.96086 10.2107 5.46957 10 6 10C6.26522 10 6.51957 9.89466 6.70711 9.70712C6.89464 9.51959 7 9.26523 7 9.00002C7.00256 7.81729 7.42429 6.67377 8.19027 5.7726C8.95625 4.87143 10.0169 4.27097 11.1838 4.07789C12.3506 3.88481 13.5481 4.11162 14.5636 4.71803C15.579 5.32443 16.3466 6.27116 16.73 7.39002C16.7872 7.56186 16.8899 7.71495 17.0273 7.83295C17.1647 7.95095 17.3315 8.02943 17.51 8.06002C18.1761 8.18589 18.7799 8.53362 19.223 9.04655C19.6662 9.55948 19.9226 10.2074 19.9504 10.8847C19.9782 11.5619 19.7759 12.2287 19.3763 12.7762C18.9767 13.3238 18.4035 13.7199 17.75 13.9C17.6226 13.9328 17.503 13.9904 17.3978 14.0695C17.2927 14.1486 17.2042 14.2476 17.1373 14.3609C17.0705 14.4742 17.0266 14.5995 17.0082 14.7298C16.9898 14.86 16.9972 14.9926 17.03 15.12C17.0628 15.2474 17.1204 15.3671 17.1995 15.4722C17.2786 15.5773 17.3776 15.6658 17.4909 15.7327C17.6042 15.7995 17.7295 15.8434 17.8598 15.8619C17.99 15.8803 18.1226 15.8728 18.25 15.84C19.3024 15.5619 20.2353 14.948 20.907 14.0915C21.5787 13.235 21.9526 12.1826 21.9718 11.0943C21.9911 10.0059 21.6546 8.94106 21.0136 8.06134C20.3725 7.18161 19.4619 6.53511 18.42 6.22002Z" fill="#27046A"/>
</svg>
