<svg width="24" height="24" viewBox="0 0 24 24" fill="none" xmlns="http://www.w3.org/2000/svg">
<path d="M9.21 20.29C9.06937 20.1512 8.8908 20.0572 8.69681 20.0199C8.50282 19.9825 8.30211 20.0034 8.12 20.08C7.99635 20.1258 7.88387 20.1974 7.79 20.29C7.70167 20.3872 7.63064 20.4988 7.58 20.62C7.52709 20.7397 7.49977 20.8691 7.49977 21C7.49977 21.1309 7.52709 21.2603 7.58 21.38C7.62491 21.5041 7.69656 21.6168 7.78988 21.7101C7.8832 21.8034 7.9959 21.8751 8.12 21.92C8.2397 21.9729 8.36913 22.0002 8.5 22.0002C8.63087 22.0002 8.7603 21.9729 8.88 21.92C9.00118 21.8694 9.1128 21.7983 9.21 21.71C9.30268 21.6166 9.376 21.5057 9.42577 21.3839C9.47553 21.2621 9.50076 21.1316 9.5 21C9.50338 20.8688 9.47598 20.7387 9.42 20.62C9.36936 20.4988 9.29833 20.3872 9.21 20.29ZM13.21 18.29C13.1161 18.1974 13.0036 18.1258 12.88 18.08C12.6979 18.0034 12.4972 17.9825 12.3032 18.0199C12.1092 18.0572 11.9306 18.1512 11.79 18.29C11.7017 18.3872 11.6306 18.4988 11.58 18.62C11.5073 18.8017 11.4894 19.0008 11.5288 19.1926C11.5681 19.3843 11.6629 19.5603 11.8013 19.6987C11.9397 19.8371 12.1157 19.9319 12.3074 19.9712C12.4992 20.0105 12.6983 19.9927 12.88 19.92C13.0012 19.8694 13.1128 19.7983 13.21 19.71C13.3488 19.5694 13.4428 19.3908 13.4801 19.1968C13.5175 19.0028 13.4966 18.8021 13.42 18.62C13.3694 18.4988 13.2983 18.3872 13.21 18.29ZM9.21 16.29C9.06937 16.1512 8.8908 16.0572 8.69681 16.0199C8.50282 15.9825 8.30211 16.0034 8.12 16.08C7.99725 16.1276 7.8851 16.199 7.79 16.29C7.70167 16.3872 7.63064 16.4988 7.58 16.62C7.50342 16.8021 7.4825 17.0028 7.51987 17.1968C7.55724 17.3908 7.65124 17.5694 7.79 17.71C7.8872 17.7983 7.99881 17.8694 8.12 17.92C8.2397 17.9729 8.36913 18.0002 8.5 18.0002C8.63087 18.0002 8.7603 17.9729 8.88 17.92C9.00118 17.8694 9.1128 17.7983 9.21 17.71C9.30268 17.6166 9.376 17.5057 9.42577 17.3839C9.47553 17.2621 9.50076 17.1316 9.5 17C9.50338 16.8688 9.47598 16.7387 9.42 16.62C9.36936 16.4988 9.29833 16.3872 9.21 16.29ZM12.12 14.08C11.9972 14.1276 11.8851 14.199 11.79 14.29C11.6073 14.4816 11.5037 14.7352 11.5 15C11.4992 15.1316 11.5245 15.2621 11.5742 15.3839C11.624 15.5057 11.6973 15.6166 11.79 15.71C11.8872 15.7983 11.9988 15.8694 12.12 15.92C12.2387 15.976 12.3688 16.0034 12.5 16C12.7652 16 13.0196 15.8946 13.2071 15.7071C13.3946 15.5196 13.5 15.2652 13.5 15C13.4963 14.7352 13.3927 14.4816 13.21 14.29C13.0694 14.1512 12.8908 14.0572 12.6968 14.0199C12.5028 13.9825 12.3021 14.0034 12.12 14.08ZM21 7H20.2C20.0966 6.55129 19.921 6.12237 19.68 5.73L20.24 5.17C20.4038 4.9787 20.4894 4.73262 20.4797 4.48095C20.47 4.22927 20.3657 3.99053 20.1876 3.81244C20.0095 3.63434 19.7707 3.53001 19.5191 3.52029C19.2674 3.51057 19.0213 3.59617 18.83 3.76L18.27 4.32C17.8776 4.07901 17.4487 3.90339 17 3.8V3C17 2.73478 16.8946 2.48043 16.7071 2.29289C16.5196 2.10536 16.2652 2 16 2C15.7348 2 15.4804 2.10536 15.2929 2.29289C15.1054 2.48043 15 2.73478 15 3V3.8C14.5539 3.90181 14.128 4.07758 13.74 4.32L13.17 3.76C12.9787 3.59617 12.7326 3.51057 12.4809 3.52029C12.2293 3.53001 11.9905 3.63434 11.8124 3.81244C11.6343 3.99053 11.53 4.22927 11.5203 4.48095C11.5106 4.73262 11.5962 4.9787 11.76 5.17L12.32 5.74C12.23 5.89 12.16 6.06 12.08 6.22C11.5658 6.07486 11.0342 6.00084 10.5 6C9.05885 5.99918 7.66556 6.5171 6.57487 7.45906C5.48418 8.40102 4.76896 9.70409 4.56 11.13C3.86363 11.3239 3.24439 11.7287 2.78733 12.2887C2.33028 12.8487 2.05783 13.5365 2.00742 14.2576C1.95701 14.9787 2.1311 15.6978 2.50579 16.3159C2.88048 16.9341 3.43739 17.4211 4.1 17.71C4.22744 17.7605 4.36294 17.7876 4.5 17.79C4.73119 17.7919 4.9559 17.7136 5.13588 17.5685C5.31586 17.4233 5.43998 17.2203 5.48714 16.994C5.53429 16.7676 5.50156 16.532 5.39451 16.327C5.28746 16.1221 5.11271 15.9606 4.9 15.87C4.63169 15.7557 4.40313 15.5647 4.24301 15.321C4.08289 15.0772 3.99835 14.7916 4 14.5C4 14.1022 4.15803 13.7206 4.43934 13.4393C4.72064 13.158 5.10217 13 5.5 13C5.76521 13 6.01957 12.8946 6.2071 12.7071C6.39464 12.5196 6.5 12.2652 6.5 12C6.50429 11.0557 6.84252 10.1434 7.45484 9.42447C8.06715 8.70558 8.91406 8.22651 9.84565 8.07204C10.7772 7.91757 11.7334 8.09767 12.545 8.58047C13.3566 9.06326 13.9712 9.81761 14.28 10.71C14.3372 10.8818 14.4399 11.0349 14.5773 11.1529C14.7147 11.2709 14.8815 11.3494 15.06 11.38C15.5245 11.4488 15.9571 11.6569 16.3008 11.9768C16.6445 12.2967 16.883 12.7133 16.9849 13.1717C17.0867 13.63 17.0471 14.1085 16.8713 14.5439C16.6954 14.9792 16.3916 15.351 16 15.61C15.8897 15.6822 15.7947 15.7755 15.7204 15.8844C15.6461 15.9934 15.594 16.1159 15.5671 16.2449C15.5402 16.374 15.5389 16.5071 15.5635 16.6367C15.588 16.7662 15.6378 16.8897 15.71 17C15.7822 17.1103 15.8755 17.2053 15.9844 17.2796C16.0934 17.3539 16.2159 17.4059 16.3449 17.4329C16.474 17.4598 16.6071 17.4611 16.7367 17.4365C16.8662 17.412 16.9897 17.3622 17.1 17.29C17.6897 16.8891 18.1716 16.3491 18.503 15.7177C18.8343 15.0864 19.0051 14.383 19 13.67C18.9991 13.139 18.8973 12.613 18.7 12.12L18.83 12.24C19.0163 12.4247 19.2677 12.5289 19.53 12.53C19.6616 12.5308 19.7921 12.5055 19.9139 12.4558C20.0357 12.406 20.1466 12.3327 20.24 12.24C20.4262 12.0526 20.5308 11.7992 20.5308 11.535C20.5308 11.2708 20.4262 11.0174 20.24 10.83L19.68 10.27C19.921 9.87763 20.0966 9.44871 20.2 9H21C21.2652 9 21.5196 8.89464 21.7071 8.70711C21.8946 8.51957 22 8.26522 22 8C22 7.73478 21.8946 7.48043 21.7071 7.29289C21.5196 7.10536 21.2652 7 21 7ZM17.66 9.65C17.4863 9.82422 17.2832 9.96641 17.06 10.07C16.7337 9.84377 16.3768 9.6653 16 9.54C15.5405 8.53676 14.8184 7.67641 13.91 7.05C14.0215 6.7917 14.1771 6.55482 14.37 6.35C14.8191 5.93464 15.4083 5.70393 16.02 5.70393C16.6317 5.70393 17.2209 5.93464 17.67 6.35C18.0989 6.7922 18.3387 7.384 18.3387 8C18.3387 8.616 18.0989 9.2078 17.67 9.65H17.66Z" fill="#27046A"/>
</svg>
