<svg width="24" height="24" viewBox="0 0 24 24" fill="none" xmlns="http://www.w3.org/2000/svg">
<path d="M8 11C7.73478 11 7.48043 11.1054 7.29289 11.2929C7.10536 11.4804 7 11.7348 7 12V15C7 15.2652 7.10536 15.5196 7.29289 15.7071C7.48043 15.8947 7.73478 16 8 16C8.26522 16 8.51957 15.8947 8.70711 15.7071C8.89464 15.5196 9 15.2652 9 15V12C9 11.7348 8.89464 11.4804 8.70711 11.2929C8.51957 11.1054 8.26522 11 8 11ZM12 17C11.7348 17 11.4804 17.1054 11.2929 17.2929C11.1054 17.4804 11 17.7348 11 18V21C11 21.2652 11.1054 21.5196 11.2929 21.7071C11.4804 21.8947 11.7348 22 12 22C12.2652 22 12.5196 21.8947 12.7071 21.7071C12.8946 21.5196 13 21.2652 13 21V18C13 17.7348 12.8946 17.4804 12.7071 17.2929C12.5196 17.1054 12.2652 17 12 17ZM8 17C7.73478 17 7.48043 17.1054 7.29289 17.2929C7.10536 17.4804 7 17.7348 7 18V21C7 21.2652 7.10536 21.5196 7.29289 21.7071C7.48043 21.8947 7.73478 22 8 22C8.26522 22 8.51957 21.8947 8.70711 21.7071C8.89464 21.5196 9 21.2652 9 21V18C9 17.7348 8.89464 17.4804 8.70711 17.2929C8.51957 17.1054 8.26522 17 8 17ZM18.42 6.22002C17.809 4.81602 16.7545 3.65109 15.4181 2.90374C14.0817 2.15639 12.5371 1.86785 11.021 2.08233C9.50487 2.2968 8.10093 3.00247 7.02425 4.09119C5.94758 5.17991 5.25759 6.59163 5.06 8.11002C4.18741 8.32098 3.41116 8.81934 2.85613 9.52493C2.30109 10.2305 1.99955 11.1023 2 12C1.99821 12.5664 2.11675 13.1268 2.34775 13.644C2.57876 14.1611 2.91697 14.6233 3.34 15C3.43736 15.0935 3.55264 15.1664 3.6789 15.2141C3.80516 15.2619 3.93978 15.2836 4.07465 15.2779C4.20953 15.2723 4.34186 15.2394 4.46367 15.1812C4.58548 15.123 4.69426 15.0408 4.78344 14.9394C4.87262 14.8381 4.94035 14.7198 4.98257 14.5915C5.02478 14.4633 5.0406 14.3279 5.02907 14.1934C5.01753 14.0589 4.97889 13.9281 4.91546 13.8089C4.85203 13.6898 4.76513 13.5847 4.66 13.5C4.4503 13.3108 4.28307 13.0793 4.16931 12.8207C4.05555 12.5622 3.99785 12.2825 4 12C4 11.4696 4.21071 10.9609 4.58579 10.5858C4.96086 10.2107 5.46957 10 6 10C6.26522 10 6.51957 9.89466 6.70711 9.70712C6.89464 9.51959 7 9.26523 7 9.00002C7.00255 7.81729 7.42429 6.67377 8.19027 5.7726C8.95625 4.87143 10.0169 4.27097 11.1837 4.07789C12.3506 3.88481 13.5481 4.11162 14.5636 4.71803C15.579 5.32443 16.3466 6.27116 16.73 7.39002C16.7872 7.56186 16.8899 7.71495 17.0273 7.83295C17.1647 7.95095 17.3315 8.02943 17.51 8.06002C18.2042 8.17976 18.8341 8.53995 19.2893 9.07748C19.7446 9.61502 19.9962 10.2956 20 11C20.0153 11.7363 19.7509 12.451 19.26 13C19.1003 13.1988 19.0227 13.4511 19.0428 13.7053C19.063 13.9595 19.1795 14.1963 19.3685 14.3675C19.5575 14.5386 19.8048 14.6311 20.0597 14.626C20.3146 14.6209 20.558 14.5186 20.74 14.34C21.2908 13.7106 21.6749 12.953 21.8571 12.1367C22.0394 11.3204 22.0139 10.4714 21.7831 9.66745C21.5522 8.86352 21.1234 8.13034 20.5359 7.53505C19.9483 6.93975 19.2208 6.50136 18.42 6.26002V6.22002ZM12 11C11.7348 11 11.4804 11.1054 11.2929 11.2929C11.1054 11.4804 11 11.7348 11 12V15C11 15.2652 11.1054 15.5196 11.2929 15.7071C11.4804 15.8947 11.7348 16 12 16C12.2652 16 12.5196 15.8947 12.7071 15.7071C12.8946 15.5196 13 15.2652 13 15V12C13 11.7348 12.8946 11.4804 12.7071 11.2929C12.5196 11.1054 12.2652 11 12 11ZM16 11C15.7348 11 15.4804 11.1054 15.2929 11.2929C15.1054 11.4804 15 11.7348 15 12V15C15 15.2652 15.1054 15.5196 15.2929 15.7071C15.4804 15.8947 15.7348 16 16 16C16.2652 16 16.5196 15.8947 16.7071 15.7071C16.8946 15.5196 17 15.2652 17 15V12C17 11.7348 16.8946 11.4804 16.7071 11.2929C16.5196 11.1054 16.2652 11 16 11ZM16 17C15.7348 17 15.4804 17.1054 15.2929 17.2929C15.1054 17.4804 15 17.7348 15 18V21C15 21.2652 15.1054 21.5196 15.2929 21.7071C15.4804 21.8947 15.7348 22 16 22C16.2652 22 16.5196 21.8947 16.7071 21.7071C16.8946 21.5196 17 21.2652 17 21V18C17 17.7348 16.8946 17.4804 16.7071 17.2929C16.5196 17.1054 16.2652 17 16 17Z" fill="#27046A"/>
</svg>
