<svg width="24" height="24" viewBox="0 0 24 24" fill="none" xmlns="http://www.w3.org/2000/svg">
<path d="M14.5 15C14.8956 15 15.2822 14.8827 15.6111 14.663C15.94 14.4432 16.1964 14.1308 16.3478 13.7654C16.4991 13.3999 16.5387 12.9978 16.4616 12.6098C16.3844 12.2219 16.1939 11.8655 15.9142 11.5858C15.6345 11.3061 15.2781 11.1156 14.8902 11.0384C14.5022 10.9613 14.1001 11.0009 13.7346 11.1523C13.3692 11.3036 13.0568 11.56 12.8371 11.8889C12.6173 12.2178 12.5 12.6045 12.5 13L10.6 13.87C10.2735 13.6548 9.89104 13.5401 9.5 13.54C8.96956 13.54 8.46086 13.7507 8.08578 14.1258C7.71071 14.5009 7.5 15.0096 7.5 15.54C7.5 16.0704 7.71071 16.5792 8.08578 16.9542C8.46086 17.3293 8.96956 17.54 9.5 17.54C9.82216 17.5402 10.139 17.4575 10.42 17.3L12.52 18.3C12.5706 18.737 12.7639 19.1452 13.07 19.4612C13.3761 19.7773 13.7778 19.9836 14.213 20.0482C14.6481 20.1128 15.0925 20.0321 15.4772 19.8187C15.8619 19.6052 16.1654 19.2708 16.3409 18.8673C16.5163 18.4639 16.5538 18.0138 16.4475 17.5869C16.3413 17.16 16.0972 16.78 15.7531 16.5058C15.4091 16.2316 14.9842 16.0785 14.5443 16.0702C14.1045 16.062 13.6741 16.199 13.32 16.46L11.57 15.66L13.48 14.78C13.7945 14.9423 14.1465 15.0182 14.5 15ZM18.42 7.22002C17.809 5.81602 16.7545 4.65109 15.4181 3.90374C14.0817 3.15639 12.5371 2.86785 11.021 3.08233C9.50487 3.2968 8.10092 4.00247 7.02425 5.09119C5.94758 6.17991 5.25758 7.59163 5.06 9.11002C4.22221 9.31407 3.4728 9.78339 2.92344 10.448C2.37409 11.1126 2.05421 11.937 2.01149 12.7982C1.96877 13.6594 2.20548 14.5114 2.68636 15.2271C3.16724 15.9429 3.86652 16.484 4.68 16.77C4.78371 16.802 4.89148 16.8188 5 16.82C5.26521 16.8625 5.53642 16.7978 5.75397 16.6403C5.97151 16.4827 6.11756 16.2452 6.16 15.98C6.20243 15.7148 6.13777 15.4436 5.98024 15.226C5.82271 15.0085 5.58521 14.8625 5.32 14.82C4.94291 14.6839 4.61543 14.4376 4.38005 14.1131C4.14467 13.7885 4.01226 13.4007 4 13C4 12.4696 4.21071 11.9609 4.58578 11.5858C4.96085 11.2107 5.46956 11 6 11C6.26521 11 6.51957 10.8947 6.7071 10.7071C6.89464 10.5196 7 10.2652 7 10C7.00255 8.81729 7.42428 7.67377 8.19027 6.7726C8.95625 5.87143 10.0169 5.27097 11.1837 5.07789C12.3506 4.88481 13.5481 5.11162 14.5636 5.71803C15.579 6.32443 16.3466 7.27116 16.73 8.39002C16.7872 8.56186 16.8899 8.71495 17.0273 8.83295C17.1647 8.95095 17.3315 9.02943 17.51 9.06002C18.1113 9.16886 18.6651 9.45875 19.0972 9.8909C19.5293 10.3231 19.8191 10.8769 19.9278 11.4782C20.0366 12.0796 19.9591 12.6998 19.7057 13.2559C19.4523 13.812 19.0351 14.2775 18.51 14.59C18.2793 14.7226 18.1106 14.9415 18.0413 15.1984C17.9719 15.4553 18.0074 15.7293 18.14 15.96C18.2726 16.1908 18.4914 16.3594 18.7484 16.4288C19.0053 16.4981 19.2793 16.4626 19.51 16.33C20.2682 15.8899 20.8974 15.2582 21.3344 14.4982C21.7715 13.7382 22.001 12.8767 22 12C21.997 10.9241 21.647 9.87795 21.002 9.01682C20.3571 8.15569 19.4516 7.52556 18.42 7.22002Z" fill="#27046A"/>
</svg>
