<svg width="24" height="24" viewBox="0 0 24 24" fill="none" xmlns="http://www.w3.org/2000/svg">
<path d="M21.61 11.81L18.36 9.27998L21.62 6.71998C21.749 6.61877 21.8511 6.4874 21.9174 6.33743C21.9836 6.18746 22.012 6.0235 22 5.85998C21.9841 5.69709 21.9307 5.54009 21.8439 5.40129C21.7572 5.2625 21.6395 5.14568 21.5 5.05998L16.36 2.12998C16.1795 2.02843 15.9719 1.98543 15.7659 2.00693C15.5599 2.02842 15.3657 2.11335 15.21 2.24998L12 5.04998L8.79 2.24998C8.63435 2.11335 8.4401 2.02842 8.2341 2.00693C8.02811 1.98543 7.82052 2.02843 7.64 2.12998L2.5 5.05998C2.36056 5.14568 2.24285 5.2625 2.1561 5.40129C2.06935 5.54009 2.01592 5.69709 2 5.85998C1.98799 6.0235 2.01636 6.18746 2.08263 6.33743C2.14889 6.4874 2.25102 6.61877 2.38 6.71998L5.64 9.27998L2.39 11.77C2.25919 11.8701 2.15514 12.001 2.0871 12.151C2.01906 12.3011 1.98914 12.4656 2 12.63C2.01108 12.7942 2.06252 12.9531 2.14974 13.0927C2.23696 13.2322 2.35727 13.3481 2.5 13.43L5.91 15.43V17.9C5.91072 18.0709 5.95521 18.2387 6.03924 18.3875C6.12327 18.5363 6.24403 18.6611 6.39 18.75L11.48 21.88C11.632 21.9678 11.8045 22.014 11.98 22.014C12.1555 22.014 12.328 21.9678 12.48 21.88L17.57 18.75C17.716 18.6611 17.8367 18.5363 17.9208 18.3875C18.0048 18.2387 18.0493 18.0709 18.05 17.9V15.42L21.46 13.47C21.6027 13.3881 21.7231 13.2722 21.8103 13.1327C21.8975 12.9931 21.9489 12.8342 21.96 12.67C21.9755 12.509 21.9518 12.3467 21.8909 12.1969C21.8299 12.0471 21.7335 11.9143 21.61 11.81ZM16 4.21998L19.23 6.05998L16.68 8.05998L13.68 6.21998L16 4.21998ZM14.91 9.33998L12 11.34L9.09 9.33998L12 7.54998L14.91 9.33998ZM4.79 6.05998L8 4.21998L10.31 6.21998L7.31 8.05998L4.79 6.05998ZM4.79 12.45L7.29 10.53L10.29 12.61L8.07 14.34L4.79 12.45ZM16.08 17.31L12 19.83L7.91 17.31V16.51C8.0561 16.5458 8.2084 16.5483 8.35557 16.5171C8.50274 16.486 8.64099 16.422 8.76 16.33L12 13.83L15.24 16.33C15.4146 16.4655 15.6291 16.5393 15.85 16.54C15.9297 16.5496 16.0103 16.5496 16.09 16.54L16.08 17.31ZM15.93 14.31L13.7 12.61L16.7 10.53L19.21 12.47L15.93 14.31Z" fill="#27046A"/>
</svg>
