<svg width="24" height="24" viewBox="0 0 24 24" fill="none" xmlns="http://www.w3.org/2000/svg">
<path d="M20.5 13C20.2348 13 19.9804 13.1054 19.7929 13.2929C19.6054 13.4804 19.5 13.7348 19.5 14V18C19.5 18.2652 19.3946 18.5196 19.2071 18.7071C19.0196 18.8946 18.7652 19 18.5 19H4.5C4.23478 19 3.98043 18.8946 3.79289 18.7071C3.60536 18.5196 3.5 18.2652 3.5 18V8.41L9.38 14.3C9.94125 14.8567 10.6995 15.1693 11.49 15.17C11.8903 15.171 12.2867 15.0919 12.656 14.9373C13.0252 14.7828 13.3598 14.5559 13.64 14.27L14.53 13.39C14.6669 13.1969 14.7309 12.9614 14.7106 12.7256C14.6902 12.4897 14.5869 12.2687 14.4188 12.1019C14.2508 11.9351 14.0291 11.8333 13.7931 11.8147C13.5571 11.796 13.3221 11.8617 13.13 12L12.2 12.91C12.0131 13.0932 11.7618 13.1959 11.5 13.1959C11.2382 13.1959 10.9869 13.0932 10.8 12.91L4.91 7H9.5C9.76522 7 10.0196 6.89464 10.2071 6.70711C10.3946 6.51957 10.5 6.26522 10.5 6C10.5 5.73478 10.3946 5.48043 10.2071 5.29289C10.0196 5.10536 9.76522 5 9.5 5H4.5C3.70435 5 2.94129 5.31607 2.37868 5.87868C1.81607 6.44129 1.5 7.20435 1.5 8V18C1.5 18.7956 1.81607 19.5587 2.37868 20.1213C2.94129 20.6839 3.70435 21 4.5 21H18.5C19.2956 21 20.0587 20.6839 20.6213 20.1213C21.1839 19.5587 21.5 18.7956 21.5 18V14C21.5 13.7348 21.3946 13.4804 21.2071 13.2929C21.0196 13.1054 20.7652 13 20.5 13ZM21.55 4C21.0433 3.51151 20.3949 3.19613 19.6978 3.09911C19.0007 3.00209 18.2908 3.12843 17.67 3.46C16.9859 3.08376 16.1892 2.96636 15.4256 3.12927C14.6621 3.29219 13.9827 3.72454 13.5117 4.34724C13.0408 4.96993 12.8097 5.74137 12.8608 6.52044C12.9119 7.29951 13.2417 8.03415 13.79 8.59L17 11.71C17.1916 11.8927 17.4452 11.9963 17.71 12C17.8416 12.0008 17.9721 11.9755 18.0939 11.9258C18.2157 11.876 18.3266 11.8027 18.42 11.71L21.59 8.54C22.1748 7.92653 22.4977 7.10941 22.4902 6.26189C22.4828 5.41437 22.1455 4.60307 21.55 4ZM20.14 7.12L17.67 9.59L15.21 7.12C15.0944 7.00247 15.0032 6.86332 14.9414 6.71051C14.8796 6.5577 14.8485 6.39422 14.8499 6.22939C14.8527 5.89652 14.9876 5.57839 15.225 5.345C15.4624 5.11161 15.7827 4.98207 16.1156 4.98489C16.4485 4.9877 16.7666 5.12263 17 5.36C17.093 5.45373 17.2036 5.52812 17.3254 5.57889C17.4473 5.62966 17.578 5.6558 17.71 5.6558C17.842 5.6558 17.9727 5.62966 18.0946 5.57889C18.2164 5.52812 18.327 5.45373 18.42 5.36C18.6577 5.13494 18.9726 5.00952 19.3 5.00952C19.6274 5.00952 19.9423 5.13494 20.18 5.36C20.4044 5.60053 20.5258 5.91928 20.5184 6.24814C20.5109 6.57701 20.3751 6.88991 20.14 7.12Z" fill="#27046A"/>
</svg>
