<svg width="24" height="24" viewBox="0 0 24 24" fill="none" xmlns="http://www.w3.org/2000/svg">
<path d="M21.63 5.12001C21.5138 5.02603 21.3781 4.95928 21.2327 4.92467C21.0873 4.89006 20.9361 4.88847 20.79 4.92001C20.4116 5.00323 20.0199 5.00526 19.6407 4.92596C19.2614 4.84667 18.9033 4.68786 18.59 4.46001C18.4187 4.33486 18.2121 4.26741 18 4.26741C17.7879 4.26741 17.5813 4.33486 17.41 4.46001C17.0967 4.68786 16.7386 4.84667 16.3593 4.92596C15.9801 5.00526 15.5884 5.00323 15.21 4.92001C15.064 4.88864 14.9128 4.89038 14.7676 4.9251C14.6223 4.95981 14.4867 5.02662 14.3706 5.12061C14.2546 5.21461 14.161 5.3334 14.0969 5.46827C14.0328 5.60314 13.9997 5.75066 14 5.90001V9.21001C13.9984 9.92724 14.1639 10.635 14.4833 11.2772C14.8026 11.9194 15.2671 12.4784 15.84 12.91L17.41 14.07C17.5813 14.1952 17.7879 14.2626 18 14.2626C18.2121 14.2626 18.4187 14.1952 18.59 14.07L20.16 12.91C20.7329 12.4784 21.1974 11.9194 21.5167 11.2772C21.8361 10.635 22.0016 9.92724 22 9.21001V5.90001C22.0005 5.75061 21.9675 5.603 21.9035 5.46802C21.8395 5.33304 21.746 5.21413 21.63 5.12001ZM20 9.21001C20.0055 9.61185 19.9181 10.0095 19.7446 10.3721C19.5712 10.7346 19.3163 11.0521 19 11.3L18 12L17 11.28C16.6837 11.0321 16.4288 10.7146 16.2554 10.3521C16.0819 9.98953 15.9945 9.59185 16 9.19001V7.00001C16.6987 6.97201 17.3822 6.78747 18 6.46001C18.6178 6.78747 19.3013 6.97201 20 7.00001V9.21001ZM21 15.21C20.7348 15.21 20.4804 15.3154 20.2929 15.5029C20.1054 15.6904 20 15.9448 20 16.21V19.21C20 19.4752 19.8946 19.7296 19.7071 19.9171C19.5196 20.1047 19.2652 20.21 19 20.21H5C4.73478 20.21 4.48043 20.1047 4.29289 19.9171C4.10536 19.7296 4 19.4752 4 19.21V9.67001L9.88 15.55C10.4396 16.1103 11.1981 16.4267 11.99 16.43C12.3903 16.431 12.7867 16.3519 13.156 16.1973C13.5252 16.0428 13.8598 15.8159 14.14 15.53L13.44 14.82L12.7 14.14C12.5131 14.3232 12.2618 14.4259 12 14.4259C11.7382 14.4259 11.4869 14.3232 11.3 14.14L5.41 8.26001H11C11.2652 8.26001 11.5196 8.15465 11.7071 7.96711C11.8946 7.77958 12 7.52522 12 7.26001C12 6.99479 11.8946 6.74044 11.7071 6.5529C11.5196 6.36536 11.2652 6.26001 11 6.26001H5C4.20435 6.26001 3.44129 6.57608 2.87868 7.13869C2.31607 7.7013 2 8.46436 2 9.26001V19.26C2 20.0557 2.31607 20.8187 2.87868 21.3813C3.44129 21.9439 4.20435 22.26 5 22.26H19C19.7956 22.26 20.5587 21.9439 21.1213 21.3813C21.6839 20.8187 22 20.0557 22 19.26V16.26C22 15.9948 21.8946 15.7404 21.7071 15.5529C21.5196 15.3654 21.2652 15.26 21 15.26V15.21Z" fill="#27046A"/>
</svg>
