<svg width="24" height="24" viewBox="0 0 24 24" fill="none" xmlns="http://www.w3.org/2000/svg">
<path d="M21.71 9.29L17.71 5.29C17.6168 5.19676 17.5061 5.1228 17.3843 5.07234C17.2624 5.02188 17.1319 4.99591 17 4.99591C16.7337 4.99591 16.4783 5.1017 16.29 5.29C16.1017 5.47831 15.9959 5.7337 15.9959 6C15.9959 6.2663 16.1017 6.5217 16.29 6.71L18.59 9H7.00002C6.7348 9 6.48045 9.10536 6.29291 9.2929C6.10537 9.48043 6.00002 9.73479 6.00002 10C6.00002 10.2652 6.10537 10.5196 6.29291 10.7071C6.48045 10.8946 6.7348 11 7.00002 11H21C21.1974 10.999 21.3902 10.9396 21.5539 10.8293C21.7176 10.7189 21.845 10.5626 21.92 10.38C21.9966 10.1979 22.0175 9.99718 21.9801 9.80319C21.9428 9.6092 21.8488 9.43063 21.71 9.29ZM17 13H3.00002C2.80259 13.001 2.60988 13.0604 2.44616 13.1707C2.28244 13.2811 2.15504 13.4374 2.08002 13.62C2.00344 13.8021 1.98252 14.0028 2.01989 14.1968C2.05726 14.3908 2.15126 14.5694 2.29002 14.71L6.29002 18.71C6.38298 18.8037 6.49358 18.8781 6.61544 18.9289C6.7373 18.9797 6.86801 19.0058 7.00002 19.0058C7.13203 19.0058 7.26274 18.9797 7.38459 18.9289C7.50645 18.8781 7.61705 18.8037 7.71002 18.71C7.80375 18.617 7.87814 18.5064 7.92891 18.3846C7.97968 18.2627 8.00582 18.132 8.00582 18C8.00582 17.868 7.97968 17.7373 7.92891 17.6154C7.87814 17.4936 7.80375 17.383 7.71002 17.29L5.41002 15H17C17.2652 15 17.5196 14.8946 17.7071 14.7071C17.8947 14.5196 18 14.2652 18 14C18 13.7348 17.8947 13.4804 17.7071 13.2929C17.5196 13.1054 17.2652 13 17 13Z" fill="#27046A"/>
</svg>
