<svg width="24" height="24" viewBox="0 0 24 24" fill="none" xmlns="http://www.w3.org/2000/svg">
<path d="M19.22 5.99994H12.66C12.3948 5.99994 12.1404 6.1053 11.9529 6.29283C11.7654 6.48037 11.66 6.73472 11.66 6.99994C11.66 7.26516 11.7654 7.51951 11.9529 7.70705C12.1404 7.89458 12.3948 7.99994 12.66 7.99994H19.22C19.4269 7.99994 19.6253 8.08212 19.7715 8.2284C19.9178 8.37468 20 8.57307 20 8.77994V9.55994H16.22C15.9548 9.55994 15.7004 9.6653 15.5129 9.85283C15.3254 10.0404 15.22 10.2947 15.22 10.5599C15.22 10.8252 15.3254 11.0795 15.5129 11.267C15.7004 11.4546 15.9548 11.5599 16.22 11.5599H18.59L17.89 12.2499C17.7963 12.3429 17.7219 12.4535 17.6711 12.5754C17.6203 12.6972 17.5942 12.8279 17.5942 12.9599C17.5942 13.092 17.6203 13.2227 17.6711 13.3445C17.7219 13.4664 17.7963 13.577 17.89 13.6699C17.983 13.7637 18.0936 13.8381 18.2154 13.8888C18.3373 13.9396 18.468 13.9657 18.6 13.9657C18.732 13.9657 18.8627 13.9396 18.9846 13.8888C19.1064 13.8381 19.217 13.7637 19.31 13.6699L21.19 11.7899C21.4201 11.5607 21.6035 11.289 21.73 10.9899V10.8899C21.8958 10.5568 21.9879 10.1919 22 9.81994V8.81994C22.004 8.45188 21.9351 8.08667 21.7972 7.74535C21.6594 7.40404 21.4554 7.09337 21.197 6.83124C20.9386 6.56911 20.6309 6.3607 20.2916 6.21803C19.9523 6.07536 19.5881 6.00124 19.22 5.99994ZM3.71 2.28994C3.61676 2.1967 3.50607 2.12274 3.38425 2.07228C3.26243 2.02182 3.13186 1.99585 3 1.99585C2.86814 1.99585 2.73758 2.02182 2.61575 2.07228C2.49393 2.12274 2.38324 2.1967 2.29 2.28994C2.1017 2.47824 1.99591 2.73364 1.99591 2.99994C1.99591 3.26624 2.1017 3.52164 2.29 3.70994L5.14 6.54994C4.78582 6.8037 4.49752 7.13855 4.29919 7.5265C4.10087 7.91445 3.99828 8.34424 4 8.77994V9.77994C4.00029 10.1596 4.08214 10.5347 4.24 10.8799V10.9399C4.36761 11.2414 4.5508 11.5162 4.78 11.7499L10.19 17.1499V20.9999C10.1897 21.1699 10.2326 21.3371 10.3149 21.4858C10.3971 21.6346 10.5159 21.7599 10.66 21.8499C10.8191 21.9486 11.0028 22.0005 11.19 21.9999C11.3465 21.999 11.5007 21.9613 11.64 21.8899L15.2 20.1099C15.3649 20.0268 15.5036 19.8997 15.6007 19.7426C15.6978 19.5855 15.7494 19.4046 15.75 19.2199V17.2199L20.26 21.7399C20.353 21.8337 20.4636 21.9081 20.5854 21.9588C20.7073 22.0096 20.838 22.0357 20.97 22.0357C21.102 22.0357 21.2327 22.0096 21.3546 21.9588C21.4764 21.9081 21.587 21.8337 21.68 21.7399C21.7737 21.647 21.8481 21.5364 21.8989 21.4145C21.9497 21.2927 21.9758 21.162 21.9758 21.0299C21.9758 20.8979 21.9497 20.7672 21.8989 20.6454C21.8481 20.5235 21.7737 20.4129 21.68 20.3199L3.71 2.28994ZM6 8.77994C5.99879 8.62299 6.04621 8.46951 6.13574 8.34059C6.22527 8.21167 6.35251 8.11363 6.5 8.05994L6.59 7.99994L8.15 9.55994H6V8.77994ZM14.07 16.0699C13.9773 16.1634 13.904 16.2742 13.8542 16.396C13.8045 16.5179 13.7792 16.6483 13.78 16.7799V18.5999L12.22 19.3799V16.7799C12.2208 16.6483 12.1955 16.5179 12.1458 16.396C12.096 16.2742 12.0227 16.1634 11.93 16.0699L7.41 11.5599H10.15L14.37 15.7799L14.07 16.0699Z" fill="#27046A"/>
</svg>
