<svg width="24" height="24" viewBox="0 0 24 24" fill="none" xmlns="http://www.w3.org/2000/svg">
<path d="M21.9999 10.94C21.9895 10.8481 21.9694 10.7576 21.9399 10.67V10.58C21.8919 10.4772 21.8277 10.3827 21.7499 10.3L15.7499 4.3C15.6673 4.22222 15.5728 4.15808 15.4699 4.11H15.3799C15.2784 4.05174 15.1662 4.01435 15.0499 4H10.6599C10.3947 4 10.1404 4.10536 9.95283 4.2929C9.7653 4.48043 9.65994 4.73479 9.65994 5C9.65994 5.26522 9.7653 5.51957 9.95283 5.70711C10.1404 5.89465 10.3947 6 10.6599 6H13.9999V9C13.9999 9.79565 14.316 10.5587 14.8786 11.1213C15.4412 11.6839 16.2043 12 16.9999 12H19.9999V15.34C19.9999 15.6052 20.1053 15.8596 20.2928 16.0471C20.4804 16.2346 20.7347 16.34 20.9999 16.34C21.2652 16.34 21.5195 16.2346 21.707 16.0471C21.8946 15.8596 21.9999 15.6052 21.9999 15.34V11C21.9999 11 21.9999 11 21.9999 10.94ZM16.9999 10C16.7347 10 16.4804 9.89465 16.2928 9.70711C16.1053 9.51957 15.9999 9.26522 15.9999 9V7.41L18.5899 10H16.9999ZM3.70994 2.29C3.6167 2.19676 3.50601 2.1228 3.38419 2.07234C3.26237 2.02188 3.1318 1.99591 2.99994 1.99591C2.86808 1.99591 2.73751 2.02188 2.61569 2.07234C2.49387 2.1228 2.38318 2.19676 2.28994 2.29C2.10164 2.47831 1.99585 2.7337 1.99585 3C1.99585 3.2663 2.10164 3.5217 2.28994 3.71L3.19994 4.61C2.8287 4.88843 2.52711 5.24918 2.31889 5.66389C2.11067 6.0786 2.00149 6.53596 1.99994 7V17C1.99994 17.7957 2.31601 18.5587 2.87862 19.1213C3.44123 19.6839 4.20429 20 4.99994 20H18.5899L20.2899 21.71C20.3829 21.8037 20.4935 21.8781 20.6154 21.9289C20.7372 21.9797 20.8679 22.0058 20.9999 22.0058C21.132 22.0058 21.2627 21.9797 21.3845 21.9289C21.5064 21.8781 21.617 21.8037 21.7099 21.71C21.8037 21.617 21.8781 21.5064 21.9288 21.3846C21.9796 21.2627 22.0057 21.132 22.0057 21C22.0057 20.868 21.9796 20.7373 21.9288 20.6154C21.8781 20.4936 21.8037 20.383 21.7099 20.29L3.70994 2.29ZM4.99994 18C4.73472 18 4.48037 17.8946 4.29283 17.7071C4.1053 17.5196 3.99994 17.2652 3.99994 17V7C4.00207 6.7962 4.06642 6.59791 4.18438 6.4317C4.30234 6.26549 4.46827 6.13929 4.65994 6.07L16.5899 18H4.99994Z" fill="#27046A"/>
</svg>
