<svg width="24" height="24" viewBox="0 0 24 24" fill="none" xmlns="http://www.w3.org/2000/svg">
<path d="M8.46774 8.39457L8.46549 8.3964L8.46335 8.39848L8.46774 8.39457ZM18.4219 8.20804C18.3523 8.14099 18.2751 8.08232 18.1918 8.03323C18.074 7.9639 17.9432 7.91946 17.8076 7.90268C17.6719 7.88589 17.5342 7.89711 17.4031 7.93565C17.2719 7.97418 17.1501 8.03921 17.045 8.12671C16.94 8.21421 16.854 8.32233 16.7924 8.44437C16.448 9.12306 15.9729 9.72706 15.3944 10.2217C15.4829 9.72332 15.5275 9.21813 15.5277 8.71194C15.5296 7.17205 15.1234 5.65915 14.3504 4.32731C13.5774 2.99546 12.4653 1.89223 11.1274 1.12994C10.98 1.04639 10.8138 1.00165 10.6443 0.99993C10.4749 0.998205 10.3078 1.03955 10.1588 1.12009C10.0097 1.20062 9.88355 1.31771 9.79214 1.46036C9.70072 1.603 9.64704 1.76654 9.63614 1.93561C9.58018 2.88379 9.3323 3.81073 8.90753 4.66028C8.48276 5.50983 7.88993 6.2643 7.16497 6.87797L6.9345 7.06547C6.17641 7.57556 5.50539 8.20438 4.9472 8.92777C4.07951 10.0209 3.47844 11.3011 3.19166 12.667C2.90487 14.0328 2.94025 15.4467 3.295 16.7964C3.64974 18.1462 4.31409 19.3948 5.23537 20.4431C6.15664 21.4915 7.3095 22.3107 8.60251 22.836C8.75433 22.898 8.91908 22.9217 9.08223 22.9051C9.24538 22.8884 9.40192 22.8318 9.53804 22.7403C9.67416 22.6488 9.78567 22.5252 9.86274 22.3805C9.93981 22.2357 9.98007 22.0742 9.97997 21.9102C9.97925 21.8041 9.96246 21.6988 9.93017 21.5977C9.70644 20.7567 9.64202 19.8813 9.74022 19.0166C10.6865 20.8014 12.2054 22.216 14.0527 23.0332C14.2782 23.1341 14.5331 23.1477 14.7681 23.0713C16.2276 22.6002 17.5425 21.7638 18.5877 20.6414C19.6329 19.519 20.3738 18.148 20.7399 16.6586C21.1061 15.1693 21.0853 13.611 20.6796 12.132C20.2738 10.6529 19.4966 9.30215 18.4219 8.20804ZM14.5171 21.0391C13.6454 20.5973 12.8764 19.977 12.2602 19.2186C11.644 18.4601 11.1943 17.5804 10.9404 16.6368C10.8629 16.319 10.8029 15.9972 10.7607 15.6729C10.7321 15.4663 10.6397 15.2739 10.4964 15.1224C10.3531 14.971 10.1661 14.8681 9.9614 14.8282C9.89835 14.8157 9.83423 14.8095 9.76997 14.8096C9.59421 14.8096 9.42155 14.8558 9.26938 14.9438C9.11722 15.0318 8.99093 15.1583 8.90327 15.3106C8.07354 16.7417 7.65627 18.3746 7.6977 20.0284C6.96794 19.461 6.35805 18.7544 5.90338 17.9496C5.4487 17.1447 5.15829 16.2577 5.04897 15.3398C4.93965 14.4219 5.0136 13.4914 5.26652 12.6023C5.51945 11.7132 5.94632 10.8831 6.52241 10.1602C6.95982 9.59206 7.4875 9.09952 8.08441 8.70222C8.11026 8.68554 8.13504 8.66728 8.15863 8.64753C8.15863 8.64753 8.45532 8.40205 8.46546 8.39643C9.89016 7.1914 10.9035 5.57195 11.3642 3.76374C12.4538 4.77098 13.1803 6.10977 13.431 7.57225C13.6816 9.03473 13.4424 10.5391 12.7504 11.8516C12.659 12.0268 12.6215 12.2251 12.6427 12.4215C12.6638 12.618 12.7426 12.8037 12.8693 12.9554C12.9959 13.1071 13.1645 13.2179 13.354 13.2738C13.5435 13.3297 13.7453 13.3283 13.934 13.2696C15.4658 12.7895 16.8137 11.8516 17.7963 10.5821C18.3869 11.4544 18.773 12.4487 18.9258 13.491C19.0787 14.5332 18.9944 15.5965 18.6792 16.6017C18.364 17.6068 17.826 18.5279 17.1053 19.2962C16.3847 20.0645 15.4999 20.6603 14.517 21.0391L14.5171 21.0391Z" fill="#27046A"/>
</svg>
