<svg width="24" height="24" viewBox="0 0 24 24" fill="none" xmlns="http://www.w3.org/2000/svg">
<path d="M4.94002 12.24C4.8106 12.209 4.6763 12.2042 4.54499 12.2258C4.41367 12.2473 4.28799 12.2949 4.17529 12.3657C4.0626 12.4365 3.96517 12.529 3.88871 12.638C3.81225 12.7469 3.7583 12.87 3.73002 13L3.24002 14.94C3.18638 15.1971 3.23602 15.4649 3.37822 15.6857C3.52042 15.9065 3.74377 16.0625 4.00002 16.12C4.25727 16.1834 4.52918 16.1422 4.75605 16.0053C4.98292 15.8685 5.14619 15.6472 5.21002 15.39L5.70002 13.45C5.73101 13.3206 5.73585 13.1863 5.71427 13.055C5.69268 12.9237 5.6451 12.798 5.57432 12.6853C5.50354 12.5726 5.41098 12.4752 5.30206 12.3987C5.19314 12.3222 5.07006 12.2683 4.94002 12.24ZM21.94 19.76L17.94 3.76C17.8877 3.5481 17.7676 3.35912 17.5979 3.22189C17.4281 3.08467 17.2182 3.00674 17 3H14C13.7348 3 13.4805 3.10536 13.2929 3.29289C13.1054 3.48043 13 3.73478 13 4V20C13 20.2652 13.1054 20.5196 13.2929 20.7071C13.4805 20.8946 13.7348 21 14 21H21C21.1519 21.0008 21.302 20.967 21.4389 20.9012C21.5758 20.8353 21.6958 20.7392 21.79 20.62C21.8887 20.5024 21.959 20.3636 21.9954 20.2145C22.0318 20.0654 22.0334 19.9098 22 19.76H21.94ZM15 19V5H16.22L19.72 19H15ZM6.40002 6.42C6.27196 6.3871 6.13865 6.37991 6.0078 6.39887C5.87695 6.41782 5.75115 6.46254 5.63769 6.53042C5.52424 6.59831 5.42537 6.68803 5.34681 6.79438C5.26825 6.90073 5.21156 7.0216 5.18002 7.15L4.70002 9.09C4.63658 9.34725 4.67782 9.61916 4.81469 9.84603C4.95156 10.0729 5.17287 10.2362 5.43002 10.3H5.67002C5.89846 10.3067 6.12228 10.2349 6.30423 10.0966C6.48617 9.95831 6.61527 9.76188 6.67002 9.54L7.15002 7.6C7.20397 7.34432 7.15569 7.07768 7.01552 6.85714C6.87535 6.63661 6.65442 6.4797 6.40002 6.42ZM7.51002 5H9.51002C9.77524 5 10.0296 4.89464 10.2171 4.70711C10.4047 4.51957 10.51 4.26522 10.51 4C10.51 3.73478 10.4047 3.48043 10.2171 3.29289C10.0296 3.10536 9.77524 3 9.51002 3H7.51002C7.2448 3 6.99045 3.10536 6.80291 3.29289C6.61538 3.48043 6.51002 3.73478 6.51002 4C6.51002 4.26522 6.61538 4.51957 6.80291 4.70711C6.99045 4.89464 7.2448 5 7.51002 5ZM4.24002 19C4.27185 18.7348 4.19701 18.4678 4.03198 18.2577C3.86695 18.0477 3.62524 17.9118 3.36002 17.88C3.0948 17.8482 2.82781 17.923 2.61777 18.088C2.40773 18.2531 2.27185 18.4948 2.24002 18.76L2.00002 19.76C1.96257 19.9076 1.95931 20.0618 1.99051 20.2108C2.0217 20.3599 2.08652 20.4998 2.18002 20.62C2.27727 20.7433 2.40218 20.8419 2.54464 20.9079C2.6871 20.9739 2.8431 21.0055 3.00002 21H4.00002C4.26524 21.0318 4.53223 20.957 4.74227 20.792C4.95232 20.6269 5.08819 20.3852 5.12002 20.12C5.15185 19.8548 5.07701 19.5878 4.91198 19.3777C4.74695 19.1677 4.50524 19.0318 4.24002 19ZM10 6.51C9.7348 6.51 9.48045 6.61536 9.29291 6.80289C9.10538 6.99043 9.00002 7.24478 9.00002 7.51V9.51C9.00002 9.77522 9.10538 10.0296 9.29291 10.2171C9.48045 10.4046 9.7348 10.51 10 10.51C10.2652 10.51 10.5196 10.4046 10.7071 10.2171C10.8947 10.0296 11 9.77522 11 9.51V7.51C11 7.24478 10.8947 6.99043 10.7071 6.80289C10.5196 6.61536 10.2652 6.51 10 6.51ZM10 12.51C9.7348 12.51 9.48045 12.6154 9.29291 12.8029C9.10538 12.9904 9.00002 13.2448 9.00002 13.51V15.51C9.00002 15.7752 9.10538 16.0296 9.29291 16.2171C9.48045 16.4046 9.7348 16.51 10 16.51C10.2652 16.51 10.5196 16.4046 10.7071 16.2171C10.8947 16.0296 11 15.7752 11 15.51V13.51C11 13.2448 10.8947 12.9904 10.7071 12.8029C10.5196 12.6154 10.2652 12.51 10 12.51ZM10 18.51C9.82648 18.51 9.65593 18.5552 9.50514 18.6411C9.35436 18.727 9.22853 18.8507 9.14002 19H8.00002C7.7348 19 7.48045 19.1054 7.29291 19.2929C7.10538 19.4804 7.00002 19.7348 7.00002 20C7.00002 20.2652 7.10538 20.5196 7.29291 20.7071C7.48045 20.8946 7.7348 21 8.00002 21H10C10.2652 21 10.5196 20.8946 10.7071 20.7071C10.8947 20.5196 11 20.2652 11 20V19.51C11 19.2448 10.8947 18.9904 10.7071 18.8029C10.5196 18.6154 10.2652 18.51 10 18.51Z" fill="#27046A"/>
</svg>
