<svg width="24" height="24" viewBox="0 0 24 24" fill="none" xmlns="http://www.w3.org/2000/svg">
<path d="M21.71 20.2899L20.78 19.3599L20.69 19.2599L20.63 19.1899L20.13 18.6899L20 18.6199L14.82 13.4199L14.73 13.3399L11.53 10.1299L11.43 9.99994L3.71 2.28994C3.61676 2.1967 3.50607 2.12274 3.38425 2.07228C3.26243 2.02182 3.13186 1.99585 3 1.99585C2.86814 1.99585 2.73758 2.02182 2.61575 2.07228C2.49393 2.12274 2.38324 2.1967 2.29 2.28994C2.1017 2.47824 1.99591 2.73364 1.99591 2.99994C1.99591 3.26624 2.1017 3.52164 2.29 3.70994L3.29 4.70994C3.0986 5.11302 2.99953 5.55373 3 5.99994V17.9999C3 18.7956 3.31607 19.5587 3.87868 20.1213C4.44129 20.6839 5.20435 20.9999 6 20.9999H18C18.4414 20.9946 18.8758 20.8886 19.27 20.6899C19.27 20.6899 19.27 20.6899 19.32 20.6899L20.27 21.6899C20.363 21.7837 20.4736 21.8581 20.5954 21.9088C20.7173 21.9596 20.848 21.9857 20.98 21.9857C21.112 21.9857 21.2427 21.9596 21.3646 21.9088C21.4864 21.8581 21.597 21.7837 21.69 21.6899C21.8759 21.5056 21.9822 21.2558 21.9859 20.994C21.9896 20.7323 21.8906 20.4795 21.71 20.2899ZM5 6.40994L8.24 9.64994C7.99452 9.77651 7.76881 9.93821 7.57 10.1299L5 12.7099V6.40994ZM6 18.9999C5.73479 18.9999 5.48043 18.8946 5.2929 18.707C5.10536 18.5195 5 18.2652 5 17.9999V15.5399L9 11.5399C9.14969 11.4015 9.3461 11.3246 9.55 11.3246C9.75391 11.3246 9.95031 11.4015 10.1 11.5399L17.59 18.9999H6ZM9.66 4.99994H18C18.2652 4.99994 18.5196 5.1053 18.7071 5.29283C18.8946 5.48037 19 5.73472 19 5.99994V11.9399C18.9068 11.8467 18.7961 11.7727 18.6743 11.7223C18.5524 11.6718 18.4219 11.6458 18.29 11.6458C18.1581 11.6458 18.0276 11.6718 17.9058 11.7223C17.7839 11.7727 17.6732 11.8467 17.58 11.9399C17.4868 12.0332 17.4128 12.1439 17.3623 12.2657C17.3119 12.3875 17.2859 12.5181 17.2859 12.6499C17.2859 12.7818 17.3119 12.9124 17.3623 13.0342C17.4128 13.156 17.4868 13.2667 17.58 13.3599L19.32 15.0999C19.413 15.1937 19.5236 15.2681 19.6454 15.3188C19.7673 15.3696 19.898 15.3957 20.03 15.3957C20.162 15.3957 20.2927 15.3696 20.4146 15.3188C20.5364 15.2681 20.647 15.1937 20.74 15.0999C20.8339 15.0053 20.9079 14.8929 20.9577 14.7692C21.0075 14.6456 21.0321 14.5132 21.03 14.3799V5.99994C21.03 5.20429 20.7139 4.44123 20.1513 3.87862C19.5887 3.31601 18.8257 2.99994 18.03 2.99994H9.66C9.39479 2.99994 9.14043 3.1053 8.9529 3.29283C8.76536 3.48037 8.66 3.73472 8.66 3.99994C8.66 4.26516 8.76536 4.51951 8.9529 4.70705C9.14043 4.89458 9.39479 4.99994 9.66 4.99994Z" fill="#27046A"/>
</svg>
