<svg width="24" height="24" viewBox="0 0 24 24" fill="none" xmlns="http://www.w3.org/2000/svg">
<path d="M10.63 5.49C11.623 5.2579 12.6588 5.28273 13.6396 5.56215C14.6203 5.84157 15.5137 6.36635 16.2353 7.08695C16.9569 7.80754 17.4829 8.70017 17.7637 9.68054C18.0444 10.6609 18.0707 11.6967 17.84 12.69C17.8087 12.8181 17.8031 12.951 17.8234 13.0813C17.8437 13.2115 17.8896 13.3364 17.9584 13.4489C18.0271 13.5613 18.1175 13.6591 18.2241 13.7365C18.3308 13.8139 18.4518 13.8695 18.58 13.9C18.6564 13.9098 18.7336 13.9098 18.81 13.9C19.0384 13.9067 19.2623 13.8349 19.4442 13.6966C19.6262 13.5583 19.7552 13.3619 19.81 13.14C20.1215 11.8145 20.0896 10.4314 19.7172 9.12176C19.3448 7.81207 18.6443 6.6191 17.682 5.6558C16.7197 4.6925 15.5274 3.99076 14.2181 3.617C12.9088 3.24325 11.5258 3.20986 10.2 3.52C9.93478 3.581 9.70466 3.74486 9.56026 3.97553C9.41585 4.2062 9.369 4.48478 9.43 4.75C9.491 5.01522 9.65486 5.24534 9.88553 5.38974C10.1162 5.53414 10.3948 5.581 10.66 5.52L10.63 5.49ZM21.71 20.07L17.44 15.8L3.71 2.07C3.61704 1.97627 3.50644 1.90188 3.38458 1.85111C3.26272 1.80034 3.13201 1.7742 3 1.7742C2.86799 1.7742 2.73728 1.80034 2.61542 1.85111C2.49356 1.90188 2.38296 1.97627 2.29 2.07C2.10375 2.25736 1.99921 2.51081 1.99921 2.775C1.99921 3.03918 2.10375 3.29264 2.29 3.48L5.5 6.69C4.39677 8.22978 3.87569 10.1111 4.02951 11.999C4.18333 13.887 5.00207 15.6591 6.34 17L11.29 21.95C11.383 22.0437 11.4936 22.1181 11.6154 22.1689C11.7373 22.2197 11.868 22.2458 12 22.2458C12.132 22.2458 12.2627 22.2197 12.3846 22.1689C12.5064 22.1181 12.617 22.0437 12.71 21.95L16.71 17.95L20.27 21.51C20.457 21.6983 20.7111 21.8046 20.9765 21.8056C21.2418 21.8065 21.4967 21.702 21.685 21.515C21.8733 21.328 21.9796 21.0739 21.9806 20.8085C21.9815 20.5432 21.877 20.2883 21.69 20.1L21.71 20.07ZM12.12 13.31C11.8392 13.3279 11.5578 13.2865 11.2942 13.1882C11.0305 13.09 10.7906 12.9373 10.59 12.74C10.3891 12.5411 10.2327 12.302 10.131 12.0382C10.0293 11.7745 9.98464 11.4922 10 11.21L12.12 13.31ZM12 19.81L7.76 15.57C6.80038 14.6064 6.19659 13.3453 6.04761 11.9935C5.89862 10.6418 6.21328 9.2795 6.94 8.13L8.41 9.6C8.0514 10.3441 7.93195 11.1809 8.06802 11.9956C8.2041 12.8103 8.58905 13.5629 9.17 14.15C9.54093 14.5231 9.98183 14.8194 10.4674 15.0219C10.9531 15.2244 11.4739 15.3291 12 15.33C12.6004 15.3273 13.1922 15.187 13.73 14.92L15.31 16.5L12 19.81Z" fill="#27046A"/>
</svg>
