<svg width="24" height="24" viewBox="0 0 24 24" fill="none" xmlns="http://www.w3.org/2000/svg">
<path d="M16 10H14V8.00001C14 7.7348 13.8946 7.48044 13.7071 7.29291C13.5196 7.10537 13.2652 7.00001 13 7.00001H7.99998C7.73477 7.00001 7.48041 7.10537 7.29288 7.29291C7.10534 7.48044 6.99998 7.7348 6.99998 8.00001V13C6.99998 13.2652 7.10534 13.5196 7.29288 13.7071C7.48041 13.8947 7.73477 14 7.99998 14H9.99998V16C9.99998 16.2652 10.1053 16.5196 10.2929 16.7071C10.4804 16.8947 10.7348 17 11 17H16C16.2652 17 16.5196 16.8947 16.7071 16.7071C16.8946 16.5196 17 16.2652 17 16V11C17 10.7348 16.8946 10.4804 16.7071 10.2929C16.5196 10.1054 16.2652 10 16 10ZM9.99998 11V12H8.99998V9.00001H12V10H11C10.7348 10 10.4804 10.1054 10.2929 10.2929C10.1053 10.4804 9.99998 10.7348 9.99998 11ZM15 15H12V12H15V15ZM21 18.28V5.72001C21.2704 5.56958 21.5023 5.35844 21.6773 5.1032C21.8523 4.84796 21.9657 4.55559 22.0085 4.24909C22.0514 3.9426 22.0225 3.63034 21.9242 3.33689C21.8259 3.04345 21.6608 2.77682 21.442 2.55799C21.2232 2.33915 20.9566 2.17409 20.6631 2.07578C20.3697 1.97748 20.0574 1.94861 19.7509 1.99146C19.4444 2.0343 19.152 2.14769 18.8968 2.3227C18.6416 2.49771 18.4304 2.72956 18.28 3.00001H5.71998C5.56955 2.72956 5.3584 2.49771 5.10317 2.3227C4.84793 2.14769 4.55556 2.0343 4.24906 1.99146C3.94257 1.94861 3.63031 1.97748 3.33686 2.07578C3.04342 2.17409 2.77679 2.33915 2.55795 2.55799C2.33912 2.77682 2.17406 3.04345 2.07575 3.33689C1.97745 3.63034 1.94858 3.9426 1.99143 4.24909C2.03427 4.55559 2.14766 4.84796 2.32267 5.1032C2.49768 5.35844 2.72953 5.56958 2.99998 5.72001V18.28C2.72953 18.4304 2.49768 18.6416 2.32267 18.8968C2.14766 19.1521 2.03427 19.4444 1.99143 19.7509C1.94858 20.0574 1.97745 20.3697 2.07575 20.6631C2.17406 20.9566 2.33912 21.2232 2.55795 21.442C2.77679 21.6609 3.04342 21.8259 3.33686 21.9242C3.63031 22.0225 3.94257 22.0514 4.24906 22.0086C4.55556 21.9657 4.84793 21.8523 5.10317 21.6773C5.3584 21.5023 5.56955 21.2705 5.71998 21H18.28C18.4304 21.2705 18.6416 21.5023 18.8968 21.6773C19.152 21.8523 19.4444 21.9657 19.7509 22.0086C20.0574 22.0514 20.3697 22.0225 20.6631 21.9242C20.9566 21.8259 21.2232 21.6609 21.442 21.442C21.6608 21.2232 21.8259 20.9566 21.9242 20.6631C22.0225 20.3697 22.0514 20.0574 22.0085 19.7509C21.9657 19.4444 21.8523 19.1521 21.6773 18.8968C21.5023 18.6416 21.2704 18.4304 21 18.28ZM19 18.28C18.6993 18.4504 18.4504 18.6993 18.28 19H5.71998C5.54956 18.6993 5.30071 18.4504 4.99998 18.28V5.72001C5.30071 5.54959 5.54956 5.30074 5.71998 5.00001H18.28C18.4504 5.30074 18.6993 5.54959 19 5.72001V18.28Z" fill="#27046A"/>
</svg>
