<svg width="24" height="24" viewBox="0 0 24 24" fill="none" xmlns="http://www.w3.org/2000/svg">
<path d="M11.9707 5.00043C8.32714 5.00043 8.32714 10.1225 8.32714 11.8578C8.32714 13.811 8.32714 19.0004 11.9873 19.0004C15.6416 19.0004 15.6416 13.8383 15.6416 11.895C15.6416 7.31976 14.4062 5.00043 11.9707 5.00043ZM11.9873 17.0004C10.8857 17.0004 10.3271 15.27 10.3271 11.8051C10.3271 9.61371 10.6123 7.00043 11.9707 7.00043C13.4248 7.00043 13.6416 10.0668 13.6416 11.895C13.6416 15.2827 13.085 17.0004 11.9873 17.0004ZM11.9883 1.00043C5.93651 1.00043 1.70999 5.48187 1.70999 11.8989C1.70999 17.3559 5.55667 23.0004 11.9952 23.0004C18.4287 23.0004 22.2735 17.3559 22.2735 11.8989C22.2734 5.48187 18.044 1.00043 11.9883 1.00043H11.9883ZM11.9951 21.0004C6.8086 21.0004 3.70997 16.3725 3.70997 11.8989C3.70997 6.5766 7.03712 3.00043 11.9883 3.00043C16.9444 3.00043 20.2735 6.5766 20.2735 11.8989C20.2734 16.3725 17.1768 21.0004 11.9951 21.0004H11.9951Z" fill="#27046A"/>
</svg>
