<svg width="24" height="24" viewBox="0 0 24 24" fill="none" xmlns="http://www.w3.org/2000/svg">
<path d="M21.59 9.16997L12.59 2.62997C12.4187 2.50483 12.2121 2.43738 12 2.43738C11.7879 2.43738 11.5813 2.50483 11.41 2.62997L2.41 9.16997C2.23933 9.29466 2.11256 9.47021 2.04788 9.67144C1.9832 9.87266 1.98394 10.0892 2.05 10.29L5.49 20.87C5.55781 21.0788 5.69247 21.2595 5.8732 21.3843C6.05393 21.509 6.27068 21.5707 6.49 21.56H17.56C17.7793 21.5707 17.9961 21.509 18.1768 21.3843C18.3575 21.2595 18.4922 21.0788 18.56 20.87L22 10.29C22.061 10.084 22.0541 9.86388 21.9802 9.66216C21.9064 9.46044 21.7696 9.28786 21.59 9.16997ZM16.84 19.56H7.16L4.16 10.36L12 4.67997L19.82 10.36L16.84 19.56Z" fill="#27046A"/>
</svg>
