<svg width="24" height="24" viewBox="0 0 24 24" fill="none" xmlns="http://www.w3.org/2000/svg">
<path d="M4.91 13.1C5.00007 13.2441 5.12538 13.3629 5.27411 13.4451C5.42283 13.5273 5.59006 13.5703 5.76 13.57C5.94497 13.5753 6.12778 13.5292 6.28809 13.4367C6.44841 13.3443 6.57993 13.2092 6.66803 13.0465C6.75613 12.8838 6.79735 12.6998 6.78711 12.515C6.77686 12.3303 6.71555 12.152 6.61 12C5.30157 9.92185 4.45891 7.58492 4.14 5.14998C4.11847 5.00564 4.1288 4.85833 4.17026 4.71839C4.21172 4.57846 4.28331 4.4493 4.38 4.33998C4.47371 4.23331 4.58906 4.14782 4.71838 4.0892C4.8477 4.03058 4.98802 4.00016 5.13 3.99998H8.13C8.36395 3.99527 8.59214 4.07274 8.77486 4.21891C8.95758 4.36509 9.08325 4.57071 9.13 4.79998C9.13 5.02998 9.21 5.23998 9.26 5.46998V5.59998C9.37636 6.12476 9.5335 6.63966 9.73 7.13998L8.34 7.79998C8.2199 7.85582 8.11208 7.93496 8.02281 8.03281C7.93355 8.13066 7.86461 8.24527 7.82 8.36998C7.76912 8.49196 7.74292 8.62282 7.74292 8.75498C7.74292 8.88715 7.76912 9.018 7.82 9.13998C7.92 9.34998 8.02 9.55998 8.14 9.77998C8.20533 9.89457 8.29268 9.9951 8.39703 10.0758C8.50138 10.1565 8.62066 10.2157 8.748 10.2501C8.87534 10.2845 9.00822 10.2934 9.139 10.2762C9.26978 10.259 9.39587 10.2161 9.51 10.15C9.67341 10.0563 9.80704 9.91836 9.8955 9.75206C9.98396 9.58576 10.0236 9.39785 10.01 9.20998L10.58 8.99998C11.0324 8.79159 11.3908 8.42188 11.585 7.9632C11.7792 7.50452 11.7952 6.98988 11.63 6.51998C11.4685 6.09673 11.3382 5.66224 11.24 5.21998V5.11998C11.24 4.91998 11.16 4.71998 11.13 4.53998C11.0201 3.83159 10.6601 3.18597 10.1153 2.72004C9.57051 2.25411 8.87687 1.99867 8.16 1.99998H5.16C4.73053 1.99373 4.30472 2.07978 3.91137 2.2523C3.51802 2.42482 3.1663 2.6798 2.88 2.99998C2.59545 3.32332 2.38387 3.70414 2.25963 4.11655C2.13539 4.52895 2.10141 4.96327 2.16 5.38998C2.50715 8.12889 3.44548 10.7596 4.91 13.1ZM19.52 12.89L18.92 12.78H18.84C18.3876 12.6832 17.943 12.5528 17.51 12.39C17.0473 12.224 16.5398 12.2343 16.0842 12.4187C15.6286 12.6032 15.2569 12.9489 15.04 13.39L14.83 13.85C14.1479 13.4554 13.505 12.9967 12.91 12.48L21.71 3.68998C21.8032 3.59674 21.8772 3.48605 21.9277 3.36423C21.9781 3.24241 22.0041 3.11184 22.0041 2.97998C22.0041 2.84812 21.9781 2.71756 21.9277 2.59573C21.8772 2.47391 21.8032 2.36322 21.71 2.26998C21.6168 2.17674 21.5061 2.10278 21.3842 2.05232C21.2624 2.00186 21.1319 1.97589 21 1.97589C20.8681 1.97589 20.7376 2.00186 20.6158 2.05232C20.4939 2.10278 20.3832 2.17674 20.29 2.26998L2.29 20.27C2.19627 20.3629 2.12188 20.4735 2.07111 20.5954C2.02034 20.7173 1.9942 20.848 1.9942 20.98C1.9942 21.112 2.02034 21.2427 2.07111 21.3646C2.12188 21.4864 2.19627 21.597 2.29 21.69C2.38296 21.7837 2.49356 21.8581 2.61542 21.9089C2.73728 21.9596 2.86799 21.9858 3 21.9858C3.13201 21.9858 3.26272 21.9596 3.38458 21.9089C3.50644 21.8581 3.61704 21.7837 3.71 21.69L8.3 17.09C11.1726 19.6712 14.7605 21.3204 18.59 21.82C18.7231 21.8299 18.8569 21.8299 18.99 21.82C19.7261 21.8238 20.4379 21.5569 20.99 21.07C21.3064 20.787 21.5591 20.4402 21.7315 20.0523C21.9038 19.6644 21.992 19.2444 21.99 18.82V15.82C21.9847 15.1202 21.7349 14.4443 21.2838 13.9092C20.8327 13.3741 20.2088 13.0136 19.52 12.89ZM20 18.89C19.9998 19.032 19.9694 19.1723 19.9108 19.3016C19.8522 19.4309 19.7667 19.5463 19.66 19.64C19.5507 19.7367 19.4215 19.8083 19.2816 19.8497C19.1417 19.8912 18.9943 19.9015 18.85 19.88C15.4529 19.4355 12.2682 17.979 9.71 15.7L11.48 13.93C12.4996 14.8187 13.637 15.5624 14.86 16.14C14.982 16.1909 15.1128 16.2171 15.245 16.2171C15.3772 16.2171 15.508 16.1909 15.63 16.14C15.7547 16.0954 15.8693 16.0264 15.9672 15.9372C16.065 15.8479 16.1442 15.7401 16.2 15.62L16.82 14.21C17.3418 14.4036 17.8764 14.5606 18.42 14.68H18.53L19.22 14.81C19.4456 14.8608 19.6466 14.9882 19.7888 15.1705C19.931 15.3528 20.0056 15.5788 20 15.81V18.89Z" fill="#27046A"/>
</svg>
