<svg width="24" height="24" viewBox="0 0 24 24" fill="none" xmlns="http://www.w3.org/2000/svg">
<path d="M7 9.99994C6.80222 9.99994 6.60888 10.0586 6.44443 10.1685C6.27998 10.2784 6.15181 10.4345 6.07612 10.6173C6.00044 10.8 5.98063 11.001 6.01922 11.195C6.0578 11.389 6.15304 11.5672 6.2929 11.707C6.43275 11.8469 6.61093 11.9421 6.80491 11.9807C6.99889 12.0193 7.19996 11.9995 7.38269 11.9238C7.56541 11.8481 7.72159 11.72 7.83147 11.5555C7.94135 11.3911 8 11.1977 8 10.9999C8 10.7347 7.89465 10.4804 7.70711 10.2928C7.51957 10.1053 7.26522 9.99994 7 9.99994ZM3.71 2.28994C3.61676 2.1967 3.50607 2.12274 3.38425 2.07228C3.26243 2.02182 3.13186 1.99585 3 1.99585C2.86814 1.99585 2.73758 2.02182 2.61575 2.07228C2.49393 2.12274 2.38324 2.1967 2.29 2.28994C2.1017 2.47824 1.99591 2.73364 1.99591 2.99994C1.99591 3.26624 2.1017 3.52164 2.29 3.70994L4.62 5.99994C3.8919 6.09289 3.22314 6.44955 2.74031 7.00241C2.25748 7.55527 1.99409 8.26595 2 8.99994V14.9999C2 15.7956 2.31607 16.5587 2.87868 17.1213C3.44129 17.6839 4.20435 17.9999 5 17.9999H6V20.9999C6 21.2652 6.10536 21.5195 6.2929 21.707C6.48043 21.8946 6.73479 21.9999 7 21.9999H17C17.2652 21.9999 17.5196 21.8946 17.7071 21.707C17.8946 21.5195 18 21.2652 18 20.9999V19.4099L20.29 21.7099C20.383 21.8037 20.4936 21.8781 20.6154 21.9288C20.7373 21.9796 20.868 22.0057 21 22.0057C21.132 22.0057 21.2627 21.9796 21.3846 21.9288C21.5064 21.8781 21.617 21.8037 21.71 21.7099C21.8037 21.617 21.8781 21.5064 21.9289 21.3845C21.9797 21.2627 22.0058 21.132 22.0058 20.9999C22.0058 20.8679 21.9797 20.7372 21.9289 20.6154C21.8781 20.4935 21.8037 20.3829 21.71 20.2899L3.71 2.28994ZM6 14.9999V15.9999H5C4.73479 15.9999 4.48043 15.8946 4.2929 15.707C4.10536 15.5195 4 15.2652 4 14.9999V8.99994C4 8.73472 4.10536 8.48037 4.2929 8.29283C4.48043 8.1053 4.73479 7.99994 5 7.99994H6.59L12.59 13.9999H7C6.73479 13.9999 6.48043 14.1053 6.2929 14.2928C6.10536 14.4804 6 14.7347 6 14.9999ZM16 19.9999H8V15.9999H14.59L16 17.4099V19.9999ZM19 5.99994H18V2.99994C18 2.73472 17.8946 2.48037 17.7071 2.29283C17.5196 2.1053 17.2652 1.99994 17 1.99994H8.66C8.39479 1.99994 8.14043 2.1053 7.9529 2.29283C7.76536 2.48037 7.66 2.73472 7.66 2.99994C7.66 3.26516 7.76536 3.51951 7.9529 3.70705C8.14043 3.89458 8.39479 3.99994 8.66 3.99994H16V5.99994H12.66C12.3948 5.99994 12.1404 6.1053 11.9529 6.29283C11.7654 6.48037 11.66 6.73472 11.66 6.99994C11.66 7.26516 11.7654 7.51951 11.9529 7.70705C12.1404 7.89458 12.3948 7.99994 12.66 7.99994H19C19.2652 7.99994 19.5196 8.1053 19.7071 8.29283C19.8946 8.48037 20 8.73472 20 8.99994V14.9999C20.0055 15.0364 20.0055 15.0735 20 15.1099C19.9737 15.2386 19.973 15.3713 19.998 15.5002C20.023 15.6292 20.0731 15.752 20.1455 15.8615C20.218 15.9711 20.3113 16.0653 20.4202 16.1389C20.529 16.2124 20.6513 16.2637 20.78 16.2899H20.98C21.2139 16.2947 21.4421 16.2172 21.6249 16.071C21.8076 15.9248 21.9333 15.7192 21.98 15.4899C22.0008 15.3275 22.0075 15.1635 22 14.9999V8.99994C22 8.20429 21.6839 7.44123 21.1213 6.87862C20.5587 6.31601 19.7957 5.99994 19 5.99994Z" fill="#27046A"/>
</svg>
