<svg width="24" height="24" viewBox="0 0 24 24" fill="none" xmlns="http://www.w3.org/2000/svg">
<path d="M22.6011 2.06205C22.556 1.89077 22.4662 1.73453 22.341 1.60929C22.2157 1.48404 22.0595 1.39428 21.8882 1.34916C19.8368 0.816345 17.6767 0.873732 15.6565 1.51471C13.6363 2.15569 11.8382 3.35419 10.4692 4.97222L9.35432 6.29605L6.74952 5.66757C6.11626 5.4468 5.4245 5.46262 4.802 5.71212C4.1795 5.96161 3.66829 6.42793 3.3628 7.02495L1.16261 10.9248C1.08552 11.0614 1.04164 11.2143 1.03454 11.371C1.02743 11.5277 1.05728 11.6838 1.12169 11.8268C1.1861 11.9699 1.28325 12.0957 1.40529 12.1943C1.52733 12.2928 1.67085 12.3612 1.82423 12.394L4.89698 13.0527C4.63669 13.8451 4.45083 14.66 4.34181 15.4868C4.32205 15.6387 4.33743 15.7931 4.38679 15.9382C4.43614 16.0832 4.51814 16.2149 4.62647 16.3232L7.72657 19.4233C7.81939 19.5162 7.9296 19.5899 8.05091 19.6402C8.17222 19.6905 8.30225 19.7163 8.43357 19.7163C8.46238 19.7163 8.49119 19.7149 8.52049 19.7124C9.36583 19.6364 10.2009 19.4722 11.0121 19.2224L11.6557 22.2256C11.6886 22.379 11.7571 22.5224 11.8557 22.6444C11.9542 22.7664 12.0801 22.8635 12.2231 22.9279C12.3661 22.9923 12.5222 23.0222 12.6789 23.0151C12.8355 23.0081 12.9884 22.9642 13.125 22.8872L17.0302 20.6846C17.5799 20.3506 18.0093 19.8507 18.2564 19.2569C18.5035 18.6631 18.5556 18.0062 18.4052 17.3809L17.7365 14.6219L18.9736 13.4844C20.5977 12.1193 21.8008 10.3211 22.443 8.299C23.0851 6.27692 23.14 4.11407 22.6011 2.06205ZM3.57228 10.7232L5.12843 7.96343C5.22508 7.77607 5.38976 7.63279 5.58868 7.56297C5.7876 7.49315 6.0057 7.50208 6.19825 7.58794L7.91566 8.00414L7.26566 8.77593C6.64942 9.5145 6.11643 10.3187 5.67634 11.174L3.57228 10.7232ZM16.0425 18.9454L13.3267 20.477L12.8972 18.4724C13.7678 18.0382 14.5789 17.4938 15.3106 16.8525L16.0541 16.1689L16.4575 17.8335C16.5099 18.039 16.4981 18.2557 16.424 18.4544C16.3498 18.6531 16.2167 18.8244 16.0425 18.9454ZM17.6567 11.98L13.9722 15.3663C12.5137 16.6276 10.7148 17.4293 8.80177 17.6705L6.39747 15.2662C6.72039 13.3482 7.54918 11.551 8.79835 10.0602L10.4767 8.0675C10.5047 8.03824 10.5308 8.00726 10.5548 7.97473L11.9898 6.27105C13.0507 5.01794 14.4253 4.06885 15.973 3.52069C17.5207 2.97253 19.1862 2.84493 20.7993 3.15093C21.1127 4.76915 20.9865 6.44179 20.4338 7.99465C19.8811 9.5475 18.9221 10.9238 17.6567 11.98ZM16.7337 5.81629C16.4371 5.81629 16.1471 5.90426 15.9004 6.06908C15.6537 6.2339 15.4615 6.46817 15.3479 6.74226C15.2344 7.01635 15.2047 7.31795 15.2626 7.60892C15.3204 7.89989 15.4633 8.16717 15.6731 8.37695C15.8829 8.58672 16.1501 8.72959 16.4411 8.78746C16.7321 8.84534 17.0337 8.81564 17.3078 8.70211C17.5819 8.58857 17.8161 8.39632 17.981 8.14964C18.1458 7.90297 18.2337 7.61296 18.2337 7.31629C18.2338 7.1193 18.195 6.92423 18.1196 6.74223C18.0442 6.56024 17.9337 6.39487 17.7944 6.25558C17.6551 6.11628 17.4898 6.00579 17.3078 5.93042C17.1258 5.85504 16.9307 5.81625 16.7337 5.81627L16.7337 5.81629Z" fill="#27046A"/>
</svg>
