<svg width="24" height="24" viewBox="0 0 24 24" fill="none" xmlns="http://www.w3.org/2000/svg">
<path d="M14 18C14.2653 18 14.5196 17.8947 14.7071 17.7071C14.8947 17.5196 15 17.2652 15 17V15C15 14.7348 14.8947 14.4805 14.7071 14.2929C14.5196 14.1054 14.2653 14 14 14C13.7348 14 13.4805 14.1054 13.2929 14.2929C13.1054 14.4805 13 14.7348 13 15V17C13 17.2652 13.1054 17.5196 13.2929 17.7071C13.4805 17.8947 13.7348 18 14 18ZM10 18C10.2653 18 10.5196 17.8947 10.7071 17.7071C10.8947 17.5196 11 17.2652 11 17V15C11 14.7348 10.8947 14.4805 10.7071 14.2929C10.5196 14.1054 10.2653 14 10 14C9.73482 14 9.48047 14.1054 9.29293 14.2929C9.10539 14.4805 9.00004 14.7348 9.00004 15V17C9.00004 17.2652 9.10539 17.5196 9.29293 17.7071C9.48047 17.8947 9.73482 18 10 18ZM19 6.00003H17.62L15.89 2.55003C15.8372 2.42308 15.7587 2.3084 15.6595 2.21316C15.5603 2.11791 15.4426 2.04414 15.3136 1.99647C15.1846 1.94879 15.0472 1.92823 14.9099 1.93607C14.7726 1.94392 14.6384 1.97999 14.5157 2.04204C14.3929 2.10408 14.2843 2.19078 14.1966 2.2967C14.1089 2.40261 14.044 2.52548 14.006 2.65762C13.9679 2.78976 13.9575 2.92833 13.9754 3.06467C13.9933 3.20102 14.0391 3.3322 14.11 3.45003L15.38 6.00003H8.62004L9.89004 3.45003C9.9871 3.21693 9.9924 2.95575 9.90486 2.71891C9.81732 2.48208 9.64343 2.28712 9.4181 2.17319C9.19277 2.05926 8.93268 2.03479 8.69005 2.10469C8.44742 2.17458 8.24022 2.33368 8.11004 2.55003L6.38004 6.00003H5.00004C4.29323 6.01078 3.61291 6.27077 3.07909 6.73416C2.54526 7.19755 2.19221 7.83455 2.08221 8.53283C1.9722 9.23112 2.11231 9.94581 2.47782 10.5509C2.84333 11.1559 3.41076 11.6125 4.08004 11.84L4.82004 19.3C4.89466 20.0426 5.24338 20.7307 5.79811 21.2299C6.35284 21.7292 7.07374 22.0038 7.82004 22H16.2C16.9463 22.0038 17.6672 21.7292 18.222 21.2299C18.7767 20.7307 19.1254 20.0426 19.2 19.3L19.94 11.84C20.6108 11.6118 21.1791 11.1536 21.5443 10.5465C21.9096 9.93942 22.0482 9.22266 21.9356 8.52317C21.823 7.82368 21.4665 7.18661 20.9292 6.7248C20.3919 6.26299 19.7085 6.00624 19 6.00003ZM17.19 19.1C17.1652 19.3475 17.0489 19.5769 16.864 19.7433C16.6791 19.9098 16.4388 20.0013 16.19 20H7.81004C7.56127 20.0013 7.32097 19.9098 7.13606 19.7433C6.95115 19.5769 6.83491 19.3475 6.81004 19.1L6.10004 12H17.9L17.19 19.1ZM19 10H5.00004C4.73482 10 4.48047 9.89467 4.29293 9.70713C4.10539 9.5196 4.00004 9.26524 4.00004 9.00003C4.00004 8.73481 4.10539 8.48046 4.29293 8.29292C4.48047 8.10538 4.73482 8.00003 5.00004 8.00003H19C19.2653 8.00003 19.5196 8.10538 19.7071 8.29292C19.8947 8.48046 20 8.73481 20 9.00003C20 9.26524 19.8947 9.5196 19.7071 9.70713C19.5196 9.89467 19.2653 10 19 10Z" fill="#27046A"/>
</svg>
