<svg width="24" height="24" viewBox="0 0 24 24" fill="none" xmlns="http://www.w3.org/2000/svg">
<path d="M12.878 5.92841C12.9218 5.92556 12.9657 5.93245 13.0065 5.94859C13.0473 5.96473 13.0841 5.98971 13.1141 6.02175C13.1441 6.05378 13.1666 6.09207 13.18 6.13386C13.1935 6.17564 13.1975 6.21989 13.1918 6.26341C13.1938 6.35533 13.1953 6.44725 13.1954 6.53916C13.196 7.13157 13.193 7.72404 13.1975 8.31639C13.2008 8.74992 13.2769 8.83339 13.6969 8.88548C14.7448 8.98195 15.8001 8.9666 16.8448 8.8397C17.386 8.80215 17.9174 8.67586 18.4177 8.46586C18.5409 8.42804 18.6451 8.34471 18.7091 8.23281C18.7732 8.12092 18.7922 7.98884 18.7623 7.86344C18.5634 6.47899 17.9444 5.18894 16.9889 4.16759C16.0333 3.14624 14.7873 2.44282 13.4191 2.15238C12.2043 1.88861 10.9397 1.97283 9.77065 2.39538C8.74433 2.75279 7.82005 3.35385 7.07709 4.147C5.9334 5.28458 5.27196 6.81907 5.23022 8.43164C5.25161 10.3721 5.77735 12.2736 6.7558 13.9494C6.87542 14.1942 7.06672 14.3969 7.30427 14.5303C7.54182 14.6638 7.81437 14.7218 8.08569 14.6967C8.73901 14.681 9.39301 14.6931 10.0468 14.6931V14.6896C10.7413 14.6896 11.4359 14.6898 12.1304 14.6901C12.3797 14.6907 12.577 14.7502 12.575 15.0624C12.5704 15.7876 12.5757 16.5128 12.5717 17.238C12.5704 17.4581 12.5084 17.67 12.2455 17.6721C11.9816 17.6741 11.9191 17.4631 11.9158 17.2425C11.9107 16.8954 11.916 16.548 11.9164 16.2008C11.9169 15.7498 11.843 15.644 11.3933 15.5618C10.6162 15.4352 9.82434 15.4285 9.04525 15.5419C8.76974 15.5638 8.49949 15.6295 8.24471 15.7367C8.03286 15.8364 7.94863 15.9817 8.05153 16.204C8.15859 16.4352 8.25845 16.6712 8.38474 16.8918C9.412 18.6203 10.5569 20.2761 11.8112 21.8475C11.9652 22.047 12.0844 22.0511 12.2423 21.858C12.591 21.4316 12.9572 21.0194 13.3023 20.5901C14.6551 18.9516 15.8524 17.1907 16.8786 15.3302C17.5641 14.1201 18.0676 12.8156 18.3731 11.4588C18.4408 11.2851 18.4671 11.098 18.4501 10.9124C18.4331 10.7267 18.3731 10.5476 18.275 10.3891C18.1769 10.2305 18.0433 10.097 17.8848 9.99892C17.7263 9.90086 17.5471 9.84098 17.3615 9.824C16.8132 9.70277 16.2523 9.64849 15.691 9.66235C14.782 9.65558 13.8729 9.65887 12.9638 9.65967C12.719 9.65991 12.537 9.5896 12.5368 9.30237C12.5363 8.2912 12.5349 7.27997 12.5386 6.26886C12.5394 6.053 12.6435 5.92041 12.878 5.92841Z" fill="#27046A"/>
</svg>
