<svg width="24" height="24" viewBox="0 0 24 24" fill="none" xmlns="http://www.w3.org/2000/svg">
<path d="M21.9 7.59L20.9 3.72C20.7981 3.33568 20.6209 2.97543 20.3786 2.66021C20.1363 2.34499 19.8337 2.08108 19.4885 1.88382C19.1433 1.68656 18.7623 1.55988 18.3677 1.51116C17.9731 1.46244 17.5728 1.49263 17.19 1.6L15.26 2.12C15.1323 2.15364 15.0125 2.21224 14.9076 2.2924C14.8027 2.37257 14.7147 2.47272 14.6487 2.58707C14.5827 2.70142 14.54 2.82772 14.523 2.95866C14.5061 3.08961 14.5152 3.22261 14.55 3.35L14.81 4.35L4.18996 7.16C3.9343 7.22807 3.71604 7.39468 3.58296 7.62334C3.44989 7.85201 3.41285 8.12409 3.47996 8.38L3.73996 9.38L2.73996 9.64C2.47475 9.67315 2.23356 9.8103 2.06947 10.0213C1.90537 10.2323 1.83181 10.4998 1.86496 10.765C1.89812 11.0302 2.03527 11.2714 2.24625 11.4355C2.45722 11.5996 2.72475 11.6732 2.98996 11.64C3.07632 11.6504 3.16361 11.6504 3.24996 11.64L4.24996 11.37L4.50996 12.37C4.57887 12.6225 4.74402 12.8379 4.96996 12.97C5.1214 13.0599 5.29388 13.1082 5.46996 13.11C5.55597 13.1251 5.64396 13.1251 5.72996 13.11L8.99996 12.08V12.5C9.00066 12.944 9.10329 13.3819 9.29996 13.78L4.29996 18.78C4.11166 18.967 4.00535 19.2211 4.00441 19.4865C4.00347 19.7518 4.10799 20.0067 4.29496 20.195C4.48194 20.3833 4.73606 20.4896 5.00143 20.4906C5.26679 20.4915 5.52166 20.387 5.70996 20.2L10.71 15.2L10.99 15.31V21.5C10.99 21.7652 11.0953 22.0196 11.2829 22.2071C11.4704 22.3946 11.7247 22.5 11.99 22.5C12.2552 22.5 12.5095 22.3946 12.6971 22.2071C12.8846 22.0196 12.99 21.7652 12.99 21.5V15.32C13.089 15.2861 13.1859 15.246 13.28 15.2L18.28 20.2C18.4683 20.387 18.7231 20.4915 18.9885 20.4906C19.2539 20.4896 19.508 20.3833 19.695 20.195C19.8819 20.0067 19.9865 19.7518 19.9855 19.4865C19.9846 19.2211 19.8783 18.967 19.69 18.78L14.69 13.78C14.8841 13.3806 14.9898 12.944 15 12.5V10.5L16.35 10.14L16.6 11.14C16.6586 11.3582 16.7893 11.5501 16.9709 11.6844C17.1525 11.8188 17.3742 11.8877 17.6 11.88H17.86L19.79 11.36C20.18 11.2576 20.5455 11.0776 20.8644 10.8308C21.1834 10.584 21.4493 10.2754 21.6462 9.92346C21.8432 9.57153 21.9672 9.18351 22.0108 8.78257C22.0544 8.38164 22.0167 7.97603 21.9 7.59ZM13 12.5C12.9989 12.7575 12.8986 13.0046 12.72 13.19C12.5346 13.3687 12.2874 13.469 12.03 13.47C11.7676 13.4689 11.5162 13.3647 11.33 13.18C11.1452 12.9937 11.0411 12.7423 11.04 12.48V11.48L13 11V12.5ZM6.18996 10.76L5.66996 8.83L15.33 6.24L15.59 7.24L15.85 8.24L6.18996 10.76ZM19.87 8.86C19.8044 8.97477 19.7167 9.0754 19.612 9.15607C19.5073 9.23674 19.3877 9.29586 19.26 9.33L18.26 9.59L17.48 6.69L17 4.76L16.74 3.76L17.74 3.5C17.8674 3.46527 18.0004 3.45612 18.1313 3.47306C18.2622 3.49001 18.3885 3.53272 18.5029 3.59873C18.6172 3.66473 18.7174 3.75274 18.7976 3.85765C18.8777 3.96257 18.9363 4.08232 18.97 4.21L19.97 8.08C20.0069 8.21002 20.017 8.34618 19.9999 8.48024C19.9827 8.61431 19.9385 8.74349 19.87 8.86Z" fill="#27046A"/>
</svg>
