<svg width="24" height="24" viewBox="0 0 24 24" fill="none" xmlns="http://www.w3.org/2000/svg">
<g clip-path="url(#clip0_43_3894)">
<path d="M22.7099 21.29L21.7099 20.29L15.7099 14.29L9.70994 8.29L3.70994 2.29L2.70994 1.29C2.52164 1.1017 2.26624 0.995911 1.99994 0.995911C1.73364 0.995911 1.47824 1.1017 1.28994 1.29C1.10164 1.47831 0.99585 1.7337 0.99585 2C0.99585 2.2663 1.10164 2.5217 1.28994 2.71L1.99994 3.41V21C1.99994 21.2652 2.1053 21.5196 2.29283 21.7071C2.48037 21.8946 2.73472 22 2.99994 22H20.5899L21.2899 22.71C21.3829 22.8037 21.4935 22.8781 21.6154 22.9289C21.7372 22.9797 21.8679 23.0058 21.9999 23.0058C22.132 23.0058 22.2627 22.9797 22.3845 22.9289C22.5064 22.8781 22.617 22.8037 22.7099 22.71C22.8037 22.617 22.8781 22.5064 22.9288 22.3846C22.9796 22.2627 23.0057 22.132 23.0057 22C23.0057 21.868 22.9796 21.7373 22.9288 21.6154C22.8781 21.4936 22.8037 21.383 22.7099 21.29ZM3.99994 5.41L6.58994 8H3.99994V5.41ZM7.99994 20H3.99994V16H7.99994V20ZM7.99994 14H3.99994V10H7.99994V14ZM9.99994 11.41L12.5899 14H9.99994V11.41ZM13.9999 20H9.99994V16H13.9999V20ZM15.9999 20V17.41L18.5899 20H15.9999ZM8.66994 4H13.9999V9C13.9999 9.26522 14.1053 9.51957 14.2928 9.70711C14.4804 9.89464 14.7347 10 14.9999 10H19.9999V15.33C19.9999 15.5952 20.1053 15.8496 20.2928 16.0371C20.4804 16.2246 20.7347 16.33 20.9999 16.33C21.2652 16.33 21.5195 16.2246 21.707 16.0371C21.8946 15.8496 21.9999 15.5952 21.9999 15.33V3C21.9999 2.73479 21.8946 2.48043 21.707 2.2929C21.5195 2.10536 21.2652 2 20.9999 2H8.66994C8.40473 2 8.15037 2.10536 7.96283 2.2929C7.7753 2.48043 7.66994 2.73479 7.66994 3C7.66994 3.26522 7.7753 3.51957 7.96283 3.70711C8.15037 3.89465 8.40473 4 8.66994 4ZM15.9999 4H19.9999V8H15.9999V4Z" fill="#27046A"/>
</g>
<defs>
<clipPath id="clip0_43_3894">
<rect width="24" height="24" fill="white"/>
</clipPath>
</defs>
</svg>
