<svg width="24" height="24" viewBox="0 0 24 24" fill="none" xmlns="http://www.w3.org/2000/svg">
<path d="M19 20H5C4.73478 20 4.48043 20.1053 4.29289 20.2929C4.10536 20.4804 4 20.7348 4 21C4 21.2652 4.10536 21.5196 4.29289 21.7071C4.48043 21.8946 4.73478 22 5 22H19C19.2652 22 19.5196 21.8946 19.7071 21.7071C19.8946 21.5196 20 21.2652 20 21C20 20.7348 19.8946 20.4804 19.7071 20.2929C19.5196 20.1053 19.2652 20 19 20ZM8.71 7.70999L11 5.40999V17C11 17.2652 11.1054 17.5196 11.2929 17.7071C11.4804 17.8946 11.7348 18 12 18C12.2652 18 12.5196 17.8946 12.7071 17.7071C12.8946 17.5196 13 17.2652 13 17V5.40999L15.29 7.70999C15.383 7.80372 15.4936 7.87811 15.6154 7.92888C15.7373 7.97965 15.868 8.00579 16 8.00579C16.132 8.00579 16.2627 7.97965 16.3846 7.92888C16.5064 7.87811 16.617 7.80372 16.71 7.70999C16.8037 7.61702 16.8781 7.50642 16.9289 7.38456C16.9797 7.26271 17.0058 7.132 17.0058 6.99999C17.0058 6.86798 16.9797 6.73727 16.9289 6.61541C16.8781 6.49355 16.8037 6.38295 16.71 6.28999L12.71 2.28999C12.6149 2.19895 12.5028 2.12758 12.38 2.07999C12.1365 1.97997 11.8635 1.97997 11.62 2.07999C11.4972 2.12758 11.3851 2.19895 11.29 2.28999L7.29 6.28999C7.19676 6.38323 7.1228 6.49392 7.07234 6.61574C7.02188 6.73756 6.99591 6.86813 6.99591 6.99999C6.99591 7.13185 7.02188 7.26242 7.07234 7.38424C7.1228 7.50606 7.19676 7.61675 7.29 7.70999C7.38324 7.80323 7.49393 7.87719 7.61575 7.92765C7.73757 7.97811 7.86814 8.00408 8 8.00408C8.13186 8.00408 8.26243 7.97811 8.38425 7.92765C8.50607 7.87719 8.61676 7.80323 8.71 7.70999Z" fill="#27046A"/>
</svg>
