<svg width="25" height="24" viewBox="0 0 25 24" fill="none" xmlns="http://www.w3.org/2000/svg">
<path d="M12.904 6.5C13.2996 6.5 13.6863 6.3827 14.0152 6.16294C14.3441 5.94318 14.6004 5.63082 14.7518 5.26537C14.9031 4.89992 14.9428 4.49778 14.8656 4.10982C14.7884 3.72186 14.5979 3.36549 14.3182 3.08579C14.0385 2.80608 13.6822 2.6156 13.2942 2.53843C12.9062 2.46126 12.5041 2.50087 12.1386 2.65224C11.7732 2.80362 11.4608 3.05996 11.2411 3.38886C11.0213 3.71776 10.904 4.10444 10.904 4.5C10.904 5.03043 11.1147 5.53914 11.4898 5.91421C11.8649 6.28929 12.3736 6.5 12.904 6.5ZM20.404 20.5H19.404V15.5C19.404 15.2348 19.2987 14.9804 19.1111 14.7929C18.9236 14.6054 18.6692 14.5 18.404 14.5H13.404V12.5H18.404C18.6692 12.5 18.9236 12.3946 19.1111 12.2071C19.2987 12.0196 19.404 11.7652 19.404 11.5C19.404 11.2348 19.2987 10.9804 19.1111 10.7929C18.9236 10.6054 18.6692 10.5 18.404 10.5H13.404V8.5C13.404 8.23478 13.2987 7.98043 13.1111 7.79289C12.9236 7.60536 12.6692 7.5 12.404 7.5C12.1388 7.5 11.8844 7.60536 11.6969 7.79289C11.5094 7.98043 11.404 8.23478 11.404 8.5V15.5C11.404 15.7652 11.5094 16.0196 11.6969 16.2071C11.8844 16.3946 12.1388 16.5 12.404 16.5H17.404V21.5C17.404 21.7652 17.5094 22.0196 17.6969 22.2071C17.8844 22.3946 18.1388 22.5 18.404 22.5H20.404C20.6692 22.5 20.9236 22.3946 21.1111 22.2071C21.2987 22.0196 21.404 21.7652 21.404 21.5C21.404 21.2348 21.2987 20.9804 21.1111 20.7929C20.9236 20.6054 20.6692 20.5 20.404 20.5ZM13.604 18.9C13.1003 19.5716 12.398 20.0677 11.5967 20.3181C10.7953 20.5684 9.93555 20.5602 9.1391 20.2947C8.34266 20.0293 7.64993 19.5199 7.15905 18.8388C6.66816 18.1578 6.40402 17.3395 6.40402 16.5C6.40519 15.7227 6.63281 14.9626 7.05903 14.3126C7.48526 13.6626 8.09163 13.1509 8.80402 12.84C9.04801 12.7339 9.23988 12.5352 9.3374 12.2877C9.43492 12.0401 9.4301 11.764 9.32402 11.52C9.21793 11.276 9.01926 11.0841 8.77171 10.9866C8.52416 10.8891 8.24801 10.8939 8.00401 11C7.16251 11.3674 6.41657 11.9231 5.82365 12.6243C5.23072 13.3254 4.80662 14.1532 4.58401 15.0441C4.36141 15.9349 4.34624 16.865 4.53967 17.7626C4.73309 18.6602 5.12996 19.5014 5.69971 20.2215C6.26945 20.9416 6.99687 21.5214 7.82593 21.9161C8.655 22.3108 9.5636 22.5099 10.4818 22.4982C11.3999 22.4864 12.3031 22.2641 13.1218 21.8483C13.9405 21.4326 14.6529 20.8344 15.204 20.1C15.3631 19.8878 15.4315 19.6211 15.394 19.3586C15.3565 19.096 15.2162 18.8591 15.004 18.7C14.7918 18.5409 14.5251 18.4725 14.2626 18.51C14 18.5476 13.7631 18.6878 13.604 18.9Z" fill="#27046A"/>
</svg>
