<svg width="25" height="24" viewBox="0 0 25 24" fill="none" xmlns="http://www.w3.org/2000/svg">
<path d="M12.9041 15C12.3107 15 11.7307 15.1759 11.2374 15.5056C10.744 15.8352 10.3595 16.3037 10.1325 16.8519C9.90539 17.4001 9.84598 18.0033 9.96174 18.5852C10.0775 19.1672 10.3632 19.7017 10.7828 20.1213C11.2023 20.5408 11.7369 20.8266 12.3188 20.9423C12.9008 21.0581 13.504 20.9987 14.0521 20.7716C14.6003 20.5445 15.0689 20.16 15.3985 19.6667C15.7281 19.1733 15.9041 18.5933 15.9041 18C15.9041 17.2043 15.588 16.4412 15.0254 15.8786C14.4628 15.316 13.6997 15 12.9041 15ZM12.9041 19C12.7063 19 12.513 18.9413 12.3485 18.8314C12.1841 18.7216 12.0559 18.5654 11.9802 18.3826C11.9045 18.1999 11.8847 17.9989 11.9233 17.8049C11.9619 17.6109 12.0571 17.4327 12.197 17.2929C12.3368 17.153 12.515 17.0578 12.709 17.0192C12.903 16.9806 13.104 17.0004 13.2868 17.0761C13.4695 17.1518 13.6257 17.2799 13.7356 17.4444C13.8454 17.6088 13.9041 17.8022 13.9041 18C13.9041 18.2652 13.7987 18.5195 13.6112 18.7071C13.4237 18.8946 13.1693 19 12.9041 19ZM12.9041 11C11.0488 11.0064 9.27064 11.7428 7.95409 13.05C7.76784 13.2373 7.6633 13.4908 7.6633 13.755C7.6633 14.0191 7.76784 14.2726 7.95409 14.46C8.14145 14.6462 8.39491 14.7508 8.65909 14.7508C8.92328 14.7508 9.17673 14.6462 9.36409 14.46C9.82855 13.9943 10.3803 13.6249 10.9878 13.3728C11.5952 13.1208 12.2464 12.991 12.9041 12.991C13.5618 12.991 14.213 13.1208 14.8204 13.3728C15.4279 13.6249 15.9796 13.9943 16.4441 14.46C16.6287 14.6484 16.8803 14.7562 17.1441 14.76C17.347 14.7716 17.5486 14.7212 17.7221 14.6154C17.8957 14.5096 18.0328 14.3535 18.1154 14.1678C18.1979 13.982 18.2219 13.7756 18.1842 13.5759C18.1464 13.3762 18.0487 13.1927 17.9041 13.05C17.2461 12.3967 16.4659 11.8794 15.608 11.5276C14.7501 11.1759 13.8313 10.9966 12.9041 11ZM12.9041 6.99996C9.98808 7.00771 7.19267 8.16468 5.12409 10.22C5.03085 10.3132 4.95689 10.4239 4.90643 10.5457C4.85597 10.6675 4.83 10.7981 4.83 10.93C4.83 11.1963 4.93579 11.4517 5.12409 11.64C5.3124 11.8283 5.56779 11.9341 5.83409 11.9341C6.10039 11.9341 6.35579 11.8283 6.54409 11.64C8.2316 9.95456 10.5191 9.00788 12.9041 9.00788C15.2891 9.00788 17.5766 9.95456 19.2641 11.64C19.3575 11.7326 19.4683 11.806 19.5902 11.8557C19.712 11.9055 19.8425 11.9307 19.9741 11.93C20.1057 11.9307 20.2362 11.9055 20.358 11.8557C20.4798 11.806 20.5907 11.7326 20.6841 11.64C20.7778 11.547 20.8522 11.4364 20.903 11.3145C20.9538 11.1927 20.9799 11.062 20.9799 10.93C20.9799 10.798 20.9538 10.6672 20.903 10.5454C20.8522 10.4235 20.7778 10.3129 20.6841 10.22C18.6155 8.16468 15.8201 7.00771 12.9041 6.99996ZM23.5141 7.38996C22.1211 5.99606 20.4671 4.89031 18.6466 4.13589C16.8261 3.38147 14.8747 2.99316 12.9041 2.99316C10.9335 2.99316 8.98213 3.38147 7.16162 4.13589C5.34111 4.89031 3.6871 5.99606 2.29409 7.38996C2.10579 7.57827 2 7.83366 2 8.09996C2 8.36626 2.10579 8.62166 2.29409 8.80996C2.4824 8.99827 2.73779 9.10405 3.00409 9.10405C3.27039 9.10405 3.52579 8.99827 3.71409 8.80996C6.15187 6.37345 9.45745 5.00474 12.9041 5.00474C16.3507 5.00474 19.6563 6.37345 22.0941 8.80996C22.1871 8.90369 22.2977 8.97808 22.4195 9.02885C22.5414 9.07962 22.6721 9.10576 22.8041 9.10576C22.9361 9.10576 23.0668 9.07962 23.1887 9.02885C23.3105 8.97808 23.4211 8.90369 23.5141 8.80996C23.6078 8.717 23.6822 8.6064 23.733 8.48454C23.7838 8.36268 23.8099 8.23197 23.8099 8.09996C23.8099 7.96795 23.7838 7.83724 23.733 7.71539C23.6822 7.59353 23.6078 7.48292 23.5141 7.38996Z" fill="#27046A"/>
</svg>
