<svg width="25" height="24" viewBox="0 0 25 24" fill="none" xmlns="http://www.w3.org/2000/svg">
<path d="M9.80408 17C9.6063 17 9.41296 17.0587 9.24851 17.1685C9.08406 17.2784 8.95588 17.4346 8.8802 17.6173C8.80451 17.8001 8.78471 18.0011 8.82329 18.1951C8.86188 18.3891 8.95712 18.5673 9.09697 18.7071C9.23682 18.847 9.41501 18.9422 9.60899 18.9808C9.80297 19.0194 10.004 18.9996 10.1868 18.9239C10.3695 18.8482 10.5257 18.72 10.6355 18.5556C10.7454 18.3911 10.8041 18.1978 10.8041 18C10.8041 17.7348 10.6987 17.4804 10.5112 17.2929C10.3236 17.1054 10.0693 17 9.80408 17ZM6.80408 17C6.6063 17 6.41296 17.0587 6.24851 17.1685C6.08406 17.2784 5.95589 17.4346 5.8802 17.6173C5.80451 17.8001 5.78471 18.0011 5.82329 18.1951C5.86188 18.3891 5.95712 18.5673 6.09697 18.7071C6.23682 18.847 6.41501 18.9422 6.60899 18.9808C6.80297 19.0194 7.00403 18.9996 7.18676 18.9239C7.36949 18.8482 7.52567 18.72 7.63555 18.5556C7.74543 18.3911 7.80408 18.1978 7.80408 18C7.80408 17.7348 7.69872 17.4804 7.51118 17.2929C7.32365 17.1054 7.06929 17 6.80408 17ZM12.8041 17C12.6063 17 12.413 17.0587 12.2485 17.1685C12.0841 17.2784 11.9559 17.4346 11.8802 17.6173C11.8045 17.8001 11.7847 18.0011 11.8233 18.1951C11.8619 18.3891 11.9571 18.5673 12.097 18.7071C12.2368 18.847 12.415 18.9422 12.609 18.9808C12.803 19.0194 13.004 18.9996 13.1868 18.9239C13.3695 18.8482 13.5257 18.72 13.6355 18.5556C13.7454 18.3911 13.8041 18.1978 13.8041 18C13.8041 17.7348 13.6987 17.4804 13.5112 17.2929C13.3236 17.1054 13.0693 17 12.8041 17ZM15.9041 8.50001C15.992 8.34848 16.1182 8.22269 16.27 8.13525C16.4218 8.04781 16.5939 8.00179 16.7691 8.00179C16.9443 8.00179 17.1164 8.04781 17.2682 8.13525C17.42 8.22269 17.5462 8.34848 17.6341 8.50001C17.766 8.72875 17.983 8.89602 18.2378 8.96534C18.4926 9.03465 18.7645 9.00039 18.9941 8.87001C19.112 8.8081 19.2164 8.72325 19.3011 8.62043C19.3858 8.51761 19.4491 8.39891 19.4873 8.27128C19.5255 8.14366 19.5378 8.00969 19.5235 7.87725C19.5092 7.7448 19.4686 7.61655 19.4041 7.50001C19.141 7.04305 18.7622 6.66349 18.3057 6.39957C17.8493 6.13564 17.3313 5.99668 16.8041 5.99668C16.2768 5.99668 15.7589 6.13564 15.3024 6.39957C14.846 6.66349 14.4671 7.04305 14.2041 7.50001C14.1196 7.72089 14.1162 7.96455 14.1944 8.18771C14.2726 8.41088 14.4273 8.59912 14.6311 8.71901C14.835 8.83891 15.0747 8.88269 15.3077 8.8426C15.5408 8.80251 15.752 8.68113 15.9041 8.50001ZM22.9041 5.50001C22.2894 4.4369 21.4059 3.5542 20.3422 2.94052C19.2785 2.32684 18.0721 2.00378 16.8441 2.00378C15.6161 2.00378 14.4096 2.32684 13.346 2.94052C12.2823 3.5542 11.3987 4.4369 10.7841 5.50001C10.718 5.61415 10.6751 5.74024 10.6579 5.87101C10.6407 6.00179 10.6496 6.13468 10.684 6.26202C10.7183 6.38936 10.7776 6.50864 10.8583 6.61298C10.939 6.71733 11.0395 6.80468 11.1541 6.87001C11.2917 6.94836 11.4459 6.99292 11.6041 7.00001C11.7803 7.00071 11.9536 6.95484 12.1063 6.86704C12.2591 6.77923 12.386 6.65262 12.4741 6.50001C12.9129 5.73998 13.5441 5.10885 14.3042 4.67004C15.0643 4.23124 15.9264 4.00023 16.8041 4.00023C17.6817 4.00023 18.5439 4.23124 19.304 4.67004C20.064 5.10885 20.6952 5.73998 21.1341 6.50001C21.1994 6.6146 21.2868 6.71513 21.3911 6.79582C21.4955 6.8765 21.6147 6.93575 21.7421 6.97014C21.8694 7.00453 22.0023 7.01339 22.1331 6.9962C22.2639 6.97902 22.3899 6.93613 22.5041 6.87001C22.6212 6.80723 22.7246 6.72175 22.8083 6.61854C22.892 6.51534 22.9543 6.39649 22.9915 6.26894C23.0288 6.14139 23.0402 6.0077 23.0252 5.87568C23.0102 5.74365 22.969 5.61594 22.9041 5.50001ZM18.8041 14H17.8041V11C17.8041 10.7348 17.6987 10.4804 17.5112 10.2929C17.3236 10.1054 17.0693 10 16.8041 10C16.5389 10 16.2845 10.1054 16.097 10.2929C15.9094 10.4804 15.8041 10.7348 15.8041 11V14H5.80408C5.00843 14 4.24537 14.3161 3.68276 14.8787C3.12015 15.4413 2.80408 16.2044 2.80408 17V19C2.80408 19.7957 3.12015 20.5587 3.68276 21.1213C4.24537 21.6839 5.00843 22 5.80408 22H18.8041C19.5997 22 20.3628 21.6839 20.9254 21.1213C21.488 20.5587 21.8041 19.7957 21.8041 19V17C21.8041 16.2044 21.488 15.4413 20.9254 14.8787C20.3628 14.3161 19.5997 14 18.8041 14ZM19.8041 19C19.8041 19.2652 19.6987 19.5196 19.5112 19.7071C19.3236 19.8947 19.0693 20 18.8041 20H5.80408C5.53886 20 5.28451 19.8947 5.09697 19.7071C4.90943 19.5196 4.80408 19.2652 4.80408 19V17C4.80408 16.7348 4.90943 16.4804 5.09697 16.2929C5.28451 16.1054 5.53886 16 5.80408 16H18.8041C19.0693 16 19.3236 16.1054 19.5112 16.2929C19.6987 16.4804 19.8041 16.7348 19.8041 17V19Z" fill="#27046A"/>
</svg>
